SeanSans-CompressedThin.ufo
<glyph name="exclam" format="1">
  <advance width="238"/>
  <unicode hex="0021"/>
  <outline>
    <contour>
      <point x="132" y="229" type="line"/>
      <point x="135" y="722" type="line"/>
      <point x="102" y="722" type="line"/>
      <point x="105" y="229" type="line"/>
    </contour>
    <contour>
      <point x="137" y="12" type="curve"/>
      <point x="137" y="24"/>
      <point x="130" y="30"/>
      <point x="119" y="30" type="curve"/>
      <point x="108" y="30"/>
      <point x="102" y="23"/>
      <point x="102" y="12" type="curve"/>
      <point x="141" y="12"/>
      <point x="98" y="12"/>
      <point x="137" y="12" type="curve"/>
      <point x="137" y="1"/>
      <point x="130" y="-5"/>
      <point x="119" y="-5" type="curve"/>
      <point x="108" y="-5"/>
      <point x="102" y="1"/>
      <point x="102" y="12" type="curve"/>
      <point x="141" y="12"/>
      <point x="98" y="12"/>
    </contour>
  </outline>
</glyph>
<glyph name="quotedbl" format="1">
  <advance width="303"/>
  <unicode hex="0022"/>
  <outline>
    <contour>
      <point x="106" y="611" type="line"/>
      <point x="109" y="799" type="line"/>
      <point x="78" y="799" type="line"/>
      <point x="81" y="611" type="line"/>
    </contour>
    <contour>
      <point x="223" y="611" type="line"/>
      <point x="226" y="799" type="line"/>
      <point x="195" y="799" type="line"/>
      <point x="198" y="611" type="line"/>
    </contour>
  </outline>
</glyph>
<glyph name="numbersign" format="1">
  <advance width="450"/>
  <unicode hex="0023"/>
  <outline>
    <contour>
      <point x="47" y="247" type="curve"/>
      <point x="353" y="247" type="curve"/>
      <point x="358" y="270" type="curve"/>
      <point x="51" y="270" type="curve"/>
    </contour>
    <contour>
      <point x="91" y="491" type="curve"/>
      <point x="397" y="491" type="curve"/>
      <point x="402" y="513" type="curve"/>
      <point x="95" y="513" type="curve"/>
    </contour>
    <contour>
      <point x="247" y="39" type="curve"/>
      <point x="378" y="722" type="curve"/>
      <point x="353" y="722" type="curve"/>
      <point x="222" y="39" type="curve"/>
    </contour>
    <contour>
      <point x="101" y="46" type="curve"/>
      <point x="229" y="722" type="curve"/>
      <point x="204" y="722" type="curve"/>
      <point x="76" y="46" type="curve"/>
    </contour>
  </outline>
</glyph>
<glyph name="dollar" format="1">
  <advance width="377"/>
  <unicode hex="0024"/>
  <outline>
    <contour>
      <point x="188" y="-43" type="curve"/>
      <point x="188" y="-9"/>
      <point x="188" y="25"/>
      <point x="188" y="59" type="curve"/>
      <point x="163" y="59"/>
      <point x="188" y="59"/>
      <point x="163" y="59" type="curve"/>
      <point x="163" y="25"/>
      <point x="163" y="-9"/>
      <point x="163" y="-43" type="curve"/>
      <point x="188" y="-43"/>
      <point x="163" y="-43"/>
    </contour>
    <contour>
      <point x="195" y="671" type="curve"/>
      <point x="195" y="705"/>
      <point x="195" y="739"/>
      <point x="195" y="773" type="curve"/>
      <point x="170" y="773"/>
      <point x="195" y="773"/>
      <point x="170" y="773" type="curve"/>
      <point x="170" y="739"/>
      <point x="170" y="705"/>
      <point x="170" y="671" type="curve"/>
      <point x="195" y="671"/>
      <point x="170" y="671"/>
    </contour>
    <contour>
      <point x="55" y="99" type="curve"/>
      <point x="85" y="73"/>
      <point x="125" y="48"/>
      <point x="175" y="48" type="curve"/>
      <point x="264" y="48"/>
      <point x="318" y="118"/>
      <point x="318" y="198" type="curve"/>
      <point x="318" y="276"/>
      <point x="264" y="335"/>
      <point x="192" y="385" type="curve"/>
      <point x="130" y="429"/>
      <point x="93" y="474"/>
      <point x="93" y="543" type="curve"/>
      <point x="93" y="605"/>
      <point x="123" y="661"/>
      <point x="186" y="661" type="curve"/>
      <point x="231" y="661"/>
      <point x="260" y="642"/>
      <point x="293" y="612" type="curve"/>
      <point x="305" y="631"/>
      <point x="293" y="612"/>
      <point x="305" y="631" type="curve"/>
      <point x="269" y="664"/>
      <point x="236" y="683"/>
      <point x="187" y="683" type="curve"/>
      <point x="109" y="683"/>
      <point x="67" y="618"/>
      <point x="67" y="543" type="curve"/>
      <point x="67" y="467"/>
      <point x="107" y="413"/>
      <point x="177" y="365" type="curve"/>
      <point x="243" y="321"/>
      <point x="292" y="268"/>
      <point x="292" y="197" type="curve"/>
      <point x="292" y="128"/>
      <point x="250" y="70"/>
      <point x="177" y="70" type="curve"/>
      <point x="133" y="70"/>
      <point x="97" y="96"/>
      <point x="69" y="119" type="curve"/>
      <point x="55" y="99"/>
      <point x="69" y="119"/>
    </contour>
  </outline>
</glyph>
<glyph name="percent" format="1">
  <advance width="587"/>
  <unicode hex="0025"/>
  <outline>
    <contour>
      <point x="178" y="-92" type="line"/>
      <point x="436" y="757" type="line"/>
      <point x="407" y="757" type="line"/>
      <point x="150" y="-92" type="line"/>
    </contour>
    <contour>
      <point x="67" y="557" type="curve"/>
      <point x="67" y="655"/>
      <point x="71" y="742"/>
      <point x="153" y="742" type="curve"/>
      <point x="235" y="743"/>
      <point x="240" y="656"/>
      <point x="240" y="558" type="curve"/>
      <point x="240" y="460"/>
      <point x="237" y="371"/>
      <point x="155" y="371" type="curve"/>
      <point x="72" y="371"/>
      <point x="67" y="458"/>
      <point x="67" y="557" type="curve"/>
      <point x="57" y="557"/>
      <point x="52" y="557"/>
      <point x="43" y="557" type="curve"/>
      <point x="43" y="446"/>
      <point x="59" y="349"/>
      <point x="154" y="349" type="curve"/>
      <point x="249" y="349"/>
      <point x="265" y="447"/>
      <point x="265" y="559" type="curve"/>
      <point x="265" y="670"/>
      <point x="248" y="765"/>
      <point x="154" y="765" type="curve"/>
      <point x="59" y="765"/>
      <point x="43" y="669"/>
      <point x="43" y="557" type="curve"/>
      <point x="52" y="557"/>
      <point x="57" y="557"/>
    </contour>
    <contour>
      <point x="347" y="110" type="curve"/>
      <point x="347" y="208"/>
      <point x="351" y="295"/>
      <point x="433" y="295" type="curve"/>
      <point x="515" y="296"/>
      <point x="520" y="209"/>
      <point x="520" y="111" type="curve"/>
      <point x="520" y="13"/>
      <point x="517" y="-76"/>
      <point x="435" y="-76" type="curve"/>
      <point x="352" y="-76"/>
      <point x="347" y="11"/>
      <point x="347" y="110" type="curve"/>
      <point x="338" y="110"/>
      <point x="332" y="110"/>
      <point x="323" y="110" type="curve"/>
      <point x="323" y="-2"/>
      <point x="339" y="-98"/>
      <point x="434" y="-98" type="curve"/>
      <point x="530" y="-98"/>
      <point x="545" y="-1"/>
      <point x="545" y="112" type="curve"/>
      <point x="545" y="223"/>
      <point x="528" y="318"/>
      <point x="434" y="318" type="curve"/>
      <point x="339" y="318"/>
      <point x="323" y="222"/>
      <point x="323" y="110" type="curve"/>
      <point x="332" y="110"/>
      <point x="338" y="110"/>
    </contour>
  </outline>
</glyph>
<glyph name="ampersand" format="1">
  <advance width="440"/>
  <unicode hex="0026"/>
  <outline>
    <contour>
      <point x="428" y="4" type="line"/>
      <point x="360" y="119"/>
      <point x="295" y="235"/>
      <point x="226" y="349" type="curve"/>
      <point x="185" y="424"/>
      <point x="139" y="490"/>
      <point x="139" y="577" type="curve"/>
      <point x="139" y="642"/>
      <point x="156" y="703"/>
      <point x="206" y="703" type="curve"/>
      <point x="259" y="703"/>
      <point x="277" y="645"/>
      <point x="277" y="579" type="curve"/>
      <point x="277" y="499"/>
      <point x="238" y="444"/>
      <point x="178" y="390" type="curve"/>
      <point x="113" y="327"/>
      <point x="72" y="266"/>
      <point x="72" y="177" type="curve"/>
      <point x="72" y="79"/>
      <point x="113" y="-5"/>
      <point x="200" y="-5" type="curve"/>
      <point x="350" y="-5"/>
      <point x="376" y="155"/>
      <point x="405" y="318" type="curve"/>
      <point x="383" y="323"/>
      <point x="405" y="318"/>
      <point x="383" y="323" type="curve"/>
      <point x="356" y="172"/>
      <point x="328" y="19"/>
      <point x="202" y="19" type="curve"/>
      <point x="130" y="19"/>
      <point x="99" y="93"/>
      <point x="99" y="177" type="curve"/>
      <point x="99" y="257"/>
      <point x="137" y="314"/>
      <point x="195" y="368" type="curve"/>
      <point x="259" y="430"/>
      <point x="303" y="492"/>
      <point x="303" y="580" type="curve"/>
      <point x="303" y="659"/>
      <point x="276" y="727"/>
      <point x="207" y="727" type="curve"/>
      <point x="138" y="727"/>
      <point x="113" y="657"/>
      <point x="113" y="577" type="curve"/>
      <point x="113" y="485"/>
      <point x="160" y="415"/>
      <point x="207" y="336" type="curve"/>
      <point x="274" y="220"/>
      <point x="338" y="105"/>
      <point x="407" y="-9" type="curve"/>
    </contour>
  </outline>
</glyph>
<glyph name="quotesingle" format="1">
  <advance width="186"/>
  <unicode hex="0027"/>
  <outline>
    <contour>
      <point x="106" y="611" type="line"/>
      <point x="109" y="799" type="line"/>
      <point x="78" y="799" type="line"/>
      <point x="81" y="611" type="line"/>
    </contour>
  </outline>
</glyph>
<glyph name="parenleft" format="1">
  <advance width="234"/>
  <unicode hex="0028"/>
  <outline>
    <contour>
      <point x="231" y="-237" type="curve"/>
      <point x="111" y="-49"/>
      <point x="89" y="109"/>
      <point x="89" y="326" type="curve"/>
      <point x="89" y="543"/>
      <point x="113" y="700"/>
      <point x="230" y="890" type="curve"/>
      <point x="213" y="903"/>
      <point x="230" y="890"/>
      <point x="213" y="903" type="curve"/>
      <point x="91" y="712"/>
      <point x="63" y="551"/>
      <point x="63" y="326" type="curve"/>
      <point x="63" y="101"/>
      <point x="92" y="-59"/>
      <point x="213" y="-251" type="curve"/>
      <point x="231" y="-237"/>
      <point x="213" y="-251"/>
    </contour>
  </outline>
</glyph>
<glyph name="parenright" format="1">
  <advance width="242"/>
  <unicode hex="0029"/>
  <outline>
    <contour>
      <point x="20" y="-267" type="curve"/>
      <point x="142" y="-67"/>
      <point x="180" y="95"/>
      <point x="180" y="327" type="curve"/>
      <point x="180" y="552"/>
      <point x="149" y="713"/>
      <point x="23" y="903" type="curve"/>
      <point x="5" y="890"/>
      <point x="23" y="903"/>
      <point x="5" y="890" type="curve"/>
      <point x="126" y="701"/>
      <point x="153" y="544"/>
      <point x="153" y="326" type="curve"/>
      <point x="153" y="102"/>
      <point x="117" y="-57"/>
      <point x="1" y="-252" type="curve"/>
      <point x="20" y="-267"/>
      <point x="1" y="-252"/>
    </contour>
  </outline>
</glyph>
<glyph name="asterisk" format="1">
  <advance width="675"/>
  <unicode hex="002A"/>
  <outline>
    <contour>
      <point x="351" y="604" type="line"/>
      <point x="354" y="792" type="line"/>
      <point x="323" y="792" type="line"/>
      <point x="326" y="604" type="line"/>
    </contour>
    <contour>
      <point x="414" y="538" type="line"/>
      <point x="594" y="594" type="line"/>
      <point x="585" y="623" type="line"/>
      <point x="406" y="562" type="line"/>
    </contour>
    <contour>
      <point x="371" y="459" type="line"/>
      <point x="479" y="305" type="line"/>
      <point x="504" y="322" type="line"/>
      <point x="391" y="473" type="line"/>
    </contour>
    <contour>
      <point x="281" y="475" type="line"/>
      <point x="168" y="324" type="line"/>
      <point x="192" y="306" type="line"/>
      <point x="301" y="460" type="line"/>
    </contour>
    <contour>
      <point x="268" y="564" type="line"/>
      <point x="90" y="625" type="line"/>
      <point x="81" y="597" type="line"/>
      <point x="261" y="541" type="line"/>
    </contour>
  </outline>
</glyph>
<glyph name="plus" format="1">
  <advance width="557"/>
  <unicode hex="002B"/>
  <outline>
    <contour>
      <point x="48" y="297" type="curve"/>
      <point x="509" y="297" type="line"/>
      <point x="509" y="322"/>
      <point x="509" y="297"/>
      <point x="509" y="322" type="curve"/>
      <point x="48" y="322" type="line"/>
      <point x="48" y="297"/>
      <point x="48" y="322"/>
    </contour>
    <contour>
      <point x="292" y="18" type="curve"/>
      <point x="292" y="588" type="line"/>
      <point x="267" y="588"/>
      <point x="292" y="588"/>
      <point x="267" y="588" type="curve"/>
      <point x="267" y="18" type="line"/>
      <point x="292" y="18"/>
      <point x="267" y="18"/>
    </contour>
  </outline>
</glyph>
<glyph name="slash" format="1">
  <advance width="342"/>
  <unicode hex="002F"/>
  <outline>
    <contour>
      <point x="56" y="-66" type="curve"/>
      <point x="141" y="236"/>
      <point x="227" y="540"/>
      <point x="313" y="842" type="curve"/>
      <point x="288" y="842"/>
      <point x="313" y="842"/>
      <point x="288" y="842" type="curve"/>
      <point x="201" y="540"/>
      <point x="116" y="236"/>
      <point x="30" y="-66" type="curve"/>
      <point x="56" y="-66"/>
      <point x="30" y="-66"/>
    </contour>
  </outline>
</glyph>
<glyph name="zero" format="1">
  <advance width="486"/>
  <unicode hex="0030"/>
  <outline>
    <contour>
      <point x="101" y="360" type="curve"/>
      <point x="101" y="541"/>
      <point x="103" y="703"/>
      <point x="242" y="703" type="curve"/>
      <point x="384" y="703"/>
      <point x="385" y="542"/>
      <point x="385" y="363" type="curve"/>
      <point x="385" y="183"/>
      <point x="379" y="19"/>
      <point x="245" y="19" type="curve"/>
      <point x="113" y="19"/>
      <point x="101" y="180"/>
      <point x="101" y="360" type="curve"/>
      <point x="77" y="360"/>
      <point x="99" y="360"/>
      <point x="75" y="360" type="curve"/>
      <point x="75" y="164"/>
      <point x="84" y="-5"/>
      <point x="244" y="-5" type="curve"/>
      <point x="404" y="-5"/>
      <point x="411" y="166"/>
      <point x="411" y="363" type="curve"/>
      <point x="411" y="558"/>
      <point x="403" y="727"/>
      <point x="245" y="727" type="curve"/>
      <point x="85" y="727"/>
      <point x="75" y="557"/>
      <point x="75" y="360" type="curve"/>
      <point x="99" y="360"/>
      <point x="77" y="360"/>
    </contour>
  </outline>
</glyph>
<glyph name="one" format="1">
  <advance width="276"/>
  <unicode hex="0031"/>
  <outline>
    <contour>
      <point x="46" y="542" type="curve"/>
      <point x="173" y="715"/>
      <point x="46" y="542"/>
      <point x="173" y="715" type="curve"/>
      <point x="149" y="722"/>
      <point x="173" y="715"/>
      <point x="149" y="722" type="curve"/>
      <point x="28" y="557"/>
      <point x="149" y="722"/>
      <point x="28" y="557" type="curve"/>
      <point x="46" y="542"/>
      <point x="28" y="557"/>
    </contour>
    <contour>
      <point x="175" y="0" type="curve"/>
      <point x="175" y="241"/>
      <point x="175" y="481"/>
      <point x="175" y="722" type="curve"/>
      <point x="149" y="722"/>
      <point x="175" y="722"/>
      <point x="149" y="722" type="curve"/>
      <point x="149" y="481"/>
      <point x="149" y="241"/>
      <point x="149" y="0" type="curve"/>
      <point x="175" y="0"/>
      <point x="149" y="0"/>
    </contour>
  </outline>
</glyph>
<glyph name="two" format="1">
  <advance width="363"/>
  <unicode hex="0032"/>
  <outline>
    <contour>
      <point x="46" y="0" type="curve"/>
      <point x="146" y="0"/>
      <point x="214" y="0"/>
      <point x="302" y="0" type="curve"/>
      <point x="302" y="23"/>
      <point x="302" y="0"/>
      <point x="302" y="23" type="curve"/>
      <point x="210" y="23"/>
      <point x="137" y="23"/>
      <point x="46" y="23" type="curve"/>
      <point x="46" y="0"/>
      <point x="46" y="23"/>
    </contour>
    <contour>
      <point x="77" y="563" type="curve"/>
      <point x="99" y="634"/>
      <point x="118" y="703"/>
      <point x="187" y="703" type="curve"/>
      <point x="265" y="703"/>
      <point x="282" y="623"/>
      <point x="282" y="526" type="curve"/>
      <point x="282" y="408"/>
      <point x="208" y="287"/>
      <point x="183" y="237" type="curve"/>
      <point x="137" y="166"/>
      <point x="92" y="94"/>
      <point x="46" y="23" type="curve"/>
      <point x="57" y="0"/>
      <point x="46" y="23"/>
      <point x="57" y="0" type="curve"/>
      <point x="104" y="73"/>
      <point x="152" y="146"/>
      <point x="198" y="220" type="curve"/>
      <point x="229" y="275"/>
      <point x="308" y="403"/>
      <point x="308" y="527" type="curve"/>
      <point x="308" y="639"/>
      <point x="282" y="727"/>
      <point x="187" y="727" type="curve"/>
      <point x="109" y="727"/>
      <point x="78" y="654"/>
      <point x="54" y="573" type="curve"/>
      <point x="77" y="563"/>
      <point x="54" y="573"/>
    </contour>
  </outline>
</glyph>
<glyph name="four" format="1">
  <advance width="394"/>
  <unicode hex="0034"/>
  <outline>
    <contour>
      <point x="50" y="278" type="line"/>
      <point x="249" y="724" type="line"/>
      <point x="223" y="722" type="line"/>
      <point x="29" y="287" type="line"/>
    </contour>
    <contour>
      <point x="351" y="287" type="line"/>
      <point x="29" y="287" type="line"/>
      <point x="29" y="265" type="line"/>
      <point x="351" y="265" type="line"/>
    </contour>
    <contour>
      <point x="248" y="0" type="line"/>
      <point x="248" y="722" type="line"/>
      <point x="223" y="722" type="line"/>
      <point x="223" y="0" type="line"/>
    </contour>
  </outline>
</glyph>
<glyph name="five" format="1">
  <advance width="372"/>
  <unicode hex="0035"/>
  <outline>
    <contour>
      <point x="88" y="722" type="curve"/>
      <point x="88" y="619"/>
      <point x="88" y="518"/>
      <point x="88" y="407" type="curve"/>
      <point x="112" y="395"/>
      <point x="88" y="407"/>
      <point x="112" y="395" type="curve"/>
      <point x="112" y="497"/>
      <point x="112" y="598"/>
      <point x="112" y="699" type="curve"/>
      <point x="88" y="722"/>
      <point x="112" y="699"/>
    </contour>
    <contour>
      <point x="112" y="395" type="curve"/>
      <point x="124" y="407"/>
      <point x="152" y="422"/>
      <point x="174" y="422" type="curve"/>
      <point x="261" y="422"/>
      <point x="281" y="326"/>
      <point x="281" y="224" type="curve"/>
      <point x="281" y="120"/>
      <point x="255" y="18"/>
      <point x="168" y="18" type="curve"/>
      <point x="128" y="18"/>
      <point x="107" y="34"/>
      <point x="73" y="62" type="curve"/>
      <point x="58" y="44"/>
      <point x="73" y="62"/>
      <point x="58" y="44" type="curve"/>
      <point x="90" y="13"/>
      <point x="123" y="-5"/>
      <point x="167" y="-5" type="curve"/>
      <point x="270" y="-5"/>
      <point x="307" y="105"/>
      <point x="307" y="224" type="curve"/>
      <point x="307" y="340"/>
      <point x="277" y="446"/>
      <point x="176" y="446" type="curve"/>
      <point x="143" y="446"/>
      <point x="106" y="430"/>
      <point x="88" y="405" type="curve"/>
      <point x="112" y="396"/>
      <point x="88" y="405"/>
    </contour>
    <contour>
      <point x="290" y="722" type="curve"/>
      <point x="219" y="722"/>
      <point x="159" y="722"/>
      <point x="88" y="722" type="curve"/>
      <point x="112" y="699"/>
      <point x="88" y="722"/>
      <point x="112" y="699" type="curve"/>
      <point x="174" y="699"/>
      <point x="228" y="699"/>
      <point x="290" y="699" type="curve"/>
      <point x="290" y="722"/>
      <point x="290" y="699"/>
    </contour>
  </outline>
</glyph>
<glyph name="six" format="1">
  <advance width="413"/>
  <unicode hex="0036"/>
  <outline>
    <contour>
      <point x="94" y="230" type="curve"/>
      <point x="98" y="295"/>
      <point x="137" y="386"/>
      <point x="215" y="386" type="curve"/>
      <point x="299" y="386"/>
      <point x="321" y="303"/>
      <point x="321" y="202" type="curve"/>
      <point x="321" y="117"/>
      <point x="299" y="19"/>
      <point x="219" y="19" type="curve"/>
      <point x="120" y="19"/>
      <point x="98" y="123"/>
      <point x="98" y="242" type="curve"/>
      <point x="98" y="452"/>
      <point x="174" y="632"/>
      <point x="352" y="713" type="curve"/>
      <point x="342" y="733"/>
      <point x="352" y="713"/>
      <point x="342" y="733" type="curve"/>
      <point x="157" y="652"/>
      <point x="72" y="469"/>
      <point x="72" y="241" type="curve"/>
      <point x="72" y="107"/>
      <point x="103" y="-5"/>
      <point x="218" y="-5" type="curve"/>
      <point x="316" y="-5"/>
      <point x="347" y="90"/>
      <point x="347" y="203" type="curve"/>
      <point x="347" y="316"/>
      <point x="315" y="409"/>
      <point x="218" y="409" type="curve"/>
      <point x="129" y="409"/>
      <point x="86" y="326"/>
      <point x="75" y="241" type="curve"/>
      <point x="91" y="230"/>
      <point x="77" y="241"/>
    </contour>
  </outline>
</glyph>
<glyph name="seven" format="1">
  <advance width="345"/>
  <unicode hex="0037"/>
  <outline>
    <contour>
      <point x="37" y="699" type="curve"/>
      <point x="330" y="699" type="curve"/>
      <point x="330" y="722" type="curve"/>
      <point x="37" y="722" type="curve"/>
    </contour>
    <contour>
      <point x="312" y="722" type="curve"/>
      <point x="67" y="0" type="curve"/>
      <point x="95" y="0" type="curve"/>
      <point x="330" y="699" type="curve"/>
    </contour>
  </outline>
</glyph>
<glyph name="eight" format="1">
  <advance width="408"/>
  <unicode hex="0038"/>
  <outline>
    <contour>
      <point x="87" y="565" type="curve"/>
      <point x="87" y="476"/>
      <point x="126" y="425"/>
      <point x="196" y="369" type="curve"/>
      <point x="267" y="312"/>
      <point x="306" y="255"/>
      <point x="306" y="168" type="curve"/>
      <point x="306" y="86"/>
      <point x="278" y="19"/>
      <point x="203" y="19" type="curve"/>
      <point x="128" y="19"/>
      <point x="101" y="85"/>
      <point x="101" y="168" type="curve"/>
      <point x="101" y="256"/>
      <point x="141" y="311"/>
      <point x="213" y="369" type="curve"/>
      <point x="280" y="425"/>
      <point x="320" y="476"/>
      <point x="320" y="563" type="curve"/>
      <point x="320" y="657"/>
      <point x="290" y="727"/>
      <point x="203" y="727" type="curve"/>
      <point x="119" y="727"/>
      <point x="87" y="656"/>
      <point x="87" y="565" type="curve"/>
      <point x="112" y="565"/>
      <point x="87" y="565"/>
      <point x="112" y="565" type="curve"/>
      <point x="112" y="639"/>
      <point x="134" y="703"/>
      <point x="202" y="703" type="curve"/>
      <point x="273" y="703"/>
      <point x="295" y="641"/>
      <point x="295" y="563" type="curve"/>
      <point x="295" y="487"/>
      <point x="259" y="437"/>
      <point x="196" y="387" type="curve"/>
      <point x="119" y="324"/>
      <point x="75" y="267"/>
      <point x="75" y="168" type="curve"/>
      <point x="75" y="69"/>
      <point x="111" y="-5"/>
      <point x="202" y="-5" type="curve"/>
      <point x="293" y="-5"/>
      <point x="333" y="68"/>
      <point x="333" y="168" type="curve"/>
      <point x="333" y="267"/>
      <point x="289" y="325"/>
      <point x="213" y="387" type="curve"/>
      <point x="150" y="439"/>
      <point x="112" y="487"/>
      <point x="112" y="565" type="curve"/>
      <point x="87" y="565"/>
      <point x="112" y="565"/>
    </contour>
  </outline>
</glyph>
<glyph name="nine" format="1">
  <advance width="410"/>
  <unicode hex="0039"/>
  <outline>
    <contour>
      <point x="317" y="488" type="curve"/>
      <point x="303" y="426"/>
      <point x="275" y="337"/>
      <point x="195" y="337" type="curve"/>
      <point x="110" y="337"/>
      <point x="90" y="420"/>
      <point x="90" y="520" type="curve"/>
      <point x="90" y="617"/>
      <point x="111" y="703"/>
      <point x="191" y="703" type="curve"/>
      <point x="290" y="703"/>
      <point x="312" y="597"/>
      <point x="312" y="480" type="curve"/>
      <point x="312" y="270"/>
      <point x="252" y="107"/>
      <point x="64" y="9" type="curve"/>
      <point x="75" y="-15"/>
      <point x="64" y="9"/>
      <point x="75" y="-15" type="curve"/>
      <point x="272" y="87"/>
      <point x="339" y="253"/>
      <point x="339" y="481" type="curve"/>
      <point x="339" y="615"/>
      <point x="309" y="727"/>
      <point x="192" y="727" type="curve"/>
      <point x="93" y="727"/>
      <point x="64" y="632"/>
      <point x="64" y="519" type="curve"/>
      <point x="64" y="406"/>
      <point x="94" y="313"/>
      <point x="192" y="313" type="curve"/>
      <point x="281" y="313"/>
      <point x="309" y="388"/>
      <point x="333" y="480" type="curve"/>
      <point x="317" y="488"/>
      <point x="333" y="480"/>
    </contour>
  </outline>
</glyph>
<glyph name="colon" format="1">
  <advance width="206"/>
  <unicode hex="003A"/>
  <outline>
    <contour>
      <point x="116" y="421" type="curve"/>
      <point x="116" y="433"/>
      <point x="109" y="439"/>
      <point x="98" y="439" type="curve"/>
      <point x="87" y="439"/>
      <point x="81" y="432"/>
      <point x="81" y="421" type="curve"/>
      <point x="120" y="421"/>
      <point x="77" y="421"/>
      <point x="116" y="421" type="curve"/>
      <point x="116" y="410"/>
      <point x="109" y="404"/>
      <point x="98" y="404" type="curve"/>
      <point x="87" y="404"/>
      <point x="81" y="410"/>
      <point x="81" y="421" type="curve"/>
      <point x="120" y="421"/>
      <point x="77" y="421"/>
    </contour>
    <contour>
      <point x="116" y="14" type="curve"/>
      <point x="116" y="25"/>
      <point x="109" y="31"/>
      <point x="98" y="31" type="curve"/>
      <point x="87" y="31"/>
      <point x="81" y="24"/>
      <point x="81" y="14" type="curve"/>
      <point x="120" y="14"/>
      <point x="77" y="14"/>
      <point x="116" y="14" type="curve"/>
      <point x="116" y="2"/>
      <point x="109" y="-4"/>
      <point x="98" y="-4" type="curve"/>
      <point x="87" y="-4"/>
      <point x="81" y="2"/>
      <point x="81" y="14" type="curve"/>
      <point x="120" y="14"/>
      <point x="77" y="14"/>
    </contour>
  </outline>
</glyph>
<glyph name="semicolon" format="1">
  <advance width="142"/>
  <unicode hex="003B"/>
  <outline>
    <contour>
      <point x="51" y="-108" type="line"/>
      <point x="74" y="-84"/>
      <point x="92" y="-58"/>
      <point x="92" y="-12" type="curve"/>
      <point x="92" y="9"/>
      <point x="89" y="26"/>
      <point x="71" y="26" type="curve"/>
      <point x="57" y="26"/>
      <point x="50" y="20"/>
      <point x="50" y="7" type="curve"/>
      <point x="50" y="-3"/>
      <point x="54" y="-9"/>
      <point x="66" y="-14" type="curve"/>
      <point x="66" y="-34"/>
      <point x="56" y="-68"/>
      <point x="35" y="-91" type="curve"/>
    </contour>
    <contour>
      <point x="90" y="427" type="curve"/>
      <point x="90" y="439"/>
      <point x="83" y="445"/>
      <point x="72" y="445" type="curve"/>
      <point x="60" y="445"/>
      <point x="54" y="438"/>
      <point x="54" y="427" type="curve"/>
      <point x="93" y="427"/>
      <point x="51" y="427"/>
      <point x="90" y="427" type="curve"/>
      <point x="90" y="416"/>
      <point x="83" y="410"/>
      <point x="72" y="410" type="curve"/>
      <point x="60" y="410"/>
      <point x="54" y="416"/>
      <point x="54" y="427" type="curve"/>
      <point x="93" y="427"/>
      <point x="51" y="427"/>
    </contour>
  </outline>
</glyph>
<glyph name="less" format="1">
  <advance width="472"/>
  <unicode hex="003C"/>
  <outline>
    <contour>
      <point x="408" y="582" type="curve"/>
      <point x="286" y="492"/>
      <point x="163" y="402"/>
      <point x="41" y="312" type="curve"/>
      <point x="41" y="288"/>
      <point x="41" y="312"/>
      <point x="41" y="288" type="curve"/>
      <point x="163" y="378"/>
      <point x="286" y="468"/>
      <point x="408" y="558" type="curve"/>
      <point x="408" y="582"/>
      <point x="408" y="558"/>
    </contour>
    <contour>
      <point x="414" y="48" type="curve"/>
      <point x="289" y="136"/>
      <point x="165" y="224"/>
      <point x="41" y="312" type="curve"/>
      <point x="41" y="288"/>
      <point x="41" y="312"/>
      <point x="41" y="288" type="curve"/>
      <point x="165" y="200"/>
      <point x="289" y="112"/>
      <point x="414" y="24" type="curve"/>
      <point x="414" y="48"/>
      <point x="414" y="24"/>
    </contour>
  </outline>
</glyph>
<glyph name="equal" format="1">
  <advance width="488"/>
  <unicode hex="003D"/>
  <outline>
    <contour>
      <point x="67" y="206" type="curve"/>
      <point x="193" y="206"/>
      <point x="319" y="206"/>
      <point x="446" y="206" type="curve"/>
      <point x="446" y="229"/>
      <point x="446" y="206"/>
      <point x="446" y="229" type="curve"/>
      <point x="319" y="229"/>
      <point x="193" y="229"/>
      <point x="67" y="229" type="curve"/>
      <point x="67" y="206"/>
      <point x="67" y="229"/>
    </contour>
    <contour>
      <point x="67" y="428" type="curve"/>
      <point x="193" y="428"/>
      <point x="319" y="428"/>
      <point x="446" y="428" type="curve"/>
      <point x="446" y="451"/>
      <point x="446" y="428"/>
      <point x="446" y="451" type="curve"/>
      <point x="319" y="451"/>
      <point x="193" y="451"/>
      <point x="67" y="451" type="curve"/>
      <point x="67" y="428"/>
      <point x="67" y="451"/>
    </contour>
  </outline>
</glyph>
<glyph name="greater" format="1">
  <advance width="471"/>
  <unicode hex="003E"/>
  <outline>
    <contour>
      <point x="63" y="24" type="curve"/>
      <point x="185" y="114"/>
      <point x="307" y="204"/>
      <point x="430" y="294" type="curve"/>
      <point x="430" y="318"/>
      <point x="430" y="294"/>
      <point x="430" y="318" type="curve"/>
      <point x="307" y="228"/>
      <point x="185" y="138"/>
      <point x="63" y="48" type="curve"/>
      <point x="63" y="24"/>
      <point x="63" y="48"/>
    </contour>
    <contour>
      <point x="57" y="558" type="curve"/>
      <point x="181" y="470"/>
      <point x="306" y="382"/>
      <point x="430" y="294" type="curve"/>
      <point x="430" y="318"/>
      <point x="430" y="294"/>
      <point x="430" y="318" type="curve"/>
      <point x="306" y="406"/>
      <point x="181" y="494"/>
      <point x="57" y="582" type="curve"/>
      <point x="57" y="558"/>
      <point x="57" y="582"/>
    </contour>
  </outline>
</glyph>
<glyph name="question" format="1">
  <advance width="366"/>
  <unicode hex="003F"/>
  <outline>
    <contour>
      <point x="158" y="334" type="curve"/>
      <point x="158" y="297"/>
      <point x="158" y="258"/>
      <point x="158" y="221" type="curve"/>
      <point x="183" y="221"/>
      <point x="158" y="221"/>
      <point x="183" y="221" type="curve"/>
      <point x="183" y="258"/>
      <point x="183" y="297"/>
      <point x="183" y="334" type="curve"/>
      <point x="158" y="334"/>
      <point x="183" y="334"/>
    </contour>
    <contour>
      <point x="78" y="619" type="line"/>
      <point x="93" y="656"/>
      <point x="120" y="686"/>
      <point x="168" y="686" type="curve"/>
      <point x="249" y="686"/>
      <point x="275" y="608"/>
      <point x="275" y="519" type="curve"/>
      <point x="275" y="423"/>
      <point x="247" y="334"/>
      <point x="164" y="334" type="curve"/>
      <point x="164" y="309"/>
      <point x="164" y="336"/>
      <point x="164" y="311" type="curve"/>
      <point x="262" y="311"/>
      <point x="301" y="408"/>
      <point x="301" y="519" type="curve"/>
      <point x="301" y="620"/>
      <point x="262" y="710"/>
      <point x="170" y="710" type="curve"/>
      <point x="107" y="710"/>
      <point x="78" y="674"/>
      <point x="59" y="631" type="curve"/>
    </contour>
    <contour>
      <point x="188" y="13" type="curve"/>
      <point x="188" y="24"/>
      <point x="181" y="31"/>
      <point x="169" y="31" type="curve"/>
      <point x="157" y="31"/>
      <point x="151" y="23"/>
      <point x="151" y="13" type="curve"/>
      <point x="188" y="13"/>
      <point x="151" y="13"/>
      <point x="188" y="13" type="curve"/>
      <point x="188" y="1"/>
      <point x="181" y="-5"/>
      <point x="169" y="-5" type="curve"/>
      <point x="157" y="-5"/>
      <point x="151" y="1"/>
      <point x="151" y="13" type="curve"/>
      <point x="188" y="13"/>
      <point x="151" y="13"/>
    </contour>
  </outline>
</glyph>
<glyph name="at" format="1">
  <advance width="566"/>
  <unicode hex="0040"/>
  <outline>
    <contour>
      <point x="381" y="-107" type="curve"/>
      <point x="353" y="-135"/>
      <point x="328" y="-144"/>
      <point x="289" y="-144" type="curve"/>
      <point x="134" y="-144"/>
      <point x="95" y="4"/>
      <point x="95" y="185" type="curve"/>
      <point x="95" y="361"/>
      <point x="136" y="510"/>
      <point x="287" y="510" type="curve"/>
      <point x="429" y="510"/>
      <point x="465" y="369"/>
      <point x="465" y="206" type="curve"/>
      <point x="465" y="120"/>
      <point x="469" y="39"/>
      <point x="423" y="39" type="curve"/>
      <point x="367" y="39"/>
      <point x="373" y="112"/>
      <point x="373" y="190" type="curve"/>
      <point x="373" y="283"/>
      <point x="359" y="363"/>
      <point x="279" y="363" type="curve"/>
      <point x="198" y="363"/>
      <point x="178" y="285"/>
      <point x="178" y="191" type="curve"/>
      <point x="178" y="90"/>
      <point x="191" y="7"/>
      <point x="277" y="7" type="curve"/>
      <point x="356" y="7"/>
      <point x="363" y="88"/>
      <point x="369" y="180" type="curve"/>
      <point x="354" y="181"/>
      <point x="369" y="180"/>
      <point x="354" y="181" type="curve"/>
      <point x="343" y="109"/>
      <point x="337" y="29"/>
      <point x="280" y="29" type="curve"/>
      <point x="206" y="29"/>
      <point x="202" y="105"/>
      <point x="202" y="192" type="curve"/>
      <point x="202" y="273"/>
      <point x="210" y="340"/>
      <point x="276" y="340" type="curve"/>
      <point x="344" y="340"/>
      <point x="350" y="270"/>
      <point x="350" y="189" type="curve"/>
      <point x="350" y="99"/>
      <point x="344" y="19"/>
      <point x="421" y="19" type="curve"/>
      <point x="501" y="19"/>
      <point x="491" y="107"/>
      <point x="491" y="207" type="curve"/>
      <point x="491" y="388"/>
      <point x="450" y="534"/>
      <point x="289" y="534" type="curve"/>
      <point x="119" y="534"/>
      <point x="69" y="378"/>
      <point x="69" y="184" type="curve"/>
      <point x="69" y="-10"/>
      <point x="118" y="-167"/>
      <point x="287" y="-167" type="curve"/>
      <point x="331" y="-167"/>
      <point x="360" y="-158"/>
      <point x="393" y="-128" type="curve"/>
      <point x="381" y="-107"/>
      <point x="393" y="-128"/>
    </contour>
  </outline>
</glyph>
<glyph name="A" format="1">
  <advance width="403"/>
  <unicode hex="0041"/>
  <outline>
    <contour>
      <point x="301" y="277" type="curve"/>
      <point x="231" y="277"/>
      <point x="163" y="277"/>
      <point x="94" y="277" type="curve"/>
      <point x="83" y="253"/>
      <point x="94" y="277"/>
      <point x="83" y="253" type="curve"/>
      <point x="159" y="253"/>
      <point x="233" y="253"/>
      <point x="309" y="253" type="curve"/>
      <point x="301" y="277"/>
      <point x="309" y="253"/>
    </contour>
    <contour>
      <point x="377" y="0" type="curve"/>
      <point x="323" y="241"/>
      <point x="268" y="481"/>
      <point x="214" y="722" type="curve"/>
      <point x="191" y="722"/>
      <point x="214" y="722"/>
      <point x="191" y="722" type="curve"/>
      <point x="244" y="481"/>
      <point x="297" y="241"/>
      <point x="351" y="0" type="curve"/>
      <point x="377" y="0"/>
      <point x="351" y="0"/>
    </contour>
    <contour>
      <point x="34" y="0" type="curve"/>
      <point x="94" y="241"/>
      <point x="153" y="481"/>
      <point x="212" y="722" type="curve"/>
      <point x="189" y="722"/>
      <point x="212" y="722"/>
      <point x="189" y="722" type="curve"/>
      <point x="129" y="481"/>
      <point x="67" y="241"/>
      <point x="6" y="0" type="curve"/>
      <point x="34" y="0"/>
      <point x="6" y="0"/>
    </contour>
    <contour>
      <point x="202" y="825" type="move" name="top"/>
    </contour>
    <contour>
      <point x="377" y="0" type="move" name="bottom"/>
    </contour>
  </outline>
</glyph>
<glyph name="B" format="1">
  <advance width="459"/>
  <unicode hex="0042"/>
  <outline>
    <contour>
      <point x="133" y="699" type="curve"/>
      <point x="169" y="699"/>
      <point x="188" y="699"/>
      <point x="224" y="699" type="curve"/>
      <point x="304" y="699"/>
      <point x="340" y="639"/>
      <point x="340" y="555" type="curve"/>
      <point x="340" y="478"/>
      <point x="311" y="421"/>
      <point x="241" y="421" type="curve"/>
      <point x="199" y="421"/>
      <point x="176" y="421"/>
      <point x="133" y="421" type="curve"/>
      <point x="133" y="415"/>
      <point x="133" y="405"/>
      <point x="133" y="398" type="curve"/>
      <point x="171" y="398"/>
      <point x="195" y="398"/>
      <point x="232" y="398" type="curve"/>
      <point x="323" y="398"/>
      <point x="365" y="462"/>
      <point x="365" y="555" type="curve"/>
      <point x="365" y="654"/>
      <point x="318" y="722"/>
      <point x="224" y="722" type="curve"/>
      <point x="188" y="722"/>
      <point x="169" y="722"/>
      <point x="133" y="722" type="curve"/>
      <point x="133" y="716"/>
      <point x="133" y="705"/>
    </contour>
    <contour>
      <point x="155" y="0" type="curve"/>
      <point x="155" y="241"/>
      <point x="155" y="481"/>
      <point x="155" y="722" type="curve"/>
      <point x="127" y="722"/>
      <point x="155" y="722"/>
      <point x="127" y="722" type="curve"/>
      <point x="127" y="481"/>
      <point x="128" y="241"/>
      <point x="127" y="0" type="curve"/>
      <point x="155" y="0"/>
      <point x="127" y="0"/>
    </contour>
    <contour>
      <point x="133" y="398" type="curve"/>
      <point x="176" y="398"/>
      <point x="199" y="398"/>
      <point x="241" y="398" type="curve"/>
      <point x="337" y="398"/>
      <point x="368" y="312"/>
      <point x="368" y="204" type="curve"/>
      <point x="368" y="99"/>
      <point x="323" y="23"/>
      <point x="226" y="23" type="curve"/>
      <point x="189" y="23"/>
      <point x="171" y="23"/>
      <point x="133" y="23" type="curve"/>
      <point x="133" y="17"/>
      <point x="133" y="6"/>
      <point x="133" y="0" type="curve"/>
      <point x="171" y="0"/>
      <point x="189" y="0"/>
      <point x="226" y="0" type="curve"/>
      <point x="338" y="0"/>
      <point x="393" y="84"/>
      <point x="393" y="204" type="curve"/>
      <point x="393" y="329"/>
      <point x="349" y="421"/>
      <point x="233" y="421" type="curve"/>
      <point x="196" y="421"/>
      <point x="171" y="421"/>
      <point x="133" y="421" type="curve"/>
      <point x="133" y="415"/>
      <point x="133" y="405"/>
    </contour>
  </outline>
</glyph>
<glyph name="D" format="1">
  <advance width="530"/>
  <unicode hex="0044"/>
  <outline>
    <contour>
      <point x="127" y="722" type="curve"/>
      <point x="127" y="481"/>
      <point x="127" y="241"/>
      <point x="127" y="0" type="curve"/>
      <point x="152" y="0"/>
      <point x="127" y="0"/>
      <point x="152" y="0" type="curve"/>
      <point x="152" y="241"/>
      <point x="152" y="481"/>
      <point x="152" y="722" type="curve"/>
      <point x="127" y="722"/>
      <point x="152" y="722"/>
    </contour>
    <contour>
      <point x="141" y="0" type="curve"/>
      <point x="179" y="0"/>
      <point x="198" y="0"/>
      <point x="236" y="0" type="curve"/>
      <point x="407" y="0"/>
      <point x="457" y="160"/>
      <point x="457" y="357" type="curve"/>
      <point x="457" y="559"/>
      <point x="403" y="722"/>
      <point x="228" y="722" type="curve"/>
      <point x="194" y="722"/>
      <point x="175" y="722"/>
      <point x="141" y="722" type="curve"/>
      <point x="141" y="715"/>
      <point x="141" y="706"/>
      <point x="141" y="699" type="curve"/>
      <point x="175" y="699"/>
      <point x="193" y="699"/>
      <point x="228" y="699" type="curve"/>
      <point x="389" y="699"/>
      <point x="431" y="544"/>
      <point x="431" y="356" type="curve"/>
      <point x="431" y="174"/>
      <point x="393" y="23"/>
      <point x="238" y="23" type="curve"/>
      <point x="200" y="23"/>
      <point x="179" y="23"/>
      <point x="141" y="23" type="curve"/>
      <point x="141" y="16"/>
      <point x="141" y="7"/>
    </contour>
    <contour>
      <point x="214" y="823" type="move" name="top"/>
    </contour>
  </outline>
</glyph>
<glyph name="F" format="1">
  <advance width="401"/>
  <unicode hex="0046"/>
  <outline>
    <contour>
      <point x="142" y="363" type="curve"/>
      <point x="207" y="363"/>
      <point x="271" y="363"/>
      <point x="336" y="363" type="curve"/>
      <point x="336" y="385"/>
      <point x="336" y="363"/>
      <point x="336" y="385" type="curve"/>
      <point x="271" y="385"/>
      <point x="207" y="385"/>
      <point x="142" y="385" type="curve"/>
      <point x="142" y="363"/>
      <point x="142" y="385"/>
    </contour>
    <contour>
      <point x="152" y="0" type="curve"/>
      <point x="152" y="722" type="line"/>
      <point x="127" y="722"/>
      <point x="152" y="722"/>
      <point x="127" y="722" type="curve"/>
      <point x="127" y="481"/>
      <point x="127" y="241"/>
      <point x="127" y="0" type="curve"/>
      <point x="152" y="0"/>
      <point x="127" y="0"/>
    </contour>
    <contour>
      <point x="133" y="699" type="curve"/>
      <point x="215" y="699"/>
      <point x="297" y="699"/>
      <point x="380" y="699" type="curve"/>
      <point x="380" y="722"/>
      <point x="380" y="699"/>
      <point x="380" y="722" type="curve"/>
      <point x="297" y="722"/>
      <point x="215" y="722"/>
      <point x="133" y="722" type="curve"/>
      <point x="133" y="699"/>
      <point x="133" y="722"/>
    </contour>
  </outline>
</glyph>
<glyph name="G" format="1">
  <advance width="532"/>
  <unicode hex="0047"/>
  <outline>
    <contour>
      <point x="448" y="320" type="curve"/>
      <point x="404" y="320"/>
      <point x="359" y="320"/>
      <point x="315" y="320" type="curve"/>
      <point x="315" y="297"/>
      <point x="315" y="320"/>
      <point x="315" y="297" type="curve"/>
      <point x="359" y="297"/>
      <point x="404" y="297"/>
      <point x="448" y="297" type="curve"/>
      <point x="448" y="320"/>
      <point x="448" y="297"/>
    </contour>
    <contour>
      <point x="456" y="77" type="curve"/>
      <point x="456" y="158"/>
      <point x="456" y="238"/>
      <point x="456" y="320" type="curve"/>
      <point x="433" y="320"/>
      <point x="456" y="320"/>
      <point x="433" y="320" type="curve"/>
      <point x="433" y="238"/>
      <point x="433" y="158"/>
      <point x="433" y="77" type="curve"/>
      <point x="456" y="77"/>
      <point x="433" y="77"/>
    </contour>
    <contour>
      <point x="446" y="642" type="curve"/>
      <point x="397" y="695"/>
      <point x="346" y="727"/>
      <point x="276" y="727" type="curve"/>
      <point x="108" y="727"/>
      <point x="72" y="564"/>
      <point x="72" y="365" type="curve"/>
      <point x="72" y="160"/>
      <point x="111" y="-5"/>
      <point x="282" y="-5" type="curve"/>
      <point x="357" y="-5"/>
      <point x="401" y="25"/>
      <point x="456" y="77" type="curve"/>
      <point x="440" y="98"/>
      <point x="456" y="77"/>
      <point x="440" y="98" type="curve"/>
      <point x="409" y="58"/>
      <point x="350" y="20"/>
      <point x="282" y="20" type="curve"/>
      <point x="124" y="20"/>
      <point x="98" y="178"/>
      <point x="98" y="367" type="curve"/>
      <point x="98" y="547"/>
      <point x="125" y="702"/>
      <point x="275" y="702" type="curve"/>
      <point x="340" y="702"/>
      <point x="388" y="672"/>
      <point x="433" y="623" type="curve"/>
      <point x="446" y="642"/>
      <point x="433" y="623"/>
    </contour>
    <contour>
      <point x="273" y="825" type="move" name="top"/>
    </contour>
    <contour>
      <point x="281" y="-92" type="move" name="bottom"/>
    </contour>
  </outline>
</glyph>
<glyph name="H" format="1">
  <advance width="584"/>
  <unicode hex="0048"/>
  <outline>
    <contour>
      <point x="153" y="0" type="curve"/>
      <point x="153" y="722" type="line"/>
      <point x="127" y="722"/>
      <point x="153" y="722"/>
      <point x="127" y="722" type="curve"/>
      <point x="127" y="481"/>
      <point x="127" y="241"/>
      <point x="127" y="0" type="curve"/>
      <point x="153" y="0"/>
      <point x="127" y="0"/>
    </contour>
    <contour>
      <point x="443" y="374" type="curve"/>
      <point x="341" y="374"/>
      <point x="241" y="374"/>
      <point x="140" y="374" type="curve"/>
      <point x="140" y="352"/>
      <point x="140" y="374"/>
      <point x="140" y="352" type="curve"/>
      <point x="241" y="352"/>
      <point x="341" y="352"/>
      <point x="443" y="352" type="curve"/>
      <point x="443" y="374"/>
      <point x="443" y="352"/>
    </contour>
    <contour>
      <point x="456" y="1" type="curve"/>
      <point x="456" y="241"/>
      <point x="456" y="481"/>
      <point x="456" y="721" type="curve"/>
      <point x="431" y="721"/>
      <point x="456" y="721"/>
      <point x="431" y="721" type="curve"/>
      <point x="431" y="1" type="line"/>
      <point x="456" y="1"/>
      <point x="431" y="1"/>
    </contour>
  </outline>
</glyph>
<glyph name="J" format="1">
  <advance width="327"/>
  <unicode hex="004A"/>
  <outline>
    <contour>
      <point x="16" y="37" type="curve"/>
      <point x="39" y="13"/>
      <point x="62" y="-6"/>
      <point x="97" y="-6" type="curve"/>
      <point x="197" y="-6"/>
      <point x="208" y="84"/>
      <point x="208" y="214" type="curve"/>
      <point x="208" y="409"/>
      <point x="208" y="527"/>
      <point x="208" y="722" type="curve"/>
      <point x="200" y="722"/>
      <point x="191" y="722"/>
      <point x="183" y="722" type="curve"/>
      <point x="183" y="527"/>
      <point x="183" y="409"/>
      <point x="183" y="214" type="curve"/>
      <point x="183" y="109"/>
      <point x="184" y="17"/>
      <point x="97" y="17" type="curve"/>
      <point x="67" y="17"/>
      <point x="46" y="36"/>
      <point x="30" y="55" type="curve"/>
      <point x="25" y="50"/>
      <point x="21" y="43"/>
    </contour>
  </outline>
</glyph>
<glyph name="K" format="1">
  <advance width="411"/>
  <unicode hex="004B"/>
  <outline>
    <contour>
      <point x="363" y="722" type="curve"/>
      <point x="137" y="380" type="line"/>
      <point x="172" y="380"/>
      <point x="132" y="380"/>
      <point x="167" y="380" type="curve"/>
      <point x="396" y="722" type="line"/>
      <point x="357" y="722"/>
      <point x="401" y="722"/>
    </contour>
    <contour>
      <point x="152" y="0" type="curve"/>
      <point x="152" y="722" type="line"/>
      <point x="127" y="722"/>
      <point x="152" y="722"/>
      <point x="127" y="722" type="curve"/>
      <point x="127" y="481"/>
      <point x="127" y="241"/>
      <point x="127" y="0" type="curve"/>
      <point x="152" y="0"/>
      <point x="127" y="0"/>
    </contour>
    <contour>
      <point x="408" y="0" type="curve"/>
      <point x="167" y="380" type="line"/>
      <point x="132" y="380"/>
      <point x="172" y="380"/>
      <point x="137" y="380" type="curve"/>
      <point x="376" y="0" type="line"/>
      <point x="412" y="0"/>
      <point x="372" y="0"/>
    </contour>
    <contour>
      <point x="271" y="-91" type="move" name="bottom"/>
    </contour>
  </outline>
</glyph>
<glyph name="L" format="1">
  <advance width="404"/>
  <unicode hex="004C"/>
  <outline>
    <contour>
      <point x="152" y="0" type="curve"/>
      <point x="152" y="241"/>
      <point x="152" y="481"/>
      <point x="152" y="722" type="curve"/>
      <point x="127" y="722"/>
      <point x="152" y="722"/>
      <point x="127" y="722" type="curve"/>
      <point x="127" y="481"/>
      <point x="127" y="241"/>
      <point x="127" y="0" type="curve"/>
      <point x="152" y="0"/>
      <point x="127" y="0"/>
    </contour>
    <contour>
      <point x="139" y="0" type="curve"/>
      <point x="224" y="0"/>
      <point x="309" y="0"/>
      <point x="394" y="0" type="curve"/>
      <point x="394" y="23"/>
      <point x="394" y="0"/>
      <point x="394" y="23" type="curve"/>
      <point x="309" y="23"/>
      <point x="224" y="23"/>
      <point x="139" y="23" type="curve"/>
      <point x="139" y="0"/>
      <point x="139" y="23"/>
    </contour>
    <contour>
      <point x="141" y="825" type="move" name="top"/>
    </contour>
    <contour>
      <point x="230" y="-92" type="move" name="bottom"/>
    </contour>
  </outline>
</glyph>
<glyph name="M" format="1">
  <advance width="621"/>
  <unicode hex="004D"/>
  <outline>
    <contour>
      <point x="532" y="0" type="curve"/>
      <point x="519" y="241"/>
      <point x="507" y="481"/>
      <point x="494" y="722" type="curve"/>
      <point x="471" y="722"/>
      <point x="494" y="722"/>
      <point x="471" y="722" type="curve"/>
      <point x="483" y="481"/>
      <point x="495" y="241"/>
      <point x="507" y="0" type="curve"/>
      <point x="532" y="0"/>
      <point x="507" y="0"/>
    </contour>
    <contour>
      <point x="117" y="0" type="curve"/>
      <point x="128" y="241"/>
      <point x="139" y="481"/>
      <point x="150" y="722" type="curve"/>
      <point x="127" y="722"/>
      <point x="150" y="722"/>
      <point x="127" y="722" type="curve"/>
      <point x="115" y="481"/>
      <point x="103" y="241"/>
      <point x="91" y="0" type="curve"/>
      <point x="117" y="0"/>
      <point x="91" y="0"/>
    </contour>
    <contour>
      <point x="321" y="0" type="curve"/>
      <point x="264" y="241"/>
      <point x="207" y="481"/>
      <point x="151" y="722" type="curve"/>
      <point x="127" y="722"/>
      <point x="152" y="722"/>
      <point x="128" y="722" type="curve"/>
      <point x="185" y="481"/>
      <point x="241" y="241"/>
      <point x="297" y="0" type="curve"/>
      <point x="322" y="0"/>
      <point x="296" y="0"/>
    </contour>
    <contour>
      <point x="328" y="0" type="curve"/>
      <point x="383" y="241"/>
      <point x="438" y="481"/>
      <point x="493" y="722" type="curve"/>
      <point x="470" y="722"/>
      <point x="493" y="722"/>
      <point x="470" y="722" type="curve"/>
      <point x="415" y="481"/>
      <point x="358" y="241"/>
      <point x="302" y="0" type="curve"/>
      <point x="328" y="0"/>
      <point x="302" y="0"/>
    </contour>
  </outline>
</glyph>
<glyph name="N" format="1">
  <advance width="606"/>
  <unicode hex="004E"/>
  <outline>
    <contour>
      <point x="479" y="0" type="curve"/>
      <point x="371" y="241"/>
      <point x="263" y="481"/>
      <point x="156" y="722" type="curve"/>
      <point x="126" y="722"/>
      <point x="157" y="722"/>
      <point x="127" y="722" type="curve"/>
      <point x="235" y="481"/>
      <point x="343" y="241"/>
      <point x="451" y="0" type="curve"/>
      <point x="481" y="0"/>
      <point x="449" y="0"/>
    </contour>
    <contour>
      <point x="454" y="722" type="curve"/>
      <point x="454" y="481"/>
      <point x="454" y="241"/>
      <point x="454" y="0" type="curve"/>
      <point x="479" y="0"/>
      <point x="454" y="0"/>
      <point x="479" y="0" type="curve"/>
      <point x="479" y="241"/>
      <point x="479" y="481"/>
      <point x="479" y="722" type="curve"/>
      <point x="454" y="722"/>
      <point x="479" y="722"/>
    </contour>
    <contour>
      <point x="154" y="0" type="curve"/>
      <point x="154" y="241"/>
      <point x="154" y="481"/>
      <point x="154" y="722" type="curve"/>
      <point x="128" y="722"/>
      <point x="154" y="722"/>
      <point x="128" y="722" type="curve"/>
      <point x="128" y="481"/>
      <point x="128" y="241"/>
      <point x="128" y="0" type="curve"/>
      <point x="154" y="0"/>
      <point x="128" y="0"/>
    </contour>
    <contour>
      <point x="313" y="825" type="move" name="top"/>
    </contour>
    <contour>
      <point x="296" y="-92" type="move" name="bottom"/>
    </contour>
  </outline>
</glyph>
<glyph name="O" format="1">
  <advance width="518"/>
  <unicode hex="004F"/>
  <outline>
    <contour>
      <point x="98" y="360" type="curve" name="FullCurve"/>
      <point x="98" y="538"/>
      <point x="109" y="703"/>
      <point x="257" y="703" type="curve" name="FullCurve"/>
      <point x="405" y="703"/>
      <point x="421" y="540"/>
      <point x="421" y="363" type="curve" name="FullCurve"/>
      <point x="421" y="189"/>
      <point x="408" y="19"/>
      <point x="260" y="19" type="curve" name="FullCurve"/>
      <point x="112" y="19"/>
      <point x="98" y="182"/>
      <point x="98" y="360" type="curve" name="FullCurve"/>
      <point x="72" y="360"/>
      <point x="98" y="360"/>
      <point x="72" y="360" type="curve" name="FullCurve"/>
      <point x="72" y="167"/>
      <point x="97" y="-5"/>
      <point x="259" y="-5" type="curve" name="FullCurve"/>
      <point x="422" y="-5"/>
      <point x="446" y="169"/>
      <point x="446" y="363" type="curve" name="FullCurve"/>
      <point x="446" y="555"/>
      <point x="422" y="727"/>
      <point x="260" y="727" type="curve" name="FullCurve"/>
      <point x="96" y="727"/>
      <point x="72" y="553"/>
      <point x="72" y="360" type="curve" name="FullCurve"/>
      <point x="98" y="360"/>
      <point x="72" y="360"/>
    </contour>
    <contour>
      <point x="259" y="825" type="move" name="top"/>
    </contour>
  </outline>
</glyph>
<glyph name="P" format="1">
  <advance width="430"/>
  <unicode hex="0050"/>
  <outline>
    <contour>
      <point x="137" y="325" type="curve"/>
      <point x="164" y="300"/>
      <point x="196" y="280"/>
      <point x="234" y="280" type="curve"/>
      <point x="334" y="282"/>
      <point x="371" y="372"/>
      <point x="371" y="494" type="curve"/>
      <point x="371" y="616"/>
      <point x="328" y="722"/>
      <point x="220" y="722" type="curve"/>
      <point x="194" y="722"/>
      <point x="168" y="722"/>
      <point x="142" y="722" type="curve"/>
      <point x="142" y="699"/>
      <point x="142" y="722"/>
      <point x="142" y="699" type="curve"/>
      <point x="167" y="699"/>
      <point x="192" y="699"/>
      <point x="217" y="699" type="curve"/>
      <point x="313" y="699"/>
      <point x="346" y="602"/>
      <point x="346" y="493" type="curve"/>
      <point x="346" y="392"/>
      <point x="319" y="304"/>
      <point x="235" y="304" type="curve"/>
      <point x="197" y="304"/>
      <point x="174" y="321"/>
      <point x="146" y="346" type="curve"/>
      <point x="137" y="326"/>
      <point x="146" y="345"/>
    </contour>
    <contour>
      <point x="152" y="0" type="curve"/>
      <point x="152" y="241"/>
      <point x="152" y="481"/>
      <point x="152" y="722" type="curve"/>
      <point x="127" y="722"/>
      <point x="152" y="722"/>
      <point x="127" y="722" type="curve"/>
      <point x="127" y="481"/>
      <point x="127" y="241"/>
      <point x="127" y="0" type="curve"/>
      <point x="152" y="0"/>
      <point x="127" y="0"/>
    </contour>
  </outline>
</glyph>
<glyph name="Q" format="1">
  <advance width="574"/>
  <unicode hex="0051"/>
  <outline>
    <contour>
      <point x="254" y="4" type="curve"/>
      <point x="300" y="-144"/>
      <point x="363" y="-240"/>
      <point x="504" y="-240" type="curve"/>
      <point x="504" y="-216"/>
      <point x="504" y="-240"/>
      <point x="504" y="-216" type="curve"/>
      <point x="375" y="-216"/>
      <point x="319" y="-123"/>
      <point x="276" y="16" type="curve"/>
      <point x="254" y="4"/>
      <point x="276" y="16"/>
    </contour>
    <contour>
      <point x="97" y="360" type="curve"/>
      <point x="97" y="538"/>
      <point x="110" y="703"/>
      <point x="258" y="703" type="curve"/>
      <point x="404" y="703"/>
      <point x="421" y="540"/>
      <point x="421" y="363" type="curve"/>
      <point x="421" y="185"/>
      <point x="409" y="20"/>
      <point x="261" y="20" type="curve"/>
      <point x="112" y="20"/>
      <point x="97" y="182"/>
      <point x="97" y="360" type="curve"/>
      <point x="72" y="360"/>
      <point x="97" y="360"/>
      <point x="72" y="360" type="curve"/>
      <point x="72" y="167"/>
      <point x="98" y="-5"/>
      <point x="260" y="-5" type="curve"/>
      <point x="423" y="-5"/>
      <point x="447" y="170"/>
      <point x="447" y="364" type="curve"/>
      <point x="447" y="556"/>
      <point x="421" y="727"/>
      <point x="260" y="727" type="curve"/>
      <point x="98" y="727"/>
      <point x="72" y="553"/>
      <point x="72" y="360" type="curve"/>
      <point x="97" y="360"/>
      <point x="72" y="360"/>
    </contour>
  </outline>
</glyph>
<glyph name="R" format="1">
  <advance width="443"/>
  <unicode hex="0052"/>
  <outline>
    <contour>
      <point x="250" y="354" type="curve"/>
      <point x="318" y="218"/>
      <point x="343" y="136"/>
      <point x="411" y="0" type="curve"/>
      <point x="441" y="0"/>
      <point x="409" y="0"/>
      <point x="439" y="0" type="curve"/>
      <point x="371" y="136"/>
      <point x="346" y="218"/>
      <point x="277" y="354" type="curve"/>
      <point x="247" y="354"/>
      <point x="280" y="354"/>
    </contour>
    <contour>
      <point x="152" y="0" type="curve"/>
      <point x="152" y="241"/>
      <point x="152" y="481"/>
      <point x="152" y="722" type="curve"/>
      <point x="127" y="722"/>
      <point x="152" y="722"/>
      <point x="127" y="722" type="curve"/>
      <point x="127" y="481"/>
      <point x="127" y="241"/>
      <point x="127" y="0" type="curve"/>
      <point x="152" y="0"/>
      <point x="127" y="0"/>
    </contour>
    <contour>
      <point x="142" y="340" type="curve"/>
      <point x="175" y="340"/>
      <point x="209" y="340"/>
      <point x="243" y="340" type="curve"/>
      <point x="343" y="340"/>
      <point x="382" y="424"/>
      <point x="382" y="537" type="curve"/>
      <point x="382" y="646"/>
      <point x="339" y="722"/>
      <point x="238" y="722" type="curve"/>
      <point x="202" y="722"/>
      <point x="177" y="722"/>
      <point x="142" y="722" type="curve"/>
      <point x="142" y="699"/>
      <point x="142" y="722"/>
      <point x="142" y="699" type="curve"/>
      <point x="176" y="699"/>
      <point x="199" y="699"/>
      <point x="234" y="699" type="curve"/>
      <point x="321" y="699"/>
      <point x="356" y="630"/>
      <point x="356" y="535" type="curve"/>
      <point x="356" y="439"/>
      <point x="329" y="362"/>
      <point x="246" y="362" type="curve"/>
      <point x="212" y="362"/>
      <point x="176" y="362"/>
      <point x="142" y="362" type="curve"/>
      <point x="142" y="340"/>
      <point x="142" y="362"/>
    </contour>
    <contour>
      <point x="214" y="825" type="move" name="top"/>
    </contour>
    <contour>
      <point x="265" y="-92" type="move" name="bottom"/>
    </contour>
  </outline>
</glyph>
<glyph name="T" format="1">
  <advance width="394"/>
  <unicode hex="0054"/>
  <outline>
    <contour>
      <point x="210" y="0" type="curve"/>
      <point x="210" y="237"/>
      <point x="210" y="473"/>
      <point x="210" y="710" type="curve"/>
      <point x="184" y="710"/>
      <point x="210" y="710"/>
      <point x="184" y="710" type="curve"/>
      <point x="184" y="473"/>
      <point x="184" y="237"/>
      <point x="184" y="0" type="curve"/>
      <point x="210" y="0"/>
      <point x="184" y="0"/>
    </contour>
    <contour>
      <point x="10" y="697" type="curve"/>
      <point x="135" y="697"/>
      <point x="260" y="697"/>
      <point x="384" y="697" type="curve"/>
      <point x="384" y="722"/>
      <point x="384" y="697"/>
      <point x="384" y="722" type="curve"/>
      <point x="260" y="722"/>
      <point x="135" y="722"/>
      <point x="10" y="722" type="curve"/>
      <point x="10" y="697"/>
      <point x="10" y="722"/>
    </contour>
    <contour>
      <point x="197" y="825" type="move" name="top"/>
    </contour>
    <contour>
      <point x="196" y="-91" type="move" name="bottom"/>
    </contour>
  </outline>
</glyph>
<glyph name="U" format="1">
  <advance width="563"/>
  <unicode hex="0055"/>
  <outline>
    <contour>
      <point x="117" y="721" type="curve"/>
      <point x="117" y="576"/>
      <point x="117" y="416"/>
      <point x="117" y="271" type="curve"/>
      <point x="117" y="112"/>
      <point x="145" y="-5"/>
      <point x="282" y="-5" type="curve"/>
      <point x="416" y="-5"/>
      <point x="446" y="109"/>
      <point x="446" y="263" type="curve"/>
      <point x="446" y="411"/>
      <point x="446" y="574"/>
      <point x="446" y="721" type="curve"/>
      <point x="421" y="721"/>
      <point x="447" y="721"/>
      <point x="422" y="721" type="curve"/>
      <point x="422" y="572"/>
      <point x="422" y="408"/>
      <point x="422" y="259" type="curve"/>
      <point x="422" y="123"/>
      <point x="396" y="20"/>
      <point x="284" y="20" type="curve"/>
      <point x="162" y="20"/>
      <point x="141" y="130"/>
      <point x="141" y="275" type="curve"/>
      <point x="141" y="420"/>
      <point x="141" y="578"/>
      <point x="141" y="721" type="curve"/>
      <point x="116" y="721"/>
      <point x="142" y="721"/>
    </contour>
    <contour>
      <point x="284" y="825" type="move" name="top"/>
    </contour>
    <contour>
      <point x="283" y="-91" type="move" name="bottom"/>
    </contour>
  </outline>
</glyph>
<glyph name="V" format="1">
  <advance width="402"/>
  <unicode hex="0056"/>
  <outline>
    <contour>
      <point x="357" y="722" type="curve"/>
      <point x="301" y="481"/>
      <point x="245" y="241"/>
      <point x="189" y="0" type="curve"/>
      <point x="217" y="0"/>
      <point x="189" y="0"/>
      <point x="217" y="0" type="curve"/>
      <point x="273" y="241"/>
      <point x="328" y="481"/>
      <point x="384" y="722" type="curve"/>
      <point x="357" y="722"/>
      <point x="384" y="722"/>
    </contour>
    <contour>
      <point x="15" y="722" type="curve"/>
      <point x="72" y="481"/>
      <point x="129" y="241"/>
      <point x="186" y="0" type="curve"/>
      <point x="214" y="0"/>
      <point x="185" y="0"/>
      <point x="213" y="0" type="curve"/>
      <point x="157" y="241"/>
      <point x="100" y="481"/>
      <point x="44" y="722" type="curve"/>
      <point x="15" y="722"/>
      <point x="44" y="722"/>
    </contour>
  </outline>
</glyph>
<glyph name="W" format="1">
  <advance width="546"/>
  <unicode hex="0057"/>
  <outline>
    <contour>
      <point x="167" y="0" type="curve"/>
      <point x="207" y="241"/>
      <point x="247" y="481"/>
      <point x="287" y="722" type="curve"/>
      <point x="264" y="722"/>
      <point x="288" y="722"/>
      <point x="265" y="722" type="curve"/>
      <point x="226" y="481"/>
      <point x="186" y="241"/>
      <point x="148" y="0" type="curve"/>
      <point x="167" y="0"/>
      <point x="148" y="0"/>
    </contour>
    <contour>
      <point x="270" y="722" type="curve"/>
      <point x="308" y="481"/>
      <point x="343" y="241"/>
      <point x="380" y="0" type="curve"/>
      <point x="399" y="0"/>
      <point x="380" y="0"/>
      <point x="399" y="0" type="curve"/>
      <point x="364" y="241"/>
      <point x="328" y="481"/>
      <point x="293" y="722" type="curve"/>
      <point x="269" y="722"/>
      <point x="294" y="722"/>
    </contour>
    <contour>
      <point x="33" y="722" type="curve"/>
      <point x="70" y="481"/>
      <point x="107" y="241"/>
      <point x="145" y="0" type="curve"/>
      <point x="164" y="0"/>
      <point x="145" y="0"/>
      <point x="164" y="0" type="curve"/>
      <point x="129" y="241"/>
      <point x="94" y="481"/>
      <point x="59" y="722" type="curve"/>
      <point x="33" y="722"/>
      <point x="59" y="722"/>
    </contour>
    <contour>
      <point x="492" y="722" type="curve"/>
      <point x="455" y="481"/>
      <point x="419" y="241"/>
      <point x="383" y="0" type="curve"/>
      <point x="402" y="0"/>
      <point x="383" y="0"/>
      <point x="402" y="0" type="curve"/>
      <point x="441" y="241"/>
      <point x="479" y="481"/>
      <point x="518" y="722" type="curve"/>
      <point x="492" y="722"/>
      <point x="518" y="722"/>
    </contour>
  </outline>
</glyph>
<glyph name="X" format="1">
  <advance width="363"/>
  <unicode hex="0058"/>
  <outline>
    <contour>
      <point x="308" y="722" type="curve"/>
      <point x="207" y="481"/>
      <point x="107" y="241"/>
      <point x="6" y="0" type="curve"/>
      <point x="37" y="0"/>
      <point x="6" y="0"/>
      <point x="37" y="0" type="curve"/>
      <point x="137" y="241"/>
      <point x="236" y="481"/>
      <point x="336" y="722" type="curve"/>
      <point x="308" y="722"/>
      <point x="336" y="722"/>
    </contour>
    <contour>
      <point x="27" y="722" type="curve"/>
      <point x="125" y="481"/>
      <point x="225" y="241"/>
      <point x="324" y="0" type="curve"/>
      <point x="354" y="0"/>
      <point x="324" y="0"/>
      <point x="354" y="0" type="curve"/>
      <point x="255" y="241"/>
      <point x="155" y="481"/>
      <point x="56" y="722" type="curve"/>
      <point x="27" y="722"/>
      <point x="56" y="722"/>
    </contour>
  </outline>
</glyph>
<glyph name="Y" format="1">
  <advance width="357"/>
  <unicode hex="0059"/>
  <outline>
    <contour>
      <point x="26" y="722" type="curve"/>
      <point x="73" y="594"/>
      <point x="121" y="465"/>
      <point x="168" y="337" type="curve"/>
      <point x="195" y="337"/>
      <point x="168" y="336"/>
      <point x="195" y="336" type="curve"/>
      <point x="147" y="465"/>
      <point x="100" y="594"/>
      <point x="54" y="722" type="curve"/>
      <point x="26" y="722"/>
      <point x="54" y="722"/>
    </contour>
    <contour>
      <point x="318" y="722" type="curve"/>
      <point x="269" y="594"/>
      <point x="219" y="465"/>
      <point x="168" y="336" type="curve"/>
      <point x="196" y="336"/>
      <point x="168" y="337"/>
      <point x="195" y="337" type="curve"/>
      <point x="245" y="465"/>
      <point x="295" y="594"/>
      <point x="345" y="722" type="curve"/>
      <point x="318" y="722"/>
      <point x="345" y="722"/>
    </contour>
    <contour>
      <point x="195" y="0" type="curve"/>
      <point x="195" y="115"/>
      <point x="195" y="231"/>
      <point x="195" y="346" type="curve"/>
      <point x="168" y="346"/>
      <point x="195" y="346"/>
      <point x="168" y="346" type="curve"/>
      <point x="168" y="231"/>
      <point x="168" y="115"/>
      <point x="168" y="0" type="curve"/>
      <point x="195" y="0"/>
      <point x="168" y="0"/>
    </contour>
    <contour>
      <point x="184" y="825" type="move" name="top"/>
    </contour>
  </outline>
</glyph>
<glyph name="bracketleft" format="1">
  <advance width="223"/>
  <unicode hex="005B"/>
  <outline>
    <contour>
      <point x="196" y="771" type="curve"/>
      <point x="166" y="771"/>
      <point x="135" y="771"/>
      <point x="104" y="771" type="curve"/>
      <point x="101" y="771"/>
      <point x="98" y="771"/>
      <point x="96" y="771" type="curve"/>
      <point x="96" y="769"/>
      <point x="96" y="767"/>
      <point x="96" y="764" type="curve"/>
      <point x="96" y="470"/>
      <point x="96" y="175"/>
      <point x="96" y="-119" type="curve"/>
      <point x="96" y="-121"/>
      <point x="96" y="-123"/>
      <point x="96" y="-124" type="curve"/>
      <point x="98" y="-124"/>
      <point x="102" y="-124"/>
      <point x="103" y="-124" type="curve"/>
      <point x="134" y="-124"/>
      <point x="165" y="-124"/>
      <point x="196" y="-124" type="curve"/>
      <point x="196" y="-99"/>
      <point x="196" y="-124"/>
      <point x="196" y="-99" type="curve"/>
      <point x="165" y="-99"/>
      <point x="134" y="-99"/>
      <point x="103" y="-99" type="curve"/>
      <point x="121" y="-99"/>
      <point x="103" y="-99"/>
      <point x="121" y="-99" type="curve"/>
      <point x="121" y="-119"/>
      <point x="121" y="-99"/>
      <point x="121" y="-119" type="curve"/>
      <point x="121" y="175"/>
      <point x="121" y="470"/>
      <point x="121" y="764" type="curve"/>
      <point x="121" y="746"/>
      <point x="121" y="764"/>
      <point x="121" y="746" type="curve"/>
      <point x="104" y="746"/>
      <point x="121" y="746"/>
      <point x="104" y="746" type="curve"/>
      <point x="135" y="746"/>
      <point x="166" y="746"/>
      <point x="196" y="746" type="curve"/>
      <point x="196" y="771"/>
      <point x="196" y="746"/>
    </contour>
  </outline>
</glyph>
<glyph name="backslash" format="1">
  <advance width="329"/>
  <unicode hex="005C"/>
  <outline>
    <contour>
      <point x="296" y="-68" type="curve"/>
      <point x="218" y="236"/>
      <point x="138" y="540"/>
      <point x="60" y="844" type="curve"/>
      <point x="33" y="844"/>
      <point x="60" y="844"/>
      <point x="33" y="844" type="curve"/>
      <point x="112" y="540"/>
      <point x="191" y="236"/>
      <point x="270" y="-68" type="curve"/>
      <point x="296" y="-68"/>
      <point x="270" y="-68"/>
    </contour>
  </outline>
</glyph>
<glyph name="bracketright" format="1">
  <advance width="224"/>
  <unicode hex="005D"/>
  <outline>
    <contour>
      <point x="27" y="746" type="curve"/>
      <point x="58" y="746"/>
      <point x="89" y="746"/>
      <point x="121" y="746" type="curve"/>
      <point x="117" y="749"/>
      <point x="113" y="751"/>
      <point x="111" y="755" type="curve"/>
      <point x="108" y="758"/>
      <point x="105" y="761"/>
      <point x="104" y="764" type="curve"/>
      <point x="104" y="470"/>
      <point x="102" y="175"/>
      <point x="104" y="-119" type="curve"/>
      <point x="105" y="-115"/>
      <point x="109" y="-112"/>
      <point x="112" y="-108" type="curve"/>
      <point x="114" y="-105"/>
      <point x="118" y="-103"/>
      <point x="120" y="-99" type="curve"/>
      <point x="89" y="-99"/>
      <point x="58" y="-99"/>
      <point x="27" y="-99" type="curve"/>
      <point x="27" y="-124"/>
      <point x="27" y="-99"/>
      <point x="27" y="-124" type="curve"/>
      <point x="58" y="-124"/>
      <point x="89" y="-124"/>
      <point x="120" y="-124" type="curve"/>
      <point x="129" y="-124"/>
      <point x="120" y="-124"/>
      <point x="129" y="-124" type="curve"/>
      <point x="129" y="-119"/>
      <point x="129" y="-124"/>
      <point x="129" y="-119" type="curve"/>
      <point x="129" y="175"/>
      <point x="129" y="470"/>
      <point x="129" y="764" type="curve"/>
      <point x="129" y="771"/>
      <point x="129" y="764"/>
      <point x="129" y="771" type="curve"/>
      <point x="121" y="771"/>
      <point x="129" y="771"/>
      <point x="121" y="771" type="curve"/>
      <point x="89" y="771"/>
      <point x="58" y="771"/>
      <point x="27" y="771" type="curve"/>
      <point x="27" y="746"/>
      <point x="27" y="771"/>
    </contour>
  </outline>
</glyph>
<glyph name="asciicircum" format="1">
  <advance width="360"/>
  <unicode hex="005E"/>
  <outline>
    <contour>
      <point x="87" y="466" type="curve"/>
      <point x="122" y="581"/>
      <point x="157" y="695"/>
      <point x="192" y="809" type="curve"/>
      <point x="167" y="809"/>
      <point x="192" y="809"/>
      <point x="167" y="809" type="curve"/>
      <point x="131" y="695"/>
      <point x="97" y="581"/>
      <point x="62" y="466" type="curve"/>
      <point x="87" y="466"/>
      <point x="61" y="466"/>
    </contour>
    <contour>
      <point x="299" y="466" type="curve"/>
      <point x="264" y="577"/>
      <point x="226" y="699"/>
      <point x="192" y="809" type="curve"/>
      <point x="166" y="809"/>
      <point x="192" y="809"/>
      <point x="167" y="809" type="curve"/>
      <point x="201" y="699"/>
      <point x="239" y="577"/>
      <point x="274" y="466" type="curve"/>
      <point x="299" y="466"/>
      <point x="273" y="466"/>
    </contour>
  </outline>
</glyph>
<glyph name="grave" format="1">
  <advance width="220"/>
  <unicode hex="0060"/>
  <outline>
    <contour>
      <point x="213" y="590" type="line"/>
      <point x="165" y="756" type="line"/>
      <point x="134" y="756" type="line"/>
      <point x="188" y="590" type="line"/>
    </contour>
    <contour>
      <point x="199" y="590" type="move" name="_top"/>
    </contour>
  </outline>
</glyph>
<glyph name="a" format="1">
  <advance width="403"/>
  <unicode hex="0061"/>
  <outline>
    <contour>
      <point x="300" y="0" type="curve"/>
      <point x="300" y="130"/>
      <point x="300" y="260"/>
      <point x="300" y="390" type="curve"/>
      <point x="300" y="481"/>
      <point x="273" y="538"/>
      <point x="195" y="538" type="curve"/>
      <point x="136" y="538"/>
      <point x="100" y="500"/>
      <point x="76" y="464" type="curve"/>
      <point x="94" y="446"/>
      <point x="76" y="464"/>
      <point x="94" y="446" type="curve"/>
      <point x="109" y="473"/>
      <point x="144" y="515"/>
      <point x="192" y="515" type="curve"/>
      <point x="257" y="515"/>
      <point x="275" y="463"/>
      <point x="275" y="383" type="curve"/>
      <point x="275" y="255"/>
      <point x="275" y="128"/>
      <point x="275" y="0" type="curve"/>
      <point x="300" y="0"/>
      <point x="275" y="0"/>
    </contour>
    <contour>
      <point x="285" y="321" type="curve"/>
      <point x="238" y="310"/>
      <point x="217" y="306"/>
      <point x="169" y="295" type="curve"/>
      <point x="98" y="278"/>
      <point x="62" y="222"/>
      <point x="62" y="141" type="curve"/>
      <point x="62" y="59"/>
      <point x="80" y="-5"/>
      <point x="156" y="-5" type="curve"/>
      <point x="243" y="-5"/>
      <point x="275" y="74"/>
      <point x="298" y="151" type="curve"/>
      <point x="282" y="166"/>
      <point x="297" y="151"/>
      <point x="282" y="165" type="curve"/>
      <point x="266" y="94"/>
      <point x="229" y="18"/>
      <point x="161" y="18" type="curve"/>
      <point x="97" y="18"/>
      <point x="87" y="73"/>
      <point x="87" y="143" type="curve"/>
      <point x="87" y="210"/>
      <point x="114" y="260"/>
      <point x="168" y="274" type="curve"/>
      <point x="218" y="285"/>
      <point x="238" y="290"/>
      <point x="288" y="301" type="curve"/>
      <point x="285" y="321"/>
      <point x="288" y="301"/>
    </contour>
    <contour>
      <point x="193" y="670" type="move" name="top"/>
    </contour>
    <contour>
      <point x="300" y="0" type="move" name="bottom"/>
    </contour>
  </outline>
</glyph>
<glyph name="b" format="1">
  <advance width="457"/>
  <unicode hex="0062"/>
  <outline>
    <contour>
      <point x="128" y="404" type="curve"/>
      <point x="137" y="449"/>
      <point x="181" y="515"/>
      <point x="244" y="515" type="curve"/>
      <point x="343" y="515"/>
      <point x="365" y="395"/>
      <point x="365" y="270" type="curve"/>
      <point x="365" y="149"/>
      <point x="335" y="18"/>
      <point x="244" y="18" type="curve"/>
      <point x="191" y="18"/>
      <point x="146" y="75"/>
      <point x="129" y="140" type="curve"/>
      <point x="112" y="126"/>
      <point x="133" y="134"/>
      <point x="115" y="120" type="curve"/>
      <point x="135" y="53"/>
      <point x="179" y="-5"/>
      <point x="244" y="-5" type="curve"/>
      <point x="363" y="-5"/>
      <point x="390" y="126"/>
      <point x="390" y="271" type="curve"/>
      <point x="390" y="409"/>
      <point x="366" y="538"/>
      <point x="243" y="538" type="curve"/>
      <point x="171" y="538"/>
      <point x="125" y="478"/>
      <point x="116" y="429" type="curve"/>
      <point x="129" y="412"/>
      <point x="116" y="422"/>
    </contour>
    <contour>
      <point x="134" y="0" type="curve"/>
      <point x="134" y="267"/>
      <point x="134" y="533"/>
      <point x="134" y="800" type="curve"/>
      <point x="108" y="800"/>
      <point x="134" y="800"/>
      <point x="108" y="800" type="curve"/>
      <point x="108" y="533"/>
      <point x="108" y="267"/>
      <point x="108" y="0" type="curve"/>
      <point x="134" y="0"/>
      <point x="108" y="0"/>
    </contour>
  </outline>
</glyph>
<glyph name="c" format="1">
  <advance width="367"/>
  <unicode hex="0063"/>
  <outline>
    <contour>
      <point x="315" y="473" type="curve"/>
      <point x="291" y="506"/>
      <point x="256" y="538"/>
      <point x="215" y="538" type="curve"/>
      <point x="88" y="538"/>
      <point x="67" y="418"/>
      <point x="67" y="267" type="curve"/>
      <point x="67" y="116"/>
      <point x="87" y="-5"/>
      <point x="213" y="-5" type="curve"/>
      <point x="262" y="-5"/>
      <point x="300" y="36"/>
      <point x="322" y="89" type="curve"/>
      <point x="303" y="100"/>
      <point x="322" y="89"/>
      <point x="303" y="100" type="curve"/>
      <point x="289" y="66"/>
      <point x="256" y="18"/>
      <point x="214" y="18" type="curve"/>
      <point x="104" y="18"/>
      <point x="92" y="133"/>
      <point x="92" y="267" type="curve"/>
      <point x="92" y="401"/>
      <point x="109" y="515"/>
      <point x="214" y="515" type="curve"/>
      <point x="249" y="515"/>
      <point x="280" y="485"/>
      <point x="300" y="457" type="curve"/>
      <point x="315" y="473"/>
      <point x="300" y="457"/>
    </contour>
    <contour>
      <point x="212" y="670" type="move" name="top"/>
    </contour>
    <contour>
      <point x="212" y="-5" type="move" name="bottom"/>
    </contour>
  </outline>
</glyph>
<glyph name="d" format="1">
  <advance width="457"/>
  <unicode hex="0064"/>
  <outline>
    <contour>
      <point x="342" y="437" type="curve"/>
      <point x="330" y="493"/>
      <point x="280" y="538"/>
      <point x="218" y="538" type="curve"/>
      <point x="97" y="538"/>
      <point x="66" y="405"/>
      <point x="66" y="264" type="curve"/>
      <point x="66" y="125"/>
      <point x="100" y="-5"/>
      <point x="219" y="-5" type="curve"/>
      <point x="287" y="-5"/>
      <point x="326" y="54"/>
      <point x="342" y="130" type="curve"/>
      <point x="327" y="146"/>
      <point x="342" y="130"/>
      <point x="327" y="146" type="curve"/>
      <point x="311" y="74"/>
      <point x="273" y="18"/>
      <point x="219" y="18" type="curve"/>
      <point x="117" y="18"/>
      <point x="91" y="139"/>
      <point x="91" y="265" type="curve"/>
      <point x="91" y="392"/>
      <point x="116" y="515"/>
      <point x="219" y="515" type="curve"/>
      <point x="267" y="515"/>
      <point x="314" y="474"/>
      <point x="327" y="420" type="curve"/>
      <point x="342" y="437"/>
      <point x="327" y="420"/>
    </contour>
    <contour>
      <point x="348" y="0" type="curve"/>
      <point x="348" y="267"/>
      <point x="348" y="533"/>
      <point x="348" y="800" type="curve"/>
      <point x="322" y="800"/>
      <point x="348" y="800"/>
      <point x="322" y="800" type="curve"/>
      <point x="322" y="533"/>
      <point x="322" y="267"/>
      <point x="322" y="0" type="curve"/>
      <point x="348" y="0"/>
      <point x="322" y="0"/>
    </contour>
  </outline>
</glyph>
<glyph name="f" format="1">
  <advance width="269"/>
  <unicode hex="0066"/>
  <outline>
    <contour>
      <point x="22" y="510" type="curve"/>
      <point x="244" y="510" type="line"/>
      <point x="244" y="533"/>
      <point x="244" y="510"/>
      <point x="244" y="533" type="curve"/>
      <point x="22" y="533" type="line"/>
      <point x="22" y="510"/>
      <point x="22" y="533"/>
    </contour>
    <contour>
      <point x="147" y="0" type="curve"/>
      <point x="147" y="640" type="line"/>
      <point x="147" y="715"/>
      <point x="159" y="783"/>
      <point x="217" y="783" type="curve"/>
      <point x="239" y="783"/>
      <point x="257" y="774"/>
      <point x="274" y="760" type="curve"/>
      <point x="283" y="778"/>
      <point x="274" y="760"/>
      <point x="283" y="778" type="curve"/>
      <point x="265" y="794"/>
      <point x="241" y="805"/>
      <point x="217" y="805" type="curve"/>
      <point x="143" y="805"/>
      <point x="120" y="726"/>
      <point x="122" y="640" type="curve"/>
      <point x="122" y="0" type="line"/>
      <point x="147" y="0"/>
      <point x="122" y="0"/>
    </contour>
  </outline>
</glyph>
<glyph name="g" format="1">
  <advance width="326"/>
  <unicode hex="0067"/>
  <outline>
    <contour>
      <point x="225" y="499" type="curve"/>
      <point x="316" y="581" type="line"/>
      <point x="301" y="602"/>
      <point x="318" y="579"/>
      <point x="302" y="600" type="curve"/>
      <point x="212" y="517" type="line"/>
      <point x="225" y="499"/>
      <point x="212" y="517"/>
    </contour>
    <contour>
      <point x="67" y="358" type="curve"/>
      <point x="67" y="438"/>
      <point x="91" y="516"/>
      <point x="160" y="516" type="curve"/>
      <point x="230" y="516"/>
      <point x="251" y="442"/>
      <point x="251" y="361" type="curve"/>
      <point x="251" y="285"/>
      <point x="228" y="210"/>
      <point x="160" y="210" type="curve"/>
      <point x="93" y="210"/>
      <point x="67" y="281"/>
      <point x="67" y="358" type="curve"/>
      <point x="42" y="357"/>
      <point x="67" y="358"/>
      <point x="42" y="357" type="curve"/>
      <point x="42" y="266"/>
      <point x="77" y="189"/>
      <point x="158" y="189" type="curve"/>
      <point x="240" y="189"/>
      <point x="276" y="268"/>
      <point x="276" y="362" type="curve"/>
      <point x="276" y="455"/>
      <point x="243" y="538"/>
      <point x="160" y="538" type="curve"/>
      <point x="75" y="538"/>
      <point x="42" y="453"/>
      <point x="42" y="357" type="curve"/>
      <point x="67" y="358"/>
      <point x="42" y="357"/>
    </contour>
    <contour>
      <point x="90" y="228" type="curve"/>
      <point x="58" y="195"/>
      <point x="44" y="157"/>
      <point x="44" y="109" type="curve"/>
      <point x="44" y="43"/>
      <point x="88" y="-4"/>
      <point x="155" y="-13" type="curve"/>
      <point x="231" y="-23"/>
      <point x="286" y="-70"/>
      <point x="286" y="-144" type="curve"/>
      <point x="286" y="-222"/>
      <point x="236" y="-282"/>
      <point x="158" y="-282" type="curve"/>
      <point x="82" y="-282"/>
      <point x="40" y="-215"/>
      <point x="40" y="-134" type="curve"/>
      <point x="40" y="-73"/>
      <point x="55" y="-22"/>
      <point x="105" y="11" type="curve"/>
      <point x="94" y="27"/>
      <point x="105" y="11"/>
      <point x="94" y="27" type="curve"/>
      <point x="37" y="-12"/>
      <point x="15" y="-66"/>
      <point x="15" y="-135" type="curve"/>
      <point x="15" y="-228"/>
      <point x="67" y="-304"/>
      <point x="157" y="-304" type="curve"/>
      <point x="248" y="-304"/>
      <point x="310" y="-235"/>
      <point x="309" y="-142" type="curve"/>
      <point x="309" y="-58"/>
      <point x="246" y="-4"/>
      <point x="160" y="9" type="curve"/>
      <point x="104" y="15"/>
      <point x="70" y="57"/>
      <point x="70" y="112" type="curve"/>
      <point x="70" y="152"/>
      <point x="75" y="186"/>
      <point x="105" y="214" type="curve"/>
      <point x="90" y="228"/>
      <point x="105" y="214"/>
    </contour>
    <contour>
      <point x="159" y="670" type="move" name="top"/>
    </contour>
  </outline>
</glyph>
<glyph name="h" format="1">
  <advance width="459"/>
  <unicode hex="0068"/>
  <outline>
    <contour>
      <point x="127" y="352" type="curve"/>
      <point x="135" y="422"/>
      <point x="178" y="515"/>
      <point x="248" y="515" type="curve"/>
      <point x="326" y="515"/>
      <point x="334" y="434"/>
      <point x="334" y="341" type="curve"/>
      <point x="334" y="228"/>
      <point x="334" y="114"/>
      <point x="334" y="0" type="curve"/>
      <point x="359" y="0"/>
      <point x="334" y="0"/>
      <point x="359" y="0" type="curve"/>
      <point x="359" y="115"/>
      <point x="359" y="229"/>
      <point x="359" y="344" type="curve"/>
      <point x="359" y="450"/>
      <point x="342" y="538"/>
      <point x="251" y="538" type="curve"/>
      <point x="172" y="538"/>
      <point x="121" y="448"/>
      <point x="115" y="371" type="curve"/>
      <point x="131" y="356"/>
      <point x="112" y="367"/>
    </contour>
    <contour>
      <point x="134" y="0" type="curve"/>
      <point x="134" y="267"/>
      <point x="134" y="533"/>
      <point x="134" y="800" type="curve"/>
      <point x="108" y="800"/>
      <point x="134" y="800"/>
      <point x="108" y="800" type="curve"/>
      <point x="108" y="533"/>
      <point x="108" y="267"/>
      <point x="108" y="0" type="curve"/>
      <point x="134" y="0"/>
      <point x="108" y="0"/>
    </contour>
  </outline>
</glyph>
<glyph name="i" format="1">
  <advance width="252"/>
  <unicode hex="0069"/>
  <outline>
    <contour>
      <point x="140" y="0" type="curve"/>
      <point x="140" y="178"/>
      <point x="140" y="355"/>
      <point x="140" y="533" type="curve"/>
      <point x="112" y="533"/>
      <point x="140" y="533"/>
      <point x="112" y="533" type="curve"/>
      <point x="112" y="355"/>
      <point x="112" y="178"/>
      <point x="112" y="0" type="curve"/>
      <point x="140" y="0"/>
      <point x="112" y="0"/>
    </contour>
    <contour>
      <point x="144" y="687" type="curve"/>
      <point x="144" y="699"/>
      <point x="136" y="706"/>
      <point x="124" y="706" type="curve"/>
      <point x="111" y="706"/>
      <point x="105" y="698"/>
      <point x="105" y="687" type="curve"/>
      <point x="148" y="687"/>
      <point x="102" y="687"/>
      <point x="144" y="687" type="curve"/>
      <point x="144" y="675"/>
      <point x="136" y="669"/>
      <point x="124" y="669" type="curve"/>
      <point x="111" y="669"/>
      <point x="105" y="675"/>
      <point x="105" y="687" type="curve"/>
      <point x="148" y="687"/>
      <point x="102" y="687"/>
    </contour>
    <contour>
      <point x="125" y="671" type="move" name="top"/>
    </contour>
    <contour>
      <point x="139" y="0" type="move" name="bottom"/>
    </contour>
  </outline>
</glyph>
<glyph name="j" format="1">
  <advance width="204"/>
  <unicode hex="006A"/>
  <outline>
    <contour>
      <point x="1" y="-301" type="curve"/>
      <point x="7" y="-302"/>
      <point x="14" y="-304"/>
      <point x="21" y="-304" type="curve"/>
      <point x="92" y="-304"/>
      <point x="122" y="-223"/>
      <point x="122" y="-142" type="curve"/>
      <point x="122" y="83"/>
      <point x="122" y="308"/>
      <point x="122" y="533" type="curve"/>
      <point x="97" y="533"/>
      <point x="122" y="533"/>
      <point x="97" y="533" type="curve"/>
      <point x="97" y="308"/>
      <point x="97" y="83"/>
      <point x="97" y="-142" type="curve"/>
      <point x="97" y="-202"/>
      <point x="75" y="-277"/>
      <point x="22" y="-277" type="curve"/>
      <point x="17" y="-277"/>
      <point x="10" y="-276"/>
      <point x="7" y="-275" type="curve"/>
      <point x="2" y="-296"/>
      <point x="5" y="-279"/>
    </contour>
    <contour>
      <point x="131" y="688" type="curve"/>
      <point x="131" y="701"/>
      <point x="122" y="708"/>
      <point x="110" y="708" type="curve"/>
      <point x="98" y="708"/>
      <point x="92" y="699"/>
      <point x="92" y="688" type="curve"/>
      <point x="135" y="688"/>
      <point x="88" y="688"/>
      <point x="131" y="688" type="curve"/>
      <point x="131" y="676"/>
      <point x="122" y="670"/>
      <point x="110" y="670" type="curve"/>
      <point x="98" y="670"/>
      <point x="92" y="676"/>
      <point x="92" y="688" type="curve"/>
      <point x="135" y="688"/>
      <point x="88" y="688"/>
    </contour>
  </outline>
</glyph>
<glyph name="k" format="1">
  <advance width="369"/>
  <unicode hex="006B"/>
  <outline>
    <contour>
      <point x="134" y="0" type="curve"/>
      <point x="134" y="800" type="line"/>
      <point x="108" y="800"/>
      <point x="134" y="800"/>
      <point x="108" y="800" type="curve"/>
      <point x="108" y="533"/>
      <point x="108" y="267"/>
      <point x="108" y="0" type="curve"/>
      <point x="134" y="0"/>
      <point x="108" y="0"/>
    </contour>
    <contour>
      <point x="287" y="533" type="curve"/>
      <point x="119" y="275" type="line"/>
      <point x="155" y="275"/>
      <point x="115" y="275"/>
      <point x="151" y="275" type="curve"/>
      <point x="320" y="533" type="line"/>
      <point x="283" y="533"/>
      <point x="324" y="533"/>
    </contour>
    <contour>
      <point x="336" y="0" type="curve"/>
      <point x="151" y="275" type="line"/>
      <point x="115" y="275"/>
      <point x="155" y="275"/>
      <point x="119" y="275" type="curve"/>
      <point x="303" y="0" type="line"/>
      <point x="339" y="0"/>
      <point x="300" y="0"/>
    </contour>
    <contour>
      <point x="257" y="-92" type="move" name="bottom"/>
    </contour>
  </outline>
</glyph>
<glyph name="m" format="1">
  <advance width="636"/>
  <unicode hex="006D"/>
  <outline>
    <contour>
      <point x="328" y="353" type="curve"/>
      <point x="346" y="430"/>
      <point x="373" y="516"/>
      <point x="436" y="516" type="curve"/>
      <point x="517" y="516"/>
      <point x="509" y="439"/>
      <point x="509" y="341" type="curve"/>
      <point x="509" y="228"/>
      <point x="509" y="114"/>
      <point x="509" y="0" type="curve"/>
      <point x="534" y="0"/>
      <point x="509" y="0"/>
      <point x="534" y="0" type="curve"/>
      <point x="534" y="115"/>
      <point x="534" y="229"/>
      <point x="534" y="344" type="curve"/>
      <point x="534" y="455"/>
      <point x="534" y="538"/>
      <point x="440" y="538" type="curve"/>
      <point x="358" y="538"/>
      <point x="329" y="451"/>
      <point x="316" y="365" type="curve"/>
      <point x="328" y="353"/>
      <point x="316" y="365"/>
    </contour>
    <contour>
      <point x="128" y="353" type="curve"/>
      <point x="141" y="426"/>
      <point x="169" y="517"/>
      <point x="235" y="517" type="curve"/>
      <point x="316" y="517"/>
      <point x="309" y="439"/>
      <point x="309" y="341" type="curve"/>
      <point x="309" y="228"/>
      <point x="309" y="114"/>
      <point x="309" y="0" type="curve"/>
      <point x="335" y="0"/>
      <point x="309" y="0"/>
      <point x="335" y="0" type="curve"/>
      <point x="335" y="115"/>
      <point x="335" y="229"/>
      <point x="335" y="344" type="curve"/>
      <point x="335" y="455"/>
      <point x="334" y="539"/>
      <point x="240" y="539" type="curve"/>
      <point x="155" y="539"/>
      <point x="129" y="452"/>
      <point x="116" y="365" type="curve"/>
      <point x="128" y="353"/>
      <point x="116" y="365"/>
    </contour>
    <contour>
      <point x="134" y="0" type="curve"/>
      <point x="134" y="178"/>
      <point x="134" y="355"/>
      <point x="134" y="533" type="curve"/>
      <point x="108" y="533"/>
      <point x="134" y="533"/>
      <point x="108" y="533" type="curve"/>
      <point x="108" y="355"/>
      <point x="108" y="178"/>
      <point x="108" y="0" type="curve"/>
      <point x="134" y="0"/>
      <point x="108" y="0"/>
    </contour>
  </outline>
</glyph>
<glyph name="n" format="1">
  <advance width="458"/>
  <unicode hex="006E"/>
  <outline>
    <contour>
      <point x="127" y="337" type="curve"/>
      <point x="129" y="432"/>
      <point x="184" y="515"/>
      <point x="247" y="515" type="curve"/>
      <point x="322" y="515"/>
      <point x="332" y="434"/>
      <point x="332" y="341" type="curve"/>
      <point x="332" y="228"/>
      <point x="332" y="114"/>
      <point x="332" y="0" type="curve"/>
      <point x="358" y="0"/>
      <point x="332" y="0"/>
      <point x="357" y="0" type="curve"/>
      <point x="357" y="115"/>
      <point x="357" y="229"/>
      <point x="357" y="344" type="curve"/>
      <point x="357" y="449"/>
      <point x="342" y="538"/>
      <point x="251" y="538" type="curve"/>
      <point x="173" y="538"/>
      <point x="115" y="459"/>
      <point x="115" y="356" type="curve"/>
      <point x="128" y="342"/>
      <point x="113" y="351"/>
    </contour>
    <contour>
      <point x="134" y="0" type="curve"/>
      <point x="134" y="178"/>
      <point x="134" y="355"/>
      <point x="134" y="533" type="curve"/>
      <point x="108" y="533"/>
      <point x="134" y="533"/>
      <point x="108" y="533" type="curve"/>
      <point x="108" y="355"/>
      <point x="108" y="178"/>
      <point x="108" y="0" type="curve"/>
      <point x="134" y="0"/>
      <point x="108" y="0"/>
    </contour>
    <contour>
      <point x="248" y="671" type="move" name="top"/>
    </contour>
    <contour>
      <point x="242" y="-91" type="move" name="bottom"/>
    </contour>
  </outline>
</glyph>
<glyph name="o" format="1">
  <advance width="419"/>
  <unicode hex="006F"/>
  <outline>
    <contour>
      <point x="92" y="268" type="curve"/>
      <point x="92" y="402"/>
      <point x="105" y="516"/>
      <point x="208" y="516" type="curve"/>
      <point x="315" y="516"/>
      <point x="327" y="400"/>
      <point x="327" y="266" type="curve"/>
      <point x="327" y="133"/>
      <point x="314" y="18"/>
      <point x="211" y="18" type="curve"/>
      <point x="98" y="18"/>
      <point x="92" y="135"/>
      <point x="92" y="268" type="curve"/>
      <point x="68" y="268"/>
      <point x="90" y="268"/>
      <point x="67" y="268" type="curve"/>
      <point x="67" y="121"/>
      <point x="85" y="-5"/>
      <point x="209" y="-5" type="curve"/>
      <point x="333" y="-5"/>
      <point x="352" y="119"/>
      <point x="352" y="266" type="curve"/>
      <point x="352" y="413"/>
      <point x="333" y="538"/>
      <point x="209" y="538" type="curve"/>
      <point x="86" y="538"/>
      <point x="67" y="414"/>
      <point x="67" y="268" type="curve"/>
      <point x="90" y="268"/>
      <point x="68" y="268"/>
    </contour>
    <contour>
      <point x="207" y="670" type="move" name="top"/>
    </contour>
  </outline>
</glyph>
<glyph name="p" format="1">
  <advance width="463"/>
  <unicode hex="0070"/>
  <outline>
    <contour>
      <point x="128" y="401" type="curve"/>
      <point x="139" y="449"/>
      <point x="187" y="516"/>
      <point x="249" y="516" type="curve"/>
      <point x="354" y="516"/>
      <point x="372" y="400"/>
      <point x="372" y="276" type="curve"/>
      <point x="374" y="143"/>
      <point x="352" y="18"/>
      <point x="247" y="18" type="curve"/>
      <point x="187" y="18"/>
      <point x="152" y="66"/>
      <point x="130" y="122" type="curve"/>
      <point x="113" y="110"/>
      <point x="130" y="122"/>
      <point x="113" y="110" type="curve"/>
      <point x="138" y="43"/>
      <point x="179" y="-5"/>
      <point x="248" y="-5" type="curve"/>
      <point x="379" y="-5"/>
      <point x="397" y="131"/>
      <point x="398" y="278" type="curve"/>
      <point x="398" y="413"/>
      <point x="373" y="538"/>
      <point x="250" y="538" type="curve"/>
      <point x="176" y="538"/>
      <point x="130" y="476"/>
      <point x="115" y="426" type="curve"/>
      <point x="132" y="405"/>
      <point x="111" y="423"/>
    </contour>
    <contour>
      <point x="134" y="-300" type="curve"/>
      <point x="134" y="-22"/>
      <point x="134" y="255"/>
      <point x="134" y="533" type="curve"/>
      <point x="108" y="533"/>
      <point x="134" y="533"/>
      <point x="108" y="533" type="curve"/>
      <point x="108" y="255"/>
      <point x="108" y="-22"/>
      <point x="108" y="-300" type="curve"/>
      <point x="134" y="-300"/>
      <point x="108" y="-300"/>
    </contour>
  </outline>
</glyph>
<glyph name="q" format="1">
  <advance width="461"/>
  <unicode hex="0071"/>
  <outline>
    <contour>
      <point x="345" y="432" type="curve"/>
      <point x="324" y="503"/>
      <point x="268" y="538"/>
      <point x="212" y="538" type="curve"/>
      <point x="88" y="538"/>
      <point x="67" y="405"/>
      <point x="67" y="264" type="curve"/>
      <point x="68" y="124"/>
      <point x="93" y="-6"/>
      <point x="216" y="-6" type="curve"/>
      <point x="280" y="-6"/>
      <point x="330" y="56"/>
      <point x="346" y="121" type="curve"/>
      <point x="332" y="134"/>
      <point x="346" y="126"/>
      <point x="332" y="139" type="curve"/>
      <point x="318" y="78"/>
      <point x="272" y="17"/>
      <point x="217" y="17" type="curve"/>
      <point x="111" y="17"/>
      <point x="93" y="139"/>
      <point x="93" y="265" type="curve"/>
      <point x="93" y="392"/>
      <point x="109" y="515"/>
      <point x="214" y="515" type="curve"/>
      <point x="264" y="515"/>
      <point x="314" y="478"/>
      <point x="334" y="411" type="curve"/>
      <point x="346" y="426"/>
      <point x="333" y="418"/>
    </contour>
    <contour>
      <point x="352" y="-300" type="curve"/>
      <point x="352" y="-22"/>
      <point x="352" y="255"/>
      <point x="352" y="533" type="curve"/>
      <point x="326" y="533"/>
      <point x="352" y="533"/>
      <point x="326" y="533" type="curve"/>
      <point x="326" y="255"/>
      <point x="326" y="-22"/>
      <point x="326" y="-300" type="curve"/>
      <point x="352" y="-300"/>
      <point x="326" y="-300"/>
    </contour>
  </outline>
</glyph>
<glyph name="r" format="1">
  <advance width="285"/>
  <unicode hex="0072"/>
  <outline>
    <contour>
      <point x="134" y="0" type="curve"/>
      <point x="134" y="178"/>
      <point x="134" y="355"/>
      <point x="134" y="533" type="curve"/>
      <point x="108" y="533"/>
      <point x="134" y="533"/>
      <point x="108" y="533" type="curve"/>
      <point x="108" y="355"/>
      <point x="108" y="178"/>
      <point x="108" y="0" type="curve"/>
      <point x="134" y="0"/>
      <point x="108" y="0"/>
    </contour>
    <contour>
      <point x="127" y="373" type="curve"/>
      <point x="135" y="452"/>
      <point x="201" y="515"/>
      <point x="272" y="515" type="curve"/>
      <point x="272" y="544"/>
      <point x="272" y="509"/>
      <point x="272" y="538" type="curve"/>
      <point x="194" y="538"/>
      <point x="130" y="481"/>
      <point x="114" y="396" type="curve"/>
      <point x="128" y="384"/>
      <point x="120" y="382"/>
    </contour>
    <contour>
      <point x="123" y="670" type="move" name="top"/>
    </contour>
    <contour>
      <point x="116" y="-92" type="move" name="bottom"/>
    </contour>
  </outline>
</glyph>
<glyph name="t" format="1">
  <advance width="254"/>
  <unicode hex="0074"/>
  <outline>
    <contour>
      <point x="12" y="510" type="curve"/>
      <point x="248" y="510" type="line"/>
      <point x="248" y="533"/>
      <point x="248" y="510"/>
      <point x="248" y="533" type="curve"/>
      <point x="12" y="533" type="line"/>
      <point x="12" y="510"/>
      <point x="12" y="533"/>
    </contour>
    <contour>
      <point x="231" y="46" type="curve"/>
      <point x="214" y="31"/>
      <point x="199" y="20"/>
      <point x="175" y="20" type="curve"/>
      <point x="124" y="20"/>
      <point x="118" y="75"/>
      <point x="118" y="145" type="curve"/>
      <point x="118" y="682" type="line"/>
      <point x="120" y="683"/>
      <point x="91" y="655"/>
      <point x="93" y="656" type="curve"/>
      <point x="93" y="143" type="line"/>
      <point x="93" y="58"/>
      <point x="103" y="-5"/>
      <point x="173" y="-5" type="curve"/>
      <point x="202" y="-5"/>
      <point x="222" y="4"/>
      <point x="244" y="23" type="curve"/>
      <point x="231" y="46"/>
      <point x="244" y="23"/>
    </contour>
    <contour>
      <point x="168" y="-91" type="move" name="bottom"/>
    </contour>
  </outline>
</glyph>
<glyph name="v" format="1">
  <advance width="348"/>
  <unicode hex="0076"/>
  <outline>
    <contour>
      <point x="34" y="533" type="curve"/>
      <point x="76" y="355"/>
      <point x="118" y="178"/>
      <point x="160" y="0" type="curve"/>
      <point x="185" y="0"/>
      <point x="160" y="0"/>
      <point x="185" y="0" type="curve"/>
      <point x="143" y="178"/>
      <point x="102" y="355"/>
      <point x="62" y="533" type="curve"/>
      <point x="34" y="533"/>
      <point x="62" y="533"/>
    </contour>
    <contour>
      <point x="293" y="533" type="curve"/>
      <point x="163" y="0" type="line"/>
      <point x="189" y="0"/>
      <point x="163" y="0"/>
      <point x="189" y="0" type="curve"/>
      <point x="233" y="178"/>
      <point x="277" y="355"/>
      <point x="321" y="533" type="curve"/>
      <point x="293" y="533"/>
      <point x="321" y="533"/>
    </contour>
  </outline>
</glyph>
<glyph name="w" format="1">
  <advance width="553"/>
  <unicode hex="0077"/>
  <outline>
    <contour>
      <point x="171" y="0" type="curve"/>
      <point x="212" y="178"/>
      <point x="253" y="355"/>
      <point x="294" y="533" type="curve"/>
      <point x="267" y="533"/>
      <point x="294" y="533"/>
      <point x="267" y="533" type="curve"/>
      <point x="227" y="355"/>
      <point x="187" y="178"/>
      <point x="147" y="0" type="curve"/>
      <point x="171" y="0"/>
      <point x="147" y="0"/>
    </contour>
    <contour>
      <point x="494" y="533" type="curve"/>
      <point x="457" y="355"/>
      <point x="419" y="178"/>
      <point x="382" y="0" type="curve"/>
      <point x="406" y="0"/>
      <point x="382" y="0"/>
      <point x="406" y="0" type="curve"/>
      <point x="445" y="178"/>
      <point x="483" y="355"/>
      <point x="522" y="533" type="curve"/>
      <point x="494" y="533"/>
      <point x="522" y="533"/>
    </contour>
    <contour>
      <point x="271" y="533" type="curve"/>
      <point x="308" y="355"/>
      <point x="344" y="178"/>
      <point x="381" y="0" type="curve"/>
      <point x="405" y="0"/>
      <point x="381" y="0"/>
      <point x="405" y="0" type="curve"/>
      <point x="369" y="178"/>
      <point x="333" y="355"/>
      <point x="297" y="533" type="curve"/>
      <point x="271" y="533"/>
      <point x="297" y="533"/>
    </contour>
    <contour>
      <point x="36" y="533" type="curve"/>
      <point x="73" y="355"/>
      <point x="110" y="178"/>
      <point x="146" y="0" type="curve"/>
      <point x="170" y="0"/>
      <point x="146" y="0"/>
      <point x="170" y="0" type="curve"/>
      <point x="134" y="178"/>
      <point x="99" y="355"/>
      <point x="62" y="533" type="curve"/>
      <point x="36" y="533"/>
      <point x="62" y="533"/>
    </contour>
  </outline>
</glyph>
<glyph name="x" format="1">
  <advance width="331"/>
  <unicode hex="0078"/>
  <outline>
    <contour>
      <point x="312" y="0" type="curve"/>
      <point x="228" y="176"/>
      <point x="142" y="357"/>
      <point x="59" y="533" type="curve"/>
      <point x="32" y="533"/>
      <point x="59" y="533"/>
      <point x="31" y="533" type="curve"/>
      <point x="114" y="357"/>
      <point x="200" y="176"/>
      <point x="282" y="0" type="curve"/>
      <point x="312" y="0"/>
      <point x="282" y="0"/>
    </contour>
    <contour>
      <point x="273" y="533" type="curve"/>
      <point x="188" y="357"/>
      <point x="100" y="176"/>
      <point x="17" y="0" type="curve"/>
      <point x="47" y="0"/>
      <point x="17" y="0"/>
      <point x="47" y="0" type="curve"/>
      <point x="131" y="176"/>
      <point x="216" y="357"/>
      <point x="300" y="533" type="curve"/>
      <point x="273" y="533"/>
      <point x="300" y="533"/>
    </contour>
  </outline>
</glyph>
<glyph name="braceleft" format="1">
  <advance width="177"/>
  <unicode hex="007B"/>
  <outline>
    <contour>
      <point x="152" y="-101" type="curve"/>
      <point x="96" y="-101"/>
      <point x="93" y="-40"/>
      <point x="93" y="26" type="curve"/>
      <point x="93" y="85"/>
      <point x="93" y="144"/>
      <point x="93" y="203" type="curve"/>
      <point x="93" y="281"/>
      <point x="79" y="350"/>
      <point x="12" y="350" type="curve"/>
      <point x="12" y="326"/>
      <point x="12" y="350"/>
      <point x="12" y="326" type="curve"/>
      <point x="65" y="326"/>
      <point x="70" y="269"/>
      <point x="70" y="205" type="curve"/>
      <point x="70" y="146"/>
      <point x="70" y="86"/>
      <point x="70" y="27" type="curve"/>
      <point x="70" y="-54"/>
      <point x="84" y="-124"/>
      <point x="152" y="-124" type="curve"/>
      <point x="152" y="-101"/>
      <point x="152" y="-124"/>
    </contour>
    <contour>
      <point x="152" y="800" type="curve"/>
      <point x="84" y="800"/>
      <point x="70" y="731"/>
      <point x="70" y="650" type="curve"/>
      <point x="70" y="590"/>
      <point x="70" y="530"/>
      <point x="70" y="470" type="curve"/>
      <point x="70" y="406"/>
      <point x="65" y="350"/>
      <point x="12" y="350" type="curve"/>
      <point x="12" y="326"/>
      <point x="12" y="350"/>
      <point x="12" y="326" type="curve"/>
      <point x="79" y="326"/>
      <point x="94" y="394"/>
      <point x="94" y="473" type="curve"/>
      <point x="94" y="532"/>
      <point x="94" y="591"/>
      <point x="94" y="650" type="curve"/>
      <point x="94" y="716"/>
      <point x="96" y="777"/>
      <point x="152" y="777" type="curve"/>
      <point x="152" y="800"/>
      <point x="152" y="777"/>
    </contour>
  </outline>
</glyph>
<glyph name="braceright" format="1">
  <advance width="178"/>
  <unicode hex="007D"/>
  <outline>
    <contour>
      <point x="26" y="-124" type="curve"/>
      <point x="95" y="-124"/>
      <point x="108" y="-54"/>
      <point x="108" y="27" type="curve"/>
      <point x="108" y="86"/>
      <point x="108" y="146"/>
      <point x="108" y="205" type="curve"/>
      <point x="108" y="269"/>
      <point x="113" y="327"/>
      <point x="166" y="327" type="curve"/>
      <point x="166" y="351"/>
      <point x="166" y="327"/>
      <point x="166" y="351" type="curve"/>
      <point x="99" y="351"/>
      <point x="85" y="281"/>
      <point x="85" y="203" type="curve"/>
      <point x="85" y="144"/>
      <point x="85" y="85"/>
      <point x="85" y="26" type="curve"/>
      <point x="85" y="-40"/>
      <point x="83" y="-101"/>
      <point x="26" y="-101" type="curve"/>
      <point x="26" y="-124"/>
      <point x="26" y="-101"/>
    </contour>
    <contour>
      <point x="26" y="777" type="curve"/>
      <point x="83" y="777"/>
      <point x="85" y="716"/>
      <point x="85" y="650" type="curve"/>
      <point x="85" y="591"/>
      <point x="85" y="532"/>
      <point x="85" y="473" type="curve"/>
      <point x="85" y="394"/>
      <point x="99" y="327"/>
      <point x="166" y="327" type="curve"/>
      <point x="166" y="351"/>
      <point x="166" y="327"/>
      <point x="166" y="351" type="curve"/>
      <point x="114" y="351"/>
      <point x="109" y="406"/>
      <point x="109" y="470" type="curve"/>
      <point x="109" y="530"/>
      <point x="109" y="590"/>
      <point x="109" y="650" type="curve"/>
      <point x="109" y="731"/>
      <point x="95" y="800"/>
      <point x="26" y="800" type="curve"/>
      <point x="26" y="777"/>
      <point x="26" y="800"/>
    </contour>
  </outline>
</glyph>
<glyph name="asciitilde" format="1">
  <advance width="500"/>
  <unicode hex="007E"/>
  <outline>
    <contour>
      <point x="383" y="344" type="curve"/>
      <point x="374" y="301"/>
      <point x="373" y="242"/>
      <point x="325" y="242" type="curve"/>
      <point x="294" y="242"/>
      <point x="278" y="262"/>
      <point x="259" y="290" type="curve"/>
      <point x="238" y="322"/>
      <point x="218" y="345"/>
      <point x="181" y="345" type="curve"/>
      <point x="117" y="345"/>
      <point x="105" y="290"/>
      <point x="95" y="224" type="curve"/>
      <point x="116" y="219"/>
      <point x="96" y="223"/>
      <point x="116" y="219" type="curve"/>
      <point x="124" y="269"/>
      <point x="128" y="322"/>
      <point x="179" y="322" type="curve"/>
      <point x="207" y="322"/>
      <point x="221" y="303"/>
      <point x="237" y="279" type="curve"/>
      <point x="261" y="244"/>
      <point x="283" y="220"/>
      <point x="323" y="220" type="curve"/>
      <point x="386" y="220"/>
      <point x="394" y="278"/>
      <point x="405" y="341" type="curve"/>
      <point x="384" y="344"/>
      <point x="404" y="341"/>
    </contour>
  </outline>
</glyph>
<glyph name="exclamdown" format="1">
  <advance width="238"/>
  <unicode hex="00A1"/>
  <outline>
    <contour>
      <point x="106" y="292" type="line"/>
      <point x="103" y="-201" type="line"/>
      <point x="135" y="-201" type="line"/>
      <point x="132" y="292" type="line"/>
    </contour>
    <contour>
      <point x="101" y="508" type="curve"/>
      <point x="101" y="497"/>
      <point x="108" y="491"/>
      <point x="119" y="491" type="curve"/>
      <point x="130" y="491"/>
      <point x="136" y="498"/>
      <point x="136" y="508" type="curve"/>
      <point x="97" y="508"/>
      <point x="140" y="508"/>
      <point x="101" y="508" type="curve"/>
      <point x="101" y="520"/>
      <point x="108" y="526"/>
      <point x="119" y="526" type="curve"/>
      <point x="130" y="526"/>
      <point x="136" y="519"/>
      <point x="136" y="508" type="curve"/>
      <point x="97" y="508"/>
      <point x="140" y="508"/>
    </contour>
  </outline>
</glyph>
<glyph name="cent" format="1">
  <advance width="434"/>
  <unicode hex="00A2"/>
  <outline>
    <contour>
      <point x="237" y="-53" type="curve"/>
      <point x="237" y="-13"/>
      <point x="237" y="27"/>
      <point x="237" y="67" type="curve"/>
      <point x="211" y="67"/>
      <point x="237" y="67"/>
      <point x="211" y="67" type="curve"/>
      <point x="211" y="27"/>
      <point x="211" y="-13"/>
      <point x="211" y="-53" type="curve"/>
      <point x="237" y="-53"/>
      <point x="211" y="-53"/>
    </contour>
    <contour>
      <point x="224" y="778" type="curve"/>
      <point x="224" y="742"/>
      <point x="224" y="706"/>
      <point x="224" y="670" type="curve"/>
      <point x="249" y="670"/>
      <point x="224" y="670"/>
      <point x="249" y="670" type="curve"/>
      <point x="249" y="706"/>
      <point x="249" y="742"/>
      <point x="249" y="778" type="curve"/>
      <point x="224" y="778"/>
      <point x="249" y="778"/>
    </contour>
    <contour>
      <point x="372" y="602" type="curve"/>
      <point x="334" y="654"/>
      <point x="297" y="679"/>
      <point x="239" y="679" type="curve"/>
      <point x="97" y="679"/>
      <point x="61" y="535"/>
      <point x="61" y="366" type="curve"/>
      <point x="61" y="200"/>
      <point x="82" y="54"/>
      <point x="223" y="54" type="curve"/>
      <point x="289" y="54"/>
      <point x="330" y="90"/>
      <point x="372" y="149" type="curve"/>
      <point x="354" y="165"/>
      <point x="372" y="149"/>
      <point x="354" y="165" type="curve"/>
      <point x="320" y="113"/>
      <point x="285" y="77"/>
      <point x="225" y="77" type="curve"/>
      <point x="103" y="77"/>
      <point x="86" y="215"/>
      <point x="86" y="367" type="curve"/>
      <point x="86" y="520"/>
      <point x="115" y="655"/>
      <point x="237" y="655" type="curve"/>
      <point x="290" y="655"/>
      <point x="324" y="631"/>
      <point x="355" y="589" type="curve"/>
      <point x="372" y="602"/>
      <point x="355" y="589"/>
    </contour>
  </outline>
</glyph>
<glyph name="sterling" format="1">
  <advance width="356"/>
  <unicode hex="00A3"/>
  <outline>
    <contour>
      <point x="285" y="23" type="curve"/>
      <point x="200" y="23"/>
      <point x="123" y="23"/>
      <point x="41" y="23" type="curve"/>
      <point x="41" y="0"/>
      <point x="41" y="23"/>
      <point x="41" y="0" type="curve"/>
      <point x="123" y="0"/>
      <point x="204" y="0"/>
      <point x="285" y="0" type="curve"/>
      <point x="285" y="23"/>
      <point x="285" y="0"/>
    </contour>
    <contour>
      <point x="256" y="388" type="curve"/>
      <point x="191" y="388"/>
      <point x="127" y="388"/>
      <point x="63" y="388" type="curve"/>
      <point x="63" y="365"/>
      <point x="63" y="388"/>
      <point x="63" y="365" type="curve"/>
      <point x="127" y="365"/>
      <point x="191" y="365"/>
      <point x="256" y="365" type="curve"/>
      <point x="256" y="388"/>
      <point x="256" y="365"/>
    </contour>
    <contour>
      <point x="294" y="677" type="curve"/>
      <point x="269" y="708"/>
      <point x="247" y="727"/>
      <point x="211" y="727" type="curve"/>
      <point x="68" y="727"/>
      <point x="91" y="560"/>
      <point x="115" y="375" type="curve"/>
      <point x="137" y="195"/>
      <point x="180" y="23"/>
      <point x="41" y="23" type="curve"/>
      <point x="41" y="0"/>
      <point x="41" y="23"/>
      <point x="41" y="0" type="curve"/>
      <point x="203" y="0"/>
      <point x="163" y="182"/>
      <point x="140" y="379" type="curve"/>
      <point x="120" y="545"/>
      <point x="91" y="702"/>
      <point x="208" y="702" type="curve"/>
      <point x="241" y="702"/>
      <point x="261" y="685"/>
      <point x="278" y="662" type="curve"/>
      <point x="294" y="677"/>
      <point x="278" y="662"/>
    </contour>
  </outline>
</glyph>
<glyph name="currency" format="1">
  <advance width="531"/>
  <unicode hex="00A4"/>
  <outline>
    <contour>
      <point x="189" y="310" type="curve"/>
      <point x="189" y="387"/>
      <point x="201" y="457"/>
      <point x="266" y="457" type="curve"/>
      <point x="332" y="457"/>
      <point x="341" y="388"/>
      <point x="341" y="310" type="curve"/>
      <point x="341" y="230"/>
      <point x="335" y="157"/>
      <point x="268" y="157" type="curve"/>
      <point x="200" y="157"/>
      <point x="189" y="229"/>
      <point x="189" y="310" type="curve"/>
      <point x="164" y="310"/>
      <point x="189" y="310"/>
      <point x="164" y="310" type="curve"/>
      <point x="164" y="215"/>
      <point x="185" y="135"/>
      <point x="267" y="135" type="curve"/>
      <point x="348" y="135"/>
      <point x="367" y="217"/>
      <point x="367" y="311" type="curve"/>
      <point x="367" y="402"/>
      <point x="345" y="480"/>
      <point x="268" y="480" type="curve"/>
      <point x="188" y="480"/>
      <point x="164" y="402"/>
      <point x="164" y="310" type="curve"/>
      <point x="189" y="310"/>
      <point x="164" y="310"/>
    </contour>
    <contour>
      <point x="321" y="434" type="line"/>
      <point x="456" y="565" type="line"/>
      <point x="434" y="587" type="line"/>
      <point x="303" y="452" type="line"/>
    </contour>
    <contour>
      <point x="306" y="169" type="line"/>
      <point x="437" y="34" type="line"/>
      <point x="459" y="55" type="line"/>
      <point x="324" y="187" type="line"/>
    </contour>
    <contour>
      <point x="207" y="188" type="line"/>
      <point x="72" y="56" type="line"/>
      <point x="93" y="35" type="line"/>
      <point x="225" y="170" type="line"/>
    </contour>
    <contour>
      <point x="229" y="453" type="line"/>
      <point x="98" y="588" type="line"/>
      <point x="76" y="566" type="line"/>
      <point x="212" y="435" type="line"/>
    </contour>
  </outline>
</glyph>
<glyph name="yen" format="1">
  <advance width="418"/>
  <unicode hex="00A5"/>
  <outline>
    <contour>
      <point x="350" y="371" type="curve"/>
      <point x="307" y="371"/>
      <point x="265" y="371"/>
      <point x="223" y="371" type="curve"/>
      <point x="223" y="346"/>
      <point x="223" y="371"/>
      <point x="223" y="346" type="curve"/>
      <point x="265" y="346"/>
      <point x="307" y="346"/>
      <point x="350" y="346" type="curve"/>
      <point x="350" y="371"/>
      <point x="350" y="346"/>
    </contour>
    <contour>
      <point x="206" y="371" type="curve"/>
      <point x="163" y="371"/>
      <point x="122" y="371"/>
      <point x="81" y="371" type="curve"/>
      <point x="81" y="346"/>
      <point x="81" y="371"/>
      <point x="81" y="346" type="curve"/>
      <point x="122" y="346"/>
      <point x="163" y="346"/>
      <point x="206" y="346" type="curve"/>
      <point x="206" y="371"/>
      <point x="206" y="346"/>
    </contour>
    <contour>
      <point x="350" y="252" type="curve"/>
      <point x="260" y="252"/>
      <point x="170" y="252"/>
      <point x="81" y="252" type="curve"/>
      <point x="81" y="227"/>
      <point x="81" y="252"/>
      <point x="81" y="227" type="curve"/>
      <point x="170" y="227"/>
      <point x="260" y="227"/>
      <point x="350" y="227" type="curve"/>
      <point x="350" y="252"/>
      <point x="350" y="227"/>
    </contour>
    <contour>
      <point x="53" y="722" type="curve"/>
      <point x="100" y="594"/>
      <point x="148" y="465"/>
      <point x="195" y="337" type="curve"/>
      <point x="222" y="337"/>
      <point x="195" y="336"/>
      <point x="222" y="336" type="curve"/>
      <point x="174" y="465"/>
      <point x="127" y="594"/>
      <point x="80" y="722" type="curve"/>
      <point x="53" y="722"/>
      <point x="80" y="722"/>
    </contour>
    <contour>
      <point x="344" y="722" type="curve"/>
      <point x="296" y="594"/>
      <point x="245" y="465"/>
      <point x="195" y="336" type="curve"/>
      <point x="222" y="336"/>
      <point x="195" y="337"/>
      <point x="222" y="337" type="curve"/>
      <point x="272" y="465"/>
      <point x="322" y="594"/>
      <point x="372" y="722" type="curve"/>
      <point x="344" y="722"/>
      <point x="372" y="722"/>
    </contour>
    <contour>
      <point x="222" y="0" type="curve"/>
      <point x="222" y="115"/>
      <point x="222" y="231"/>
      <point x="222" y="346" type="curve"/>
      <point x="195" y="346"/>
      <point x="222" y="346"/>
      <point x="195" y="346" type="curve"/>
      <point x="195" y="231"/>
      <point x="195" y="115"/>
      <point x="195" y="0" type="curve"/>
      <point x="222" y="0"/>
      <point x="195" y="0"/>
    </contour>
  </outline>
</glyph>
<glyph name="section" format="1">
  <advance width="353"/>
  <unicode hex="00A7"/>
  <outline>
    <contour>
      <point x="269" y="709" type="curve"/>
      <point x="240" y="736"/>
      <point x="217" y="752"/>
      <point x="179" y="752" type="curve"/>
      <point x="115" y="752"/>
      <point x="88" y="695"/>
      <point x="88" y="627" type="curve"/>
      <point x="88" y="564"/>
      <point x="111" y="515"/>
      <point x="165" y="484" type="curve"/>
      <point x="221" y="453"/>
      <point x="265" y="424"/>
      <point x="265" y="361" type="curve"/>
      <point x="265" y="297"/>
      <point x="250" y="247"/>
      <point x="193" y="229" type="curve"/>
      <point x="207" y="211"/>
      <point x="193" y="229"/>
      <point x="207" y="211" type="curve"/>
      <point x="272" y="234"/>
      <point x="290" y="291"/>
      <point x="290" y="361" type="curve"/>
      <point x="289" y="432"/>
      <point x="243" y="471"/>
      <point x="178" y="505" type="curve"/>
      <point x="132" y="531"/>
      <point x="114" y="573"/>
      <point x="114" y="627" type="curve"/>
      <point x="114" y="680"/>
      <point x="127" y="729"/>
      <point x="177" y="729" type="curve"/>
      <point x="211" y="729"/>
      <point x="232" y="714"/>
      <point x="255" y="692" type="curve"/>
      <point x="269" y="709"/>
      <point x="255" y="692"/>
    </contour>
    <contour>
      <point x="146" y="513" type="curve"/>
      <point x="88" y="484"/>
      <point x="68" y="433"/>
      <point x="68" y="367" type="curve"/>
      <point x="68" y="297"/>
      <point x="107" y="253"/>
      <point x="170" y="220" type="curve"/>
      <point x="219" y="192"/>
      <point x="248" y="157"/>
      <point x="248" y="100" type="curve"/>
      <point x="248" y="41"/>
      <point x="231" y="-7"/>
      <point x="179" y="-7" type="curve"/>
      <point x="139" y="-7"/>
      <point x="116" y="13"/>
      <point x="90" y="45" type="curve"/>
      <point x="73" y="28"/>
      <point x="90" y="45"/>
      <point x="73" y="28" type="curve"/>
      <point x="104" y="-8"/>
      <point x="134" y="-30"/>
      <point x="178" y="-30" type="curve"/>
      <point x="243" y="-30"/>
      <point x="273" y="27"/>
      <point x="273" y="100" type="curve"/>
      <point x="272" y="165"/>
      <point x="244" y="211"/>
      <point x="186" y="241" type="curve"/>
      <point x="132" y="271"/>
      <point x="93" y="305"/>
      <point x="93" y="367" type="curve"/>
      <point x="93" y="425"/>
      <point x="108" y="471"/>
      <point x="159" y="496" type="curve"/>
      <point x="146" y="513"/>
      <point x="159" y="496"/>
    </contour>
  </outline>
</glyph>
<glyph name="dieresis" format="1">
  <advance width="368"/>
  <unicode hex="00A8"/>
  <outline>
    <contour>
      <point x="145" y="669" type="curve"/>
      <point x="145" y="681"/>
      <point x="138" y="687"/>
      <point x="126" y="687" type="curve"/>
      <point x="115" y="687"/>
      <point x="109" y="679"/>
      <point x="109" y="669" type="curve"/>
      <point x="148" y="669"/>
      <point x="106" y="669"/>
      <point x="145" y="669" type="curve"/>
      <point x="145" y="658"/>
      <point x="138" y="652"/>
      <point x="126" y="652" type="curve"/>
      <point x="115" y="652"/>
      <point x="109" y="658"/>
      <point x="109" y="669" type="curve"/>
      <point x="148" y="669"/>
      <point x="106" y="669"/>
    </contour>
    <contour>
      <point x="218" y="669" type="curve"/>
      <point x="218" y="681"/>
      <point x="211" y="687"/>
      <point x="200" y="687" type="curve"/>
      <point x="189" y="687"/>
      <point x="183" y="679"/>
      <point x="183" y="669" type="curve"/>
      <point x="222" y="669"/>
      <point x="179" y="669"/>
      <point x="218" y="669" type="curve"/>
      <point x="218" y="658"/>
      <point x="211" y="652"/>
      <point x="200" y="652" type="curve"/>
      <point x="189" y="652"/>
      <point x="183" y="658"/>
      <point x="183" y="669" type="curve"/>
      <point x="222" y="669"/>
      <point x="179" y="669"/>
    </contour>
    <contour>
      <point x="164" y="655" type="move" name="_top"/>
    </contour>
  </outline>
</glyph>
<glyph name="copyright" format="1">
  <advance width="537"/>
  <unicode hex="00A9"/>
  <outline>
    <contour>
      <point x="99" y="319" type="curve"/>
      <point x="99" y="477"/>
      <point x="137" y="624"/>
      <point x="271" y="624" type="curve"/>
      <point x="403" y="624"/>
      <point x="439" y="476"/>
      <point x="439" y="318" type="curve"/>
      <point x="439" y="164"/>
      <point x="405" y="18"/>
      <point x="275" y="18" type="curve"/>
      <point x="143" y="18"/>
      <point x="99" y="161"/>
      <point x="99" y="319" type="curve"/>
      <point x="73" y="319"/>
      <point x="99" y="319"/>
      <point x="73" y="319" type="curve"/>
      <point x="73" y="150"/>
      <point x="127" y="-5"/>
      <point x="274" y="-5" type="curve"/>
      <point x="418" y="-5"/>
      <point x="464" y="150"/>
      <point x="464" y="319" type="curve"/>
      <point x="464" y="490"/>
      <point x="417" y="646"/>
      <point x="271" y="646" type="curve"/>
      <point x="124" y="646"/>
      <point x="73" y="490"/>
      <point x="73" y="319" type="curve"/>
      <point x="99" y="319"/>
      <point x="73" y="319"/>
    </contour>
    <contour>
      <point x="347" y="464" type="curve"/>
      <point x="326" y="486"/>
      <point x="306" y="496"/>
      <point x="275" y="496" type="curve"/>
      <point x="193" y="496"/>
      <point x="170" y="414"/>
      <point x="170" y="319" type="curve"/>
      <point x="170" y="225"/>
      <point x="188" y="146"/>
      <point x="267" y="146" type="curve"/>
      <point x="305" y="146"/>
      <point x="330" y="160"/>
      <point x="354" y="193" type="curve"/>
      <point x="337" y="207"/>
      <point x="354" y="193"/>
      <point x="337" y="207" type="curve"/>
      <point x="320" y="184"/>
      <point x="299" y="169"/>
      <point x="268" y="169" type="curve"/>
      <point x="202" y="169"/>
      <point x="196" y="241"/>
      <point x="196" y="320" type="curve"/>
      <point x="196" y="401"/>
      <point x="206" y="473"/>
      <point x="274" y="473" type="curve"/>
      <point x="297" y="473"/>
      <point x="316" y="465"/>
      <point x="333" y="447" type="curve"/>
      <point x="347" y="464"/>
      <point x="333" y="446"/>
    </contour>
  </outline>
</glyph>
<glyph name="ordfeminine" format="1">
  <advance width="324"/>
  <unicode hex="00AA"/>
  <outline>
    <contour>
      <point x="231" y="431" type="curve"/>
      <point x="231" y="523"/>
      <point x="231" y="589"/>
      <point x="231" y="682" type="curve"/>
      <point x="231" y="730"/>
      <point x="205" y="766"/>
      <point x="158" y="766" type="curve"/>
      <point x="124" y="766"/>
      <point x="106" y="748"/>
      <point x="84" y="719" type="curve"/>
      <point x="89" y="712"/>
      <point x="93" y="708"/>
      <point x="100" y="700" type="curve"/>
      <point x="113" y="721"/>
      <point x="126" y="744"/>
      <point x="155" y="744" type="curve"/>
      <point x="189" y="744"/>
      <point x="207" y="713"/>
      <point x="207" y="675" type="curve"/>
      <point x="207" y="584"/>
      <point x="207" y="521"/>
      <point x="207" y="431" type="curve"/>
      <point x="216" y="431"/>
      <point x="221" y="431"/>
    </contour>
    <contour>
      <point x="218" y="632" type="curve"/>
      <point x="192" y="627"/>
      <point x="175" y="623"/>
      <point x="149" y="617" type="curve"/>
      <point x="101" y="606"/>
      <point x="71" y="573"/>
      <point x="71" y="521" type="curve"/>
      <point x="71" y="470"/>
      <point x="95" y="431"/>
      <point x="146" y="431" type="curve"/>
      <point x="189" y="431"/>
      <point x="206" y="464"/>
      <point x="225" y="506" type="curve"/>
      <point x="221" y="511"/>
      <point x="217" y="514"/>
      <point x="213" y="518" type="curve"/>
      <point x="196" y="484"/>
      <point x="186" y="453"/>
      <point x="151" y="453" type="curve"/>
      <point x="112" y="453"/>
      <point x="95" y="485"/>
      <point x="95" y="523" type="curve"/>
      <point x="95" y="562"/>
      <point x="115" y="589"/>
      <point x="148" y="597" type="curve"/>
      <point x="174" y="603"/>
      <point x="193" y="607"/>
      <point x="219" y="613" type="curve"/>
      <point x="219" y="621"/>
      <point x="218" y="625"/>
    </contour>
  </outline>
</glyph>
<glyph name="guillemotleft" format="1">
  <advance width="438"/>
  <unicode hex="00AB"/>
  <outline>
    <contour>
      <point x="217" y="401" type="curve"/>
      <point x="216" y="401"/>
      <point x="52" y="289"/>
      <point x="51" y="289" type="curve"/>
      <point x="51" y="264"/>
      <point x="51" y="288"/>
      <point x="51" y="263" type="curve"/>
      <point x="52" y="264"/>
      <point x="216" y="376"/>
      <point x="217" y="376" type="curve"/>
      <point x="217" y="401"/>
      <point x="217" y="376"/>
    </contour>
    <contour>
      <point x="218" y="176" type="curve"/>
      <point x="218" y="176"/>
      <point x="52" y="288"/>
      <point x="51" y="289" type="curve"/>
      <point x="51" y="264"/>
      <point x="51" y="288"/>
      <point x="51" y="263" type="curve"/>
      <point x="52" y="263"/>
      <point x="218" y="152"/>
      <point x="218" y="152" type="curve"/>
      <point x="218" y="176"/>
      <point x="218" y="152"/>
    </contour>
    <contour>
      <point x="354" y="401" type="curve"/>
      <point x="189" y="289" type="line"/>
      <point x="189" y="264"/>
      <point x="189" y="288"/>
      <point x="189" y="263" type="curve"/>
      <point x="189" y="264"/>
      <point x="354" y="376"/>
      <point x="354" y="376" type="curve"/>
      <point x="354" y="401"/>
      <point x="354" y="376"/>
    </contour>
    <contour>
      <point x="355" y="176" type="curve"/>
      <point x="355" y="176"/>
      <point x="189" y="288"/>
      <point x="189" y="289" type="curve"/>
      <point x="189" y="264"/>
      <point x="189" y="288"/>
      <point x="189" y="263" type="curve"/>
      <point x="355" y="152" type="line"/>
      <point x="355" y="176"/>
      <point x="355" y="152"/>
    </contour>
  </outline>
</glyph>
<glyph name="logicalnot" format="1">
  <advance width="595"/>
  <unicode hex="00AC"/>
  <outline>
    <contour>
      <point x="95" y="297" type="curve"/>
      <point x="497" y="297" type="line"/>
      <point x="497" y="322"/>
      <point x="497" y="297"/>
      <point x="497" y="322" type="curve"/>
      <point x="95" y="322" type="line"/>
      <point x="95" y="297"/>
      <point x="95" y="322"/>
    </contour>
    <contour>
      <point x="497" y="153" type="curve"/>
      <point x="497" y="322" type="line"/>
      <point x="472" y="322"/>
      <point x="497" y="322"/>
      <point x="472" y="322" type="curve"/>
      <point x="472" y="153" type="line"/>
      <point x="497" y="153"/>
      <point x="472" y="153"/>
    </contour>
  </outline>
</glyph>
<glyph name="registered" format="1">
  <advance width="538"/>
  <unicode hex="00AE"/>
  <outline>
    <contour>
      <point x="100" y="319" type="curve"/>
      <point x="100" y="477"/>
      <point x="137" y="624"/>
      <point x="272" y="624" type="curve"/>
      <point x="404" y="624"/>
      <point x="440" y="476"/>
      <point x="440" y="318" type="curve"/>
      <point x="440" y="164"/>
      <point x="406" y="18"/>
      <point x="275" y="18" type="curve"/>
      <point x="143" y="18"/>
      <point x="100" y="161"/>
      <point x="100" y="319" type="curve"/>
      <point x="74" y="319"/>
      <point x="99" y="319"/>
      <point x="74" y="319" type="curve"/>
      <point x="74" y="150"/>
      <point x="128" y="-5"/>
      <point x="274" y="-5" type="curve"/>
      <point x="419" y="-5"/>
      <point x="465" y="150"/>
      <point x="465" y="319" type="curve"/>
      <point x="465" y="490"/>
      <point x="417" y="646"/>
      <point x="272" y="646" type="curve"/>
      <point x="125" y="646"/>
      <point x="74" y="490"/>
      <point x="74" y="319" type="curve"/>
      <point x="99" y="319"/>
      <point x="74" y="319"/>
    </contour>
    <contour>
      <point x="270" y="309" type="curve"/>
      <point x="294" y="248"/>
      <point x="303" y="209"/>
      <point x="326" y="149" type="curve"/>
      <point x="341" y="149"/>
      <point x="336" y="149"/>
      <point x="353" y="149" type="curve"/>
      <point x="329" y="208"/>
      <point x="322" y="248"/>
      <point x="297" y="310" type="curve"/>
      <point x="270" y="309"/>
      <point x="297" y="310"/>
    </contour>
    <contour>
      <point x="239" y="149" type="curve"/>
      <point x="239" y="264"/>
      <point x="239" y="376"/>
      <point x="239" y="491" type="curve"/>
      <point x="221" y="491"/>
      <point x="229" y="491"/>
      <point x="213" y="491" type="curve"/>
      <point x="213" y="376"/>
      <point x="213" y="263"/>
      <point x="213" y="149" type="curve"/>
      <point x="232" y="149"/>
      <point x="218" y="149"/>
    </contour>
    <contour>
      <point x="227" y="295" type="curve"/>
      <point x="239" y="295"/>
      <point x="252" y="295"/>
      <point x="264" y="295" type="curve"/>
      <point x="316" y="295"/>
      <point x="339" y="333"/>
      <point x="339" y="392" type="curve"/>
      <point x="339" y="447"/>
      <point x="319" y="491"/>
      <point x="270" y="491" type="curve"/>
      <point x="260" y="491"/>
      <point x="248" y="491"/>
      <point x="237" y="491" type="curve"/>
      <point x="213" y="469"/>
      <point x="239" y="491"/>
      <point x="213" y="468" type="curve"/>
      <point x="230" y="468"/>
      <point x="248" y="468"/>
      <point x="266" y="468" type="curve"/>
      <point x="302" y="468"/>
      <point x="314" y="433"/>
      <point x="314" y="390" type="curve"/>
      <point x="314" y="348"/>
      <point x="302" y="318"/>
      <point x="268" y="318" type="curve"/>
      <point x="254" y="318"/>
      <point x="240" y="318"/>
      <point x="227" y="318" type="curve"/>
      <point x="227" y="295"/>
      <point x="227" y="318"/>
    </contour>
  </outline>
</glyph>
<glyph name="degree" format="1">
  <advance width="358"/>
  <unicode hex="00B0"/>
  <outline>
    <contour>
      <point x="283" y="433" type="curve"/>
      <point x="283" y="542"/>
      <point x="271" y="640"/>
      <point x="180" y="640" type="curve"/>
      <point x="87" y="640"/>
      <point x="76" y="544"/>
      <point x="76" y="435" type="curve"/>
      <point x="99" y="435"/>
      <point x="76" y="435"/>
      <point x="100" y="435" type="curve"/>
      <point x="100" y="529"/>
      <point x="98" y="618"/>
      <point x="176" y="618" type="curve"/>
      <point x="256" y="618"/>
      <point x="259" y="529"/>
      <point x="259" y="433" type="curve"/>
      <point x="259" y="333"/>
      <point x="261" y="241"/>
      <point x="179" y="241" type="curve"/>
      <point x="97" y="241"/>
      <point x="100" y="335"/>
      <point x="100" y="435" type="curve"/>
      <point x="76" y="435"/>
      <point x="99" y="435"/>
      <point x="76" y="435" type="curve"/>
      <point x="76" y="321"/>
      <point x="83" y="220"/>
      <point x="178" y="220" type="curve"/>
      <point x="273" y="220"/>
      <point x="283" y="320"/>
    </contour>
  </outline>
</glyph>
<glyph name="twosuperior" format="1">
  <advance width="343"/>
  <unicode hex="00B2"/>
  <outline>
    <contour>
      <point x="68" y="278" type="curve"/>
      <point x="133" y="278"/>
      <point x="199" y="278"/>
      <point x="265" y="278" type="curve"/>
      <point x="265" y="289"/>
      <point x="265" y="293"/>
      <point x="265" y="301" type="curve"/>
      <point x="198" y="301"/>
      <point x="134" y="301"/>
      <point x="68" y="301" type="curve"/>
      <point x="68" y="278"/>
      <point x="68" y="301"/>
    </contour>
    <contour>
      <point x="108" y="595" type="curve"/>
      <point x="120" y="635"/>
      <point x="132" y="670"/>
      <point x="171" y="670" type="curve"/>
      <point x="216" y="670"/>
      <point x="231" y="625"/>
      <point x="231" y="573" type="curve"/>
      <point x="231" y="525"/>
      <point x="212" y="493"/>
      <point x="184" y="453" type="curve"/>
      <point x="146" y="402"/>
      <point x="106" y="351"/>
      <point x="68" y="301" type="curve"/>
      <point x="79" y="278"/>
      <point x="68" y="301"/>
      <point x="79" y="278" type="curve"/>
      <point x="119" y="331"/>
      <point x="160" y="383"/>
      <point x="201" y="436" type="curve"/>
      <point x="233" y="481"/>
      <point x="254" y="517"/>
      <point x="254" y="574" type="curve"/>
      <point x="254" y="639"/>
      <point x="230" y="693"/>
      <point x="172" y="693" type="curve"/>
      <point x="124" y="693"/>
      <point x="101" y="657"/>
      <point x="87" y="604" type="curve"/>
      <point x="108" y="595"/>
      <point x="87" y="604"/>
    </contour>
    <contour>
      <point x="184" y="693" type="move" name="_top"/>
    </contour>
    <contour>
      <point x="159" y="277" type="move" name="_bottom"/>
    </contour>
  </outline>
</glyph>
<glyph name="threesuperior" format="1">
  <advance width="313"/>
  <unicode hex="00B3"/>
  <outline>
    <contour>
      <point x="94" y="628" type="curve"/>
      <point x="105" y="649"/>
      <point x="121" y="671"/>
      <point x="147" y="671" type="curve"/>
      <point x="189" y="671"/>
      <point x="208" y="633"/>
      <point x="208" y="586" type="curve"/>
      <point x="208" y="539"/>
      <point x="171" y="502"/>
      <point x="121" y="497" type="curve"/>
      <point x="121" y="478"/>
      <point x="121" y="497"/>
      <point x="121" y="478" type="curve"/>
      <point x="187" y="481"/>
      <point x="233" y="524"/>
      <point x="233" y="588" type="curve"/>
      <point x="233" y="648"/>
      <point x="206" y="693"/>
      <point x="150" y="693" type="curve"/>
      <point x="117" y="693"/>
      <point x="90" y="668"/>
      <point x="76" y="640" type="curve"/>
      <point x="94" y="628"/>
      <point x="76" y="640"/>
    </contour>
    <contour>
      <point x="73" y="307" type="curve"/>
      <point x="92" y="286"/>
      <point x="115" y="274"/>
      <point x="142" y="274" type="curve"/>
      <point x="206" y="270"/>
      <point x="243" y="319"/>
      <point x="242" y="386" type="curve"/>
      <point x="242" y="451"/>
      <point x="190" y="487"/>
      <point x="121" y="490" type="curve"/>
      <point x="121" y="474"/>
      <point x="121" y="490"/>
      <point x="121" y="474" type="curve"/>
      <point x="179" y="469"/>
      <point x="217" y="433"/>
      <point x="217" y="385" type="curve"/>
      <point x="216" y="334"/>
      <point x="193" y="294"/>
      <point x="146" y="296" type="curve"/>
      <point x="122" y="296"/>
      <point x="102" y="307"/>
      <point x="85" y="324" type="curve"/>
      <point x="73" y="307"/>
      <point x="85" y="324"/>
    </contour>
    <contour>
      <point x="175" y="693" type="move" name="_top"/>
    </contour>
    <contour>
      <point x="155" y="274" type="move" name="_bottom"/>
    </contour>
  </outline>
</glyph>
<glyph name="paragraph" format="1">
  <advance width="508"/>
  <unicode hex="00B6"/>
  <outline>
    <contour>
      <point x="278" y="699" type="curve"/>
      <point x="400" y="699"/>
      <point x="278" y="699"/>
      <point x="400" y="699" type="curve"/>
      <point x="400" y="722"/>
      <point x="400" y="699"/>
      <point x="400" y="722" type="curve"/>
      <point x="359" y="722"/>
      <point x="319" y="722"/>
      <point x="278" y="722" type="curve"/>
      <point x="278" y="699"/>
      <point x="278" y="722"/>
    </contour>
    <contour>
      <point x="273" y="346" type="curve"/>
      <point x="245" y="321"/>
      <point x="222" y="304"/>
      <point x="184" y="304" type="curve"/>
      <point x="100" y="304"/>
      <point x="73" y="392"/>
      <point x="73" y="493" type="curve"/>
      <point x="73" y="602"/>
      <point x="106" y="699"/>
      <point x="202" y="699" type="curve"/>
      <point x="227" y="699"/>
      <point x="252" y="699"/>
      <point x="276" y="699" type="curve"/>
      <point x="276" y="722"/>
      <point x="276" y="699"/>
      <point x="276" y="722" type="curve"/>
      <point x="250" y="722"/>
      <point x="225" y="722"/>
      <point x="199" y="722" type="curve"/>
      <point x="91" y="722"/>
      <point x="48" y="616"/>
      <point x="48" y="494" type="curve"/>
      <point x="48" y="372"/>
      <point x="85" y="282"/>
      <point x="185" y="280" type="curve"/>
      <point x="223" y="280"/>
      <point x="255" y="300"/>
      <point x="282" y="325" type="curve"/>
      <point x="273" y="345"/>
      <point x="282" y="326"/>
    </contour>
    <contour>
      <point x="292" y="0" type="curve"/>
      <point x="292" y="241"/>
      <point x="292" y="481"/>
      <point x="292" y="722" type="curve"/>
      <point x="267" y="722"/>
      <point x="292" y="722"/>
      <point x="267" y="722" type="curve"/>
      <point x="267" y="481"/>
      <point x="267" y="241"/>
      <point x="267" y="0" type="curve"/>
      <point x="292" y="0"/>
      <point x="267" y="0"/>
    </contour>
    <contour>
      <point x="408" y="0" type="curve"/>
      <point x="408" y="241"/>
      <point x="408" y="481"/>
      <point x="408" y="722" type="curve"/>
      <point x="383" y="722"/>
      <point x="408" y="722"/>
      <point x="383" y="722" type="curve"/>
      <point x="383" y="481"/>
      <point x="383" y="241"/>
      <point x="383" y="0" type="curve"/>
      <point x="408" y="0"/>
      <point x="383" y="0"/>
    </contour>
  </outline>
</glyph>
<glyph name="cedilla" format="1">
  <advance width="251"/>
  <unicode hex="00B8"/>
  <outline>
    <contour>
      <point x="146" y="18" type="curve"/>
      <point x="136" y="-8"/>
      <point x="127" y="-36"/>
      <point x="119" y="-62" type="curve"/>
      <point x="137" y="-81"/>
      <point x="119" y="-62"/>
      <point x="137" y="-81" type="curve"/>
      <point x="145" y="-53"/>
      <point x="156" y="-24"/>
      <point x="165" y="3" type="curve"/>
      <point x="146" y="18"/>
      <point x="165" y="3"/>
    </contour>
    <contour>
      <point x="137" y="-81" type="curve"/>
      <point x="144" y="-72"/>
      <point x="149" y="-68"/>
      <point x="160" y="-68" type="curve"/>
      <point x="185" y="-68"/>
      <point x="187" y="-95"/>
      <point x="187" y="-124" type="curve"/>
      <point x="187" y="-154"/>
      <point x="178" y="-179"/>
      <point x="153" y="-179" type="curve"/>
      <point x="136" y="-179"/>
      <point x="124" y="-175"/>
      <point x="113" y="-162" type="curve"/>
      <point x="102" y="-180"/>
      <point x="113" y="-162"/>
      <point x="102" y="-180" type="curve"/>
      <point x="117" y="-195"/>
      <point x="131" y="-202"/>
      <point x="152" y="-202" type="curve"/>
      <point x="193" y="-202"/>
      <point x="213" y="-168"/>
      <point x="213" y="-124" type="curve"/>
      <point x="213" y="-81"/>
      <point x="199" y="-45"/>
      <point x="162" y="-45" type="curve"/>
      <point x="145" y="-45"/>
      <point x="133" y="-51"/>
      <point x="119" y="-62" type="curve"/>
      <point x="137" y="-81"/>
      <point x="119" y="-62"/>
    </contour>
    <contour>
      <point x="165" y="3" type="move" name="_bottom"/>
    </contour>
  </outline>
</glyph>
<glyph name="onesuperior" format="1">
  <advance width="239"/>
  <unicode hex="00B9"/>
  <outline>
    <contour>
      <point x="53" y="555" type="line"/>
      <point x="139" y="675" type="line"/>
      <point x="116" y="684" type="line"/>
      <point x="34" y="570" type="line"/>
    </contour>
    <contour>
      <point x="141" y="278" type="curve"/>
      <point x="141" y="684" type="line"/>
      <point x="116" y="684" type="line"/>
      <point x="116" y="278" type="line"/>
      <point x="132" y="278"/>
      <point x="131" y="278"/>
    </contour>
    <contour>
      <point x="130" y="681" type="move" name="_top"/>
    </contour>
    <contour>
      <point x="131" y="283" type="move" name="_bottom"/>
    </contour>
  </outline>
</glyph>
<glyph name="ordmasculine" format="1">
  <advance width="300"/>
  <unicode hex="00BA"/>
  <outline>
    <contour>
      <point x="88" y="607" type="curve"/>
      <point x="88" y="681"/>
      <point x="95" y="743"/>
      <point x="153" y="743" type="curve"/>
      <point x="208" y="743"/>
      <point x="212" y="679"/>
      <point x="212" y="605" type="curve"/>
      <point x="212" y="521"/>
      <point x="207" y="449"/>
      <point x="156" y="449" type="curve"/>
      <point x="91" y="449"/>
      <point x="88" y="524"/>
      <point x="88" y="607" type="curve"/>
      <point x="62" y="607"/>
      <point x="89" y="607"/>
      <point x="64" y="607" type="curve"/>
      <point x="64" y="509"/>
      <point x="75" y="426"/>
      <point x="155" y="426" type="curve"/>
      <point x="226" y="426"/>
      <point x="236" y="508"/>
      <point x="236" y="605" type="curve"/>
      <point x="236" y="692"/>
      <point x="226" y="764"/>
      <point x="154" y="764" type="curve"/>
      <point x="76" y="764"/>
      <point x="64" y="692"/>
      <point x="64" y="607" type="curve"/>
      <point x="89" y="607"/>
      <point x="62" y="607"/>
    </contour>
  </outline>
</glyph>
<glyph name="guillemotright" format="1">
  <advance width="456"/>
  <unicode hex="00BB"/>
  <outline>
    <contour>
      <point x="233" y="401" type="curve"/>
      <point x="234" y="401"/>
      <point x="398" y="289"/>
      <point x="399" y="289" type="curve"/>
      <point x="399" y="264"/>
      <point x="399" y="288"/>
      <point x="399" y="263" type="curve"/>
      <point x="398" y="264"/>
      <point x="234" y="376"/>
      <point x="233" y="376" type="curve"/>
      <point x="233" y="401"/>
      <point x="233" y="376"/>
    </contour>
    <contour>
      <point x="232" y="176" type="curve"/>
      <point x="232" y="176"/>
      <point x="398" y="288"/>
      <point x="399" y="289" type="curve"/>
      <point x="399" y="264"/>
      <point x="399" y="288"/>
      <point x="399" y="263" type="curve"/>
      <point x="398" y="263"/>
      <point x="232" y="152"/>
      <point x="232" y="152" type="curve"/>
      <point x="232" y="176"/>
      <point x="232" y="152"/>
    </contour>
    <contour>
      <point x="96" y="401" type="curve"/>
      <point x="261" y="289" type="line"/>
      <point x="261" y="264"/>
      <point x="261" y="288"/>
      <point x="261" y="263" type="curve"/>
      <point x="261" y="264"/>
      <point x="96" y="376"/>
      <point x="96" y="376" type="curve"/>
      <point x="96" y="401"/>
      <point x="96" y="376"/>
    </contour>
    <contour>
      <point x="95" y="176" type="curve"/>
      <point x="95" y="176"/>
      <point x="261" y="288"/>
      <point x="261" y="289" type="curve"/>
      <point x="261" y="264"/>
      <point x="261" y="288"/>
      <point x="261" y="263" type="curve"/>
      <point x="95" y="152" type="line"/>
      <point x="95" y="176"/>
      <point x="95" y="152"/>
    </contour>
  </outline>
</glyph>
<glyph name="onequarter" format="1">
  <advance width="576"/>
  <unicode hex="00BC"/>
  <outline>
    <contour>
      <point x="157" y="-92" type="line"/>
      <point x="415" y="757" type="line"/>
      <point x="386" y="757" type="line"/>
      <point x="129" y="-92" type="line"/>
    </contour>
    <contour>
      <point x="55" y="635" type="line"/>
      <point x="140" y="754" type="line"/>
      <point x="118" y="763" type="line"/>
      <point x="35" y="650" type="line"/>
    </contour>
    <contour>
      <point x="143" y="357" type="curve"/>
      <point x="143" y="763" type="line"/>
      <point x="118" y="763" type="line"/>
      <point x="118" y="357" type="line"/>
      <point x="134" y="357"/>
      <point x="132" y="357"/>
    </contour>
    <contour>
      <point x="539" y="48" type="line"/>
      <point x="287" y="48" type="line"/>
      <point x="287" y="27" type="line"/>
      <point x="539" y="27" type="line"/>
    </contour>
    <contour>
      <point x="302" y="27" type="line"/>
      <point x="457" y="333" type="line"/>
      <point x="434" y="342" type="line"/>
      <point x="287" y="48" type="line"/>
    </contour>
    <contour>
      <point x="458" y="-89" type="line"/>
      <point x="458" y="342" type="line"/>
      <point x="434" y="342" type="line"/>
      <point x="434" y="-89" type="line"/>
    </contour>
  </outline>
</glyph>
<glyph name="onehalf" format="1">
  <advance width="591"/>
  <unicode hex="00BD"/>
  <outline>
    <contour>
      <point x="171" y="-92" type="line"/>
      <point x="429" y="757" type="line"/>
      <point x="400" y="757" type="line"/>
      <point x="143" y="-92" type="line"/>
    </contour>
    <contour>
      <point x="55" y="635" type="line"/>
      <point x="140" y="754" type="line"/>
      <point x="118" y="763" type="line"/>
      <point x="35" y="650" type="line"/>
    </contour>
    <contour>
      <point x="143" y="357" type="curve"/>
      <point x="143" y="763" type="line"/>
      <point x="118" y="763" type="line"/>
      <point x="118" y="357" type="line"/>
      <point x="134" y="357"/>
      <point x="132" y="357"/>
    </contour>
    <contour>
      <point x="347" y="-90" type="curve"/>
      <point x="413" y="-90"/>
      <point x="479" y="-90"/>
      <point x="545" y="-90" type="curve"/>
      <point x="545" y="-79"/>
      <point x="545" y="-75"/>
      <point x="545" y="-68" type="curve"/>
      <point x="477" y="-68"/>
      <point x="414" y="-68"/>
      <point x="347" y="-68" type="curve"/>
      <point x="347" y="-91"/>
      <point x="347" y="-68"/>
    </contour>
    <contour>
      <point x="388" y="227" type="curve"/>
      <point x="400" y="266"/>
      <point x="411" y="302"/>
      <point x="451" y="302" type="curve"/>
      <point x="496" y="302"/>
      <point x="510" y="257"/>
      <point x="510" y="204" type="curve"/>
      <point x="510" y="157"/>
      <point x="491" y="124"/>
      <point x="464" y="85" type="curve"/>
      <point x="426" y="34"/>
      <point x="386" y="-17"/>
      <point x="347" y="-68" type="curve"/>
      <point x="358" y="-91"/>
      <point x="347" y="-68"/>
      <point x="358" y="-91" type="curve"/>
      <point x="399" y="-38"/>
      <point x="440" y="14"/>
      <point x="481" y="67" type="curve"/>
      <point x="512" y="113"/>
      <point x="534" y="149"/>
      <point x="534" y="205" type="curve"/>
      <point x="534" y="271"/>
      <point x="509" y="325"/>
      <point x="452" y="325" type="curve"/>
      <point x="404" y="325"/>
      <point x="381" y="289"/>
      <point x="367" y="236" type="curve"/>
      <point x="388" y="227"/>
      <point x="367" y="236"/>
    </contour>
  </outline>
</glyph>
<glyph name="threequarters" format="1">
  <advance width="614"/>
  <unicode hex="00BE"/>
  <outline>
    <contour>
      <point x="196" y="-92" type="line"/>
      <point x="454" y="757" type="line"/>
      <point x="425" y="757" type="line"/>
      <point x="168" y="-92" type="line"/>
    </contour>
    <contour>
      <point x="76" y="694" type="curve"/>
      <point x="87" y="715"/>
      <point x="103" y="738"/>
      <point x="129" y="738" type="curve"/>
      <point x="171" y="738"/>
      <point x="190" y="700"/>
      <point x="190" y="652" type="curve"/>
      <point x="190" y="606"/>
      <point x="153" y="569"/>
      <point x="103" y="564" type="curve"/>
      <point x="103" y="544"/>
      <point x="103" y="564"/>
      <point x="103" y="544" type="curve"/>
      <point x="169" y="547"/>
      <point x="215" y="590"/>
      <point x="215" y="654" type="curve"/>
      <point x="215" y="715"/>
      <point x="188" y="760"/>
      <point x="132" y="760" type="curve"/>
      <point x="99" y="760"/>
      <point x="72" y="735"/>
      <point x="58" y="707" type="curve"/>
      <point x="76" y="694"/>
      <point x="58" y="707"/>
    </contour>
    <contour>
      <point x="55" y="374" type="curve"/>
      <point x="74" y="353"/>
      <point x="97" y="340"/>
      <point x="124" y="340" type="curve"/>
      <point x="188" y="336"/>
      <point x="225" y="385"/>
      <point x="224" y="453" type="curve"/>
      <point x="224" y="517"/>
      <point x="173" y="554"/>
      <point x="103" y="557" type="curve"/>
      <point x="103" y="540"/>
      <point x="103" y="557"/>
      <point x="103" y="540" type="curve"/>
      <point x="161" y="535"/>
      <point x="199" y="499"/>
      <point x="199" y="452" type="curve"/>
      <point x="198" y="401"/>
      <point x="175" y="360"/>
      <point x="128" y="362" type="curve"/>
      <point x="104" y="362"/>
      <point x="85" y="374"/>
      <point x="67" y="390" type="curve"/>
      <point x="55" y="374"/>
      <point x="67" y="390"/>
    </contour>
    <contour>
      <point x="577" y="48" type="line"/>
      <point x="326" y="48" type="line"/>
      <point x="326" y="27" type="line"/>
      <point x="577" y="27" type="line"/>
    </contour>
    <contour>
      <point x="341" y="27" type="line"/>
      <point x="496" y="333" type="line"/>
      <point x="473" y="342" type="line"/>
      <point x="326" y="48" type="line"/>
    </contour>
    <contour>
      <point x="497" y="-89" type="line"/>
      <point x="497" y="342" type="line"/>
      <point x="473" y="342" type="line"/>
      <point x="473" y="-89" type="line"/>
    </contour>
  </outline>
</glyph>
<glyph name="Atilde" format="1">
  <advance width="403"/>
  <unicode hex="00C3"/>
  <outline>
    <contour>
      <point x="301" y="277" type="curve"/>
      <point x="231" y="277"/>
      <point x="163" y="277"/>
      <point x="94" y="277" type="curve"/>
      <point x="83" y="253"/>
      <point x="94" y="277"/>
      <point x="83" y="253" type="curve"/>
      <point x="159" y="253"/>
      <point x="233" y="253"/>
      <point x="309" y="253" type="curve"/>
      <point x="301" y="277"/>
      <point x="309" y="253"/>
    </contour>
    <contour>
      <point x="377" y="0" type="curve"/>
      <point x="323" y="241"/>
      <point x="268" y="481"/>
      <point x="214" y="722" type="curve"/>
      <point x="191" y="722"/>
      <point x="214" y="722"/>
      <point x="191" y="722" type="curve"/>
      <point x="244" y="481"/>
      <point x="297" y="241"/>
      <point x="351" y="0" type="curve"/>
      <point x="377" y="0"/>
      <point x="351" y="0"/>
    </contour>
    <contour>
      <point x="34" y="0" type="curve"/>
      <point x="94" y="241"/>
      <point x="153" y="481"/>
      <point x="212" y="722" type="curve"/>
      <point x="189" y="722"/>
      <point x="212" y="722"/>
      <point x="189" y="722" type="curve"/>
      <point x="129" y="481"/>
      <point x="67" y="241"/>
      <point x="6" y="0" type="curve"/>
      <point x="34" y="0"/>
      <point x="6" y="0"/>
    </contour>
    <contour>
      <point x="301" y="949" type="curve"/>
      <point x="293" y="901"/>
      <point x="291" y="847"/>
      <point x="261" y="847" type="curve"/>
      <point x="234" y="847"/>
      <point x="224" y="870"/>
      <point x="211" y="896" type="curve"/>
      <point x="195" y="925"/>
      <point x="183" y="950"/>
      <point x="150" y="950" type="curve"/>
      <point x="96" y="950"/>
      <point x="93" y="893"/>
      <point x="85" y="831" type="curve"/>
      <point x="106" y="825"/>
      <point x="85" y="831"/>
      <point x="106" y="825" type="curve"/>
      <point x="113" y="876"/>
      <point x="112" y="927"/>
      <point x="151" y="927" type="curve"/>
      <point x="176" y="927"/>
      <point x="182" y="903"/>
      <point x="193" y="880" type="curve"/>
      <point x="210" y="849"/>
      <point x="225" y="825"/>
      <point x="259" y="825" type="curve"/>
      <point x="314" y="825"/>
      <point x="313" y="885"/>
      <point x="323" y="945" type="curve"/>
      <point x="301" y="949"/>
      <point x="323" y="945"/>
    </contour>
  </outline>
</glyph>
<glyph name="Adieresis" format="1">
  <advance width="403"/>
  <unicode hex="00C4"/>
  <outline>
    <contour>
      <point x="301" y="277" type="curve"/>
      <point x="231" y="277"/>
      <point x="163" y="277"/>
      <point x="94" y="277" type="curve"/>
      <point x="83" y="253"/>
      <point x="94" y="277"/>
      <point x="83" y="253" type="curve"/>
      <point x="159" y="253"/>
      <point x="233" y="253"/>
      <point x="309" y="253" type="curve"/>
      <point x="301" y="277"/>
      <point x="309" y="253"/>
    </contour>
    <contour>
      <point x="377" y="0" type="curve"/>
      <point x="323" y="241"/>
      <point x="268" y="481"/>
      <point x="214" y="722" type="curve"/>
      <point x="191" y="722"/>
      <point x="214" y="722"/>
      <point x="191" y="722" type="curve"/>
      <point x="244" y="481"/>
      <point x="297" y="241"/>
      <point x="351" y="0" type="curve"/>
      <point x="377" y="0"/>
      <point x="351" y="0"/>
    </contour>
    <contour>
      <point x="34" y="0" type="curve"/>
      <point x="94" y="241"/>
      <point x="153" y="481"/>
      <point x="212" y="722" type="curve"/>
      <point x="189" y="722"/>
      <point x="212" y="722"/>
      <point x="189" y="722" type="curve"/>
      <point x="129" y="481"/>
      <point x="67" y="241"/>
      <point x="6" y="0" type="curve"/>
      <point x="34" y="0"/>
      <point x="6" y="0"/>
    </contour>
    <contour>
      <point x="182" y="838" type="curve"/>
      <point x="182" y="850"/>
      <point x="175" y="856"/>
      <point x="164" y="856" type="curve"/>
      <point x="152" y="856"/>
      <point x="146" y="849"/>
      <point x="146" y="838" type="curve"/>
      <point x="185" y="838"/>
      <point x="143" y="838"/>
      <point x="182" y="838" type="curve"/>
      <point x="182" y="827"/>
      <point x="175" y="821"/>
      <point x="164" y="821" type="curve"/>
      <point x="152" y="821"/>
      <point x="146" y="827"/>
      <point x="146" y="838" type="curve"/>
      <point x="185" y="838"/>
      <point x="143" y="838"/>
    </contour>
    <contour>
      <point x="255" y="838" type="curve"/>
      <point x="255" y="850"/>
      <point x="248" y="856"/>
      <point x="237" y="856" type="curve"/>
      <point x="226" y="856"/>
      <point x="220" y="849"/>
      <point x="220" y="838" type="curve"/>
      <point x="259" y="838"/>
      <point x="216" y="838"/>
      <point x="255" y="838" type="curve"/>
      <point x="255" y="827"/>
      <point x="248" y="821"/>
      <point x="237" y="821" type="curve"/>
      <point x="226" y="821"/>
      <point x="220" y="827"/>
      <point x="220" y="838" type="curve"/>
      <point x="259" y="838"/>
      <point x="216" y="838"/>
    </contour>
  </outline>
</glyph>
<glyph name="Aring" format="1">
  <advance width="403"/>
  <unicode hex="00C5"/>
  <outline>
    <contour>
      <point x="301" y="277" type="curve"/>
      <point x="231" y="277"/>
      <point x="163" y="277"/>
      <point x="94" y="277" type="curve"/>
      <point x="83" y="253"/>
      <point x="94" y="277"/>
      <point x="83" y="253" type="curve"/>
      <point x="159" y="253"/>
      <point x="233" y="253"/>
      <point x="309" y="253" type="curve"/>
      <point x="301" y="277"/>
      <point x="309" y="253"/>
    </contour>
    <contour>
      <point x="377" y="0" type="curve"/>
      <point x="323" y="241"/>
      <point x="268" y="481"/>
      <point x="214" y="722" type="curve"/>
      <point x="191" y="722"/>
      <point x="214" y="722"/>
      <point x="191" y="722" type="curve"/>
      <point x="244" y="481"/>
      <point x="297" y="241"/>
      <point x="351" y="0" type="curve"/>
      <point x="377" y="0"/>
      <point x="351" y="0"/>
    </contour>
    <contour>
      <point x="34" y="0" type="curve"/>
      <point x="94" y="241"/>
      <point x="153" y="481"/>
      <point x="212" y="722" type="curve"/>
      <point x="189" y="722"/>
      <point x="212" y="722"/>
      <point x="189" y="722" type="curve"/>
      <point x="129" y="481"/>
      <point x="67" y="241"/>
      <point x="6" y="0" type="curve"/>
      <point x="34" y="0"/>
      <point x="6" y="0"/>
    </contour>
    <contour>
      <point x="128" y="940" type="curve"/>
      <point x="128" y="877"/>
      <point x="146" y="824"/>
      <point x="202" y="824" type="curve"/>
      <point x="258" y="824"/>
      <point x="277" y="876"/>
      <point x="277" y="940" type="curve"/>
      <point x="277" y="1004"/>
      <point x="257" y="1057"/>
      <point x="200" y="1057" type="curve"/>
      <point x="145" y="1057"/>
      <point x="128" y="1004"/>
      <point x="128" y="940" type="curve"/>
      <point x="152" y="940"/>
      <point x="128" y="940"/>
      <point x="152" y="940" type="curve"/>
      <point x="152" y="990"/>
      <point x="159" y="1034"/>
      <point x="200" y="1034" type="curve"/>
      <point x="242" y="1034"/>
      <point x="252" y="990"/>
      <point x="252" y="940" type="curve"/>
      <point x="252" y="890"/>
      <point x="243" y="845"/>
      <point x="202" y="845" type="curve"/>
      <point x="160" y="845"/>
      <point x="152" y="890"/>
      <point x="152" y="940" type="curve"/>
      <point x="128" y="940"/>
      <point x="152" y="940"/>
    </contour>
  </outline>
</glyph>
<glyph name="AE" format="1">
  <advance width="580"/>
  <unicode hex="00C6"/>
  <outline>
    <contour>
      <point x="293" y="283" type="curve"/>
      <point x="224" y="283"/>
      <point x="193" y="283"/>
      <point x="124" y="283" type="curve"/>
      <point x="114" y="259"/>
      <point x="124" y="283"/>
      <point x="114" y="259" type="curve"/>
      <point x="189" y="259"/>
      <point x="226" y="259"/>
      <point x="302" y="259" type="curve"/>
      <point x="293" y="283"/>
      <point x="302" y="259"/>
    </contour>
    <contour>
      <point x="26" y="0" type="curve"/>
      <point x="304" y="722" type="line"/>
      <point x="281" y="722"/>
      <point x="305" y="722"/>
      <point x="282" y="722" type="curve"/>
      <point x="-2" y="0" type="line"/>
      <point x="26" y="0"/>
      <point x="-3" y="0"/>
    </contour>
    <contour>
      <point x="298" y="363" type="curve"/>
      <point x="364" y="363"/>
      <point x="430" y="363"/>
      <point x="496" y="363" type="curve"/>
      <point x="496" y="385"/>
      <point x="496" y="363"/>
      <point x="496" y="385" type="curve"/>
      <point x="430" y="385"/>
      <point x="364" y="385"/>
      <point x="298" y="385" type="curve"/>
      <point x="298" y="363"/>
      <point x="298" y="385"/>
    </contour>
    <contour>
      <point x="289" y="699" type="curve"/>
      <point x="371" y="699"/>
      <point x="452" y="699"/>
      <point x="534" y="699" type="curve"/>
      <point x="534" y="722"/>
      <point x="534" y="699"/>
      <point x="534" y="722" type="curve"/>
      <point x="452" y="722"/>
      <point x="371" y="722"/>
      <point x="289" y="722" type="curve"/>
      <point x="289" y="699"/>
      <point x="289" y="722"/>
    </contour>
    <contour>
      <point x="308" y="0" type="curve"/>
      <point x="308" y="722" type="line"/>
      <point x="283" y="722"/>
      <point x="308" y="722"/>
      <point x="283" y="722" type="curve"/>
      <point x="283" y="481"/>
      <point x="283" y="241"/>
      <point x="283" y="0" type="curve"/>
      <point x="308" y="0"/>
      <point x="283" y="0"/>
    </contour>
    <contour>
      <point x="289" y="0" type="curve"/>
      <point x="378" y="0"/>
      <point x="466" y="0"/>
      <point x="555" y="0" type="curve"/>
      <point x="555" y="23"/>
      <point x="555" y="0"/>
      <point x="555" y="23" type="curve"/>
      <point x="466" y="23"/>
      <point x="378" y="23"/>
      <point x="289" y="23" type="curve"/>
      <point x="289" y="0"/>
      <point x="289" y="23"/>
    </contour>
  </outline>
</glyph>
<glyph name="Ccedilla" format="1">
  <advance width="458"/>
  <unicode hex="00C7"/>
  <outline>
    <contour>
      <point x="410" y="655" type="curve"/>
      <point x="373" y="694"/>
      <point x="328" y="727"/>
      <point x="271" y="727" type="curve"/>
      <point x="98" y="727"/>
      <point x="72" y="553"/>
      <point x="72" y="344" type="curve"/>
      <point x="72" y="154"/>
      <point x="98" y="-5"/>
      <point x="258" y="-5" type="curve"/>
      <point x="335" y="-5"/>
      <point x="378" y="35"/>
      <point x="423" y="96" type="curve"/>
      <point x="406" y="114"/>
      <point x="422" y="96"/>
      <point x="405" y="114" type="curve"/>
      <point x="366" y="60"/>
      <point x="327" y="22"/>
      <point x="259" y="22" type="curve"/>
      <point x="115" y="22"/>
      <point x="97" y="171"/>
      <point x="97" y="345" type="curve"/>
      <point x="97" y="536"/>
      <point x="117" y="702"/>
      <point x="270" y="702" type="curve"/>
      <point x="322" y="702"/>
      <point x="364" y="672"/>
      <point x="397" y="637" type="curve"/>
      <point x="410" y="655"/>
      <point x="397" y="637"/>
    </contour>
    <contour>
      <point x="240" y="10" type="curve"/>
      <point x="230" y="-17"/>
      <point x="221" y="-45"/>
      <point x="213" y="-71" type="curve"/>
      <point x="231" y="-89"/>
      <point x="213" y="-71"/>
      <point x="231" y="-89" type="curve"/>
      <point x="239" y="-61"/>
      <point x="250" y="-33"/>
      <point x="259" y="-6" type="curve"/>
      <point x="240" y="10"/>
      <point x="259" y="-6"/>
    </contour>
    <contour>
      <point x="231" y="-89" type="curve"/>
      <point x="238" y="-81"/>
      <point x="243" y="-76"/>
      <point x="254" y="-76" type="curve"/>
      <point x="279" y="-76"/>
      <point x="281" y="-103"/>
      <point x="281" y="-133" type="curve"/>
      <point x="281" y="-163"/>
      <point x="272" y="-188"/>
      <point x="246" y="-188" type="curve"/>
      <point x="230" y="-188"/>
      <point x="218" y="-183"/>
      <point x="207" y="-171" type="curve"/>
      <point x="196" y="-188"/>
      <point x="207" y="-171"/>
      <point x="196" y="-188" type="curve"/>
      <point x="210" y="-203"/>
      <point x="225" y="-210"/>
      <point x="245" y="-210" type="curve"/>
      <point x="286" y="-210"/>
      <point x="307" y="-176"/>
      <point x="307" y="-133" type="curve"/>
      <point x="307" y="-90"/>
      <point x="293" y="-53"/>
      <point x="256" y="-53" type="curve"/>
      <point x="239" y="-53"/>
      <point x="227" y="-59"/>
      <point x="213" y="-70" type="curve"/>
      <point x="231" y="-89"/>
      <point x="213" y="-70"/>
    </contour>
  </outline>
</glyph>
<glyph name="Egrave" format="1">
  <advance width="424"/>
  <unicode hex="00C8"/>
  <outline>
    <contour>
      <point x="142" y="363" type="curve"/>
      <point x="209" y="363"/>
      <point x="274" y="363"/>
      <point x="340" y="363" type="curve"/>
      <point x="340" y="385"/>
      <point x="340" y="363"/>
      <point x="340" y="385" type="curve"/>
      <point x="274" y="385"/>
      <point x="209" y="385"/>
      <point x="142" y="385" type="curve"/>
      <point x="142" y="363"/>
      <point x="142" y="385"/>
    </contour>
    <contour>
      <point x="134" y="699" type="curve"/>
      <point x="216" y="699"/>
      <point x="296" y="699"/>
      <point x="378" y="699" type="curve"/>
      <point x="378" y="722"/>
      <point x="378" y="699"/>
      <point x="378" y="722" type="curve"/>
      <point x="296" y="722"/>
      <point x="216" y="722"/>
      <point x="134" y="722" type="curve"/>
      <point x="134" y="699"/>
      <point x="134" y="722"/>
    </contour>
    <contour>
      <point x="153" y="0" type="curve"/>
      <point x="153" y="722" type="line"/>
      <point x="128" y="722"/>
      <point x="153" y="722"/>
      <point x="128" y="722" type="curve"/>
      <point x="128" y="481"/>
      <point x="128" y="241"/>
      <point x="128" y="0" type="curve"/>
      <point x="153" y="0"/>
      <point x="128" y="0"/>
    </contour>
    <contour>
      <point x="134" y="0" type="curve"/>
      <point x="223" y="0"/>
      <point x="310" y="0"/>
      <point x="399" y="0" type="curve"/>
      <point x="399" y="23"/>
      <point x="399" y="0"/>
      <point x="399" y="23" type="curve"/>
      <point x="310" y="23"/>
      <point x="223" y="23"/>
      <point x="134" y="23" type="curve"/>
      <point x="134" y="0"/>
      <point x="134" y="23"/>
    </contour>
    <contour>
      <point x="235" y="825" type="line"/>
      <point x="187" y="991" type="line"/>
      <point x="156" y="991" type="line"/>
      <point x="211" y="825" type="line"/>
    </contour>
  </outline>
</glyph>
<glyph name="Edieresis" format="1">
  <advance width="424"/>
  <unicode hex="00CB"/>
  <outline>
    <contour>
      <point x="142" y="363" type="curve"/>
      <point x="208" y="363"/>
      <point x="274" y="363"/>
      <point x="340" y="363" type="curve"/>
      <point x="340" y="385"/>
      <point x="340" y="363"/>
      <point x="340" y="385" type="curve"/>
      <point x="274" y="385"/>
      <point x="208" y="385"/>
      <point x="142" y="385" type="curve"/>
      <point x="142" y="363"/>
      <point x="142" y="385"/>
    </contour>
    <contour>
      <point x="134" y="699" type="curve"/>
      <point x="215" y="699"/>
      <point x="296" y="699"/>
      <point x="378" y="699" type="curve"/>
      <point x="378" y="722"/>
      <point x="378" y="699"/>
      <point x="378" y="722" type="curve"/>
      <point x="296" y="722"/>
      <point x="215" y="722"/>
      <point x="134" y="722" type="curve"/>
      <point x="134" y="699"/>
      <point x="134" y="722"/>
    </contour>
    <contour>
      <point x="153" y="0" type="curve"/>
      <point x="153" y="722" type="line"/>
      <point x="127" y="722"/>
      <point x="153" y="722"/>
      <point x="127" y="722" type="curve"/>
      <point x="127" y="481"/>
      <point x="127" y="241"/>
      <point x="127" y="0" type="curve"/>
      <point x="153" y="0"/>
      <point x="127" y="0"/>
    </contour>
    <contour>
      <point x="134" y="0" type="curve"/>
      <point x="222" y="0"/>
      <point x="310" y="0"/>
      <point x="399" y="0" type="curve"/>
      <point x="399" y="23"/>
      <point x="399" y="0"/>
      <point x="399" y="23" type="curve"/>
      <point x="310" y="23"/>
      <point x="222" y="23"/>
      <point x="134" y="23" type="curve"/>
      <point x="134" y="0"/>
      <point x="134" y="23"/>
    </contour>
    <contour>
      <point x="201" y="838" type="curve"/>
      <point x="201" y="850"/>
      <point x="194" y="856"/>
      <point x="183" y="856" type="curve"/>
      <point x="171" y="856"/>
      <point x="165" y="849"/>
      <point x="165" y="838" type="curve"/>
      <point x="205" y="838"/>
      <point x="162" y="838"/>
      <point x="201" y="838" type="curve"/>
      <point x="201" y="827"/>
      <point x="194" y="821"/>
      <point x="183" y="821" type="curve"/>
      <point x="171" y="821"/>
      <point x="165" y="827"/>
      <point x="165" y="838" type="curve"/>
      <point x="205" y="838"/>
      <point x="162" y="838"/>
    </contour>
    <contour>
      <point x="274" y="838" type="curve"/>
      <point x="274" y="850"/>
      <point x="267" y="856"/>
      <point x="256" y="856" type="curve"/>
      <point x="245" y="856"/>
      <point x="239" y="849"/>
      <point x="239" y="838" type="curve"/>
      <point x="278" y="838"/>
      <point x="235" y="838"/>
      <point x="274" y="838" type="curve"/>
      <point x="274" y="827"/>
      <point x="267" y="821"/>
      <point x="256" y="821" type="curve"/>
      <point x="245" y="821"/>
      <point x="239" y="827"/>
      <point x="239" y="838" type="curve"/>
      <point x="278" y="838"/>
      <point x="235" y="838"/>
    </contour>
  </outline>
</glyph>
<glyph name="Igrave" format="1">
  <advance width="280"/>
  <unicode hex="00CC"/>
  <outline>
    <contour>
      <point x="154" y="0" type="curve"/>
      <point x="154" y="241"/>
      <point x="154" y="481"/>
      <point x="154" y="722" type="curve"/>
      <point x="129" y="722"/>
      <point x="154" y="722"/>
      <point x="129" y="722" type="curve"/>
      <point x="129" y="481"/>
      <point x="129" y="241"/>
      <point x="129" y="0" type="curve"/>
      <point x="154" y="0"/>
      <point x="129" y="0"/>
    </contour>
    <contour>
      <point x="156" y="825" type="line"/>
      <point x="108" y="991" type="line"/>
      <point x="77" y="991" type="line"/>
      <point x="132" y="825" type="line"/>
    </contour>
  </outline>
</glyph>
<glyph name="Iacute" format="1">
  <advance width="278"/>
  <unicode hex="00CD"/>
  <outline>
    <contour>
      <point x="149" y="0" type="curve"/>
      <point x="149" y="241"/>
      <point x="149" y="481"/>
      <point x="149" y="722" type="curve"/>
      <point x="123" y="722"/>
      <point x="149" y="722"/>
      <point x="123" y="722" type="curve"/>
      <point x="123" y="481"/>
      <point x="123" y="241"/>
      <point x="123" y="0" type="curve"/>
      <point x="149" y="0"/>
      <point x="123" y="0"/>
    </contour>
    <contour>
      <point x="148" y="825" type="line"/>
      <point x="203" y="991" type="line"/>
      <point x="172" y="991" type="line"/>
      <point x="124" y="825" type="line"/>
    </contour>
  </outline>
</glyph>
<glyph name="Icircumflex" format="1">
  <advance width="258"/>
  <unicode hex="00CE"/>
  <outline>
    <contour>
      <point x="144" y="0" type="curve"/>
      <point x="144" y="241"/>
      <point x="144" y="481"/>
      <point x="144" y="722" type="curve"/>
      <point x="119" y="722"/>
      <point x="144" y="722"/>
      <point x="119" y="722" type="curve"/>
      <point x="119" y="481"/>
      <point x="119" y="241"/>
      <point x="119" y="0" type="curve"/>
      <point x="144" y="0"/>
      <point x="119" y="0"/>
    </contour>
    <contour>
      <point x="87" y="825" type="line"/>
      <point x="142" y="991" type="line"/>
      <point x="111" y="991" type="line"/>
      <point x="63" y="825" type="line"/>
    </contour>
    <contour>
      <point x="200" y="825" type="line"/>
      <point x="152" y="991" type="line"/>
      <point x="121" y="991" type="line"/>
      <point x="176" y="825" type="line"/>
    </contour>
  </outline>
</glyph>
<glyph name="Idieresis" format="1">
  <advance width="188"/>
  <unicode hex="00CF"/>
  <outline>
    <contour>
      <point x="108" y="0" type="curve"/>
      <point x="108" y="241"/>
      <point x="108" y="481"/>
      <point x="108" y="722" type="curve"/>
      <point x="83" y="722"/>
      <point x="108" y="722"/>
      <point x="83" y="722" type="curve"/>
      <point x="83" y="481"/>
      <point x="83" y="241"/>
      <point x="83" y="0" type="curve"/>
      <point x="108" y="0"/>
      <point x="83" y="0"/>
    </contour>
    <contour>
      <point x="77" y="838" type="curve"/>
      <point x="77" y="850"/>
      <point x="70" y="856"/>
      <point x="59" y="856" type="curve"/>
      <point x="47" y="856"/>
      <point x="41" y="849"/>
      <point x="41" y="838" type="curve"/>
      <point x="80" y="838"/>
      <point x="38" y="838"/>
      <point x="77" y="838" type="curve"/>
      <point x="77" y="827"/>
      <point x="70" y="821"/>
      <point x="59" y="821" type="curve"/>
      <point x="47" y="821"/>
      <point x="41" y="827"/>
      <point x="41" y="838" type="curve"/>
      <point x="80" y="838"/>
      <point x="38" y="838"/>
    </contour>
    <contour>
      <point x="150" y="838" type="curve"/>
      <point x="150" y="850"/>
      <point x="143" y="856"/>
      <point x="132" y="856" type="curve"/>
      <point x="121" y="856"/>
      <point x="115" y="849"/>
      <point x="115" y="838" type="curve"/>
      <point x="154" y="838"/>
      <point x="111" y="838"/>
      <point x="150" y="838" type="curve"/>
      <point x="150" y="827"/>
      <point x="143" y="821"/>
      <point x="132" y="821" type="curve"/>
      <point x="121" y="821"/>
      <point x="115" y="827"/>
      <point x="115" y="838" type="curve"/>
      <point x="154" y="838"/>
      <point x="111" y="838"/>
    </contour>
  </outline>
</glyph>
<glyph name="Ntilde" format="1">
  <advance width="606"/>
  <unicode hex="00D1"/>
  <outline>
    <contour>
      <point x="479" y="0" type="curve"/>
      <point x="371" y="241"/>
      <point x="263" y="481"/>
      <point x="156" y="722" type="curve"/>
      <point x="126" y="722"/>
      <point x="157" y="722"/>
      <point x="127" y="722" type="curve"/>
      <point x="235" y="481"/>
      <point x="343" y="241"/>
      <point x="451" y="0" type="curve"/>
      <point x="481" y="0"/>
      <point x="449" y="0"/>
    </contour>
    <contour>
      <point x="454" y="722" type="curve"/>
      <point x="454" y="481"/>
      <point x="454" y="241"/>
      <point x="454" y="0" type="curve"/>
      <point x="479" y="0"/>
      <point x="454" y="0"/>
      <point x="479" y="0" type="curve"/>
      <point x="479" y="241"/>
      <point x="479" y="481"/>
      <point x="479" y="722" type="curve"/>
      <point x="454" y="722"/>
      <point x="479" y="722"/>
    </contour>
    <contour>
      <point x="154" y="0" type="curve"/>
      <point x="154" y="241"/>
      <point x="154" y="481"/>
      <point x="154" y="722" type="curve"/>
      <point x="128" y="722"/>
      <point x="154" y="722"/>
      <point x="128" y="722" type="curve"/>
      <point x="128" y="481"/>
      <point x="128" y="241"/>
      <point x="128" y="0" type="curve"/>
      <point x="154" y="0"/>
      <point x="128" y="0"/>
    </contour>
    <contour>
      <point x="410" y="949" type="curve"/>
      <point x="402" y="901"/>
      <point x="400" y="847"/>
      <point x="370" y="847" type="curve"/>
      <point x="343" y="847"/>
      <point x="333" y="870"/>
      <point x="320" y="896" type="curve"/>
      <point x="304" y="925"/>
      <point x="292" y="950"/>
      <point x="259" y="950" type="curve"/>
      <point x="205" y="950"/>
      <point x="202" y="893"/>
      <point x="194" y="831" type="curve"/>
      <point x="215" y="825"/>
      <point x="194" y="831"/>
      <point x="215" y="825" type="curve"/>
      <point x="222" y="876"/>
      <point x="221" y="927"/>
      <point x="260" y="927" type="curve"/>
      <point x="285" y="927"/>
      <point x="291" y="903"/>
      <point x="302" y="880" type="curve"/>
      <point x="319" y="849"/>
      <point x="334" y="825"/>
      <point x="368" y="825" type="curve"/>
      <point x="423" y="825"/>
      <point x="422" y="885"/>
      <point x="432" y="945" type="curve"/>
      <point x="410" y="949"/>
      <point x="432" y="945"/>
    </contour>
  </outline>
</glyph>
<glyph name="Ocircumflex" format="1">
  <advance width="518"/>
  <unicode hex="00D4"/>
  <outline>
    <contour>
      <point x="98" y="360" type="curve" name="FullCurve"/>
      <point x="98" y="538"/>
      <point x="109" y="703"/>
      <point x="257" y="703" type="curve" name="FullCurve"/>
      <point x="405" y="703"/>
      <point x="421" y="540"/>
      <point x="421" y="363" type="curve" name="FullCurve"/>
      <point x="421" y="189"/>
      <point x="408" y="19"/>
      <point x="260" y="19" type="curve" name="FullCurve"/>
      <point x="112" y="19"/>
      <point x="98" y="182"/>
      <point x="98" y="360" type="curve" name="FullCurve"/>
      <point x="72" y="360"/>
      <point x="98" y="360"/>
      <point x="72" y="360" type="curve" name="FullCurve"/>
      <point x="72" y="167"/>
      <point x="97" y="-5"/>
      <point x="259" y="-5" type="curve" name="FullCurve"/>
      <point x="422" y="-5"/>
      <point x="446" y="169"/>
      <point x="446" y="363" type="curve" name="FullCurve"/>
      <point x="446" y="555"/>
      <point x="422" y="727"/>
      <point x="260" y="727" type="curve" name="FullCurve"/>
      <point x="96" y="727"/>
      <point x="72" y="553"/>
      <point x="72" y="360" type="curve" name="FullCurve"/>
      <point x="98" y="360"/>
      <point x="72" y="360"/>
    </contour>
    <contour>
      <point x="213" y="825" type="line"/>
      <point x="268" y="991" type="line"/>
      <point x="237" y="991" type="line"/>
      <point x="189" y="825" type="line"/>
    </contour>
    <contour>
      <point x="327" y="825" type="line"/>
      <point x="279" y="991" type="line"/>
      <point x="248" y="991" type="line"/>
      <point x="303" y="825" type="line"/>
    </contour>
  </outline>
</glyph>
<glyph name="Otilde" format="1">
  <advance width="518"/>
  <unicode hex="00D5"/>
  <outline>
    <contour>
      <point x="98" y="360" type="curve" name="FullCurve"/>
      <point x="98" y="538"/>
      <point x="109" y="703"/>
      <point x="257" y="703" type="curve" name="FullCurve"/>
      <point x="405" y="703"/>
      <point x="421" y="540"/>
      <point x="421" y="363" type="curve" name="FullCurve"/>
      <point x="421" y="189"/>
      <point x="408" y="19"/>
      <point x="260" y="19" type="curve" name="FullCurve"/>
      <point x="112" y="19"/>
      <point x="98" y="182"/>
      <point x="98" y="360" type="curve" name="FullCurve"/>
      <point x="72" y="360"/>
      <point x="98" y="360"/>
      <point x="72" y="360" type="curve" name="FullCurve"/>
      <point x="72" y="167"/>
      <point x="97" y="-5"/>
      <point x="259" y="-5" type="curve" name="FullCurve"/>
      <point x="422" y="-5"/>
      <point x="446" y="169"/>
      <point x="446" y="363" type="curve" name="FullCurve"/>
      <point x="446" y="555"/>
      <point x="422" y="727"/>
      <point x="260" y="727" type="curve" name="FullCurve"/>
      <point x="96" y="727"/>
      <point x="72" y="553"/>
      <point x="72" y="360" type="curve" name="FullCurve"/>
      <point x="98" y="360"/>
      <point x="72" y="360"/>
    </contour>
    <contour>
      <point x="358" y="949" type="curve"/>
      <point x="350" y="901"/>
      <point x="348" y="847"/>
      <point x="318" y="847" type="curve"/>
      <point x="291" y="847"/>
      <point x="281" y="870"/>
      <point x="268" y="896" type="curve"/>
      <point x="252" y="925"/>
      <point x="240" y="950"/>
      <point x="207" y="950" type="curve"/>
      <point x="153" y="950"/>
      <point x="149" y="893"/>
      <point x="142" y="831" type="curve"/>
      <point x="163" y="825"/>
      <point x="142" y="831"/>
      <point x="163" y="825" type="curve"/>
      <point x="169" y="876"/>
      <point x="169" y="927"/>
      <point x="208" y="927" type="curve"/>
      <point x="233" y="927"/>
      <point x="239" y="903"/>
      <point x="250" y="880" type="curve"/>
      <point x="267" y="849"/>
      <point x="282" y="825"/>
      <point x="316" y="825" type="curve"/>
      <point x="371" y="825"/>
      <point x="370" y="885"/>
      <point x="380" y="945" type="curve"/>
      <point x="358" y="949"/>
      <point x="380" y="945"/>
    </contour>
  </outline>
</glyph>
<glyph name="Odieresis" format="1">
  <advance width="518"/>
  <unicode hex="00D6"/>
  <outline>
    <contour>
      <point x="98" y="360" type="curve" name="FullCurve"/>
      <point x="98" y="538"/>
      <point x="109" y="703"/>
      <point x="257" y="703" type="curve" name="FullCurve"/>
      <point x="405" y="703"/>
      <point x="421" y="540"/>
      <point x="421" y="363" type="curve" name="FullCurve"/>
      <point x="421" y="189"/>
      <point x="408" y="19"/>
      <point x="260" y="19" type="curve" name="FullCurve"/>
      <point x="112" y="19"/>
      <point x="98" y="182"/>
      <point x="98" y="360" type="curve" name="FullCurve"/>
      <point x="72" y="360"/>
      <point x="98" y="360"/>
      <point x="72" y="360" type="curve" name="FullCurve"/>
      <point x="72" y="167"/>
      <point x="97" y="-5"/>
      <point x="259" y="-5" type="curve" name="FullCurve"/>
      <point x="422" y="-5"/>
      <point x="446" y="169"/>
      <point x="446" y="363" type="curve" name="FullCurve"/>
      <point x="446" y="555"/>
      <point x="422" y="727"/>
      <point x="260" y="727" type="curve" name="FullCurve"/>
      <point x="96" y="727"/>
      <point x="72" y="553"/>
      <point x="72" y="360" type="curve" name="FullCurve"/>
      <point x="98" y="360"/>
      <point x="72" y="360"/>
    </contour>
    <contour>
      <point x="239" y="838" type="curve"/>
      <point x="239" y="850"/>
      <point x="232" y="856"/>
      <point x="221" y="856" type="curve"/>
      <point x="209" y="856"/>
      <point x="203" y="849"/>
      <point x="203" y="838" type="curve"/>
      <point x="242" y="838"/>
      <point x="200" y="838"/>
      <point x="239" y="838" type="curve"/>
      <point x="239" y="827"/>
      <point x="232" y="821"/>
      <point x="221" y="821" type="curve"/>
      <point x="209" y="821"/>
      <point x="203" y="827"/>
      <point x="203" y="838" type="curve"/>
      <point x="242" y="838"/>
      <point x="200" y="838"/>
    </contour>
    <contour>
      <point x="312" y="838" type="curve"/>
      <point x="312" y="850"/>
      <point x="305" y="856"/>
      <point x="294" y="856" type="curve"/>
      <point x="283" y="856"/>
      <point x="277" y="849"/>
      <point x="277" y="838" type="curve"/>
      <point x="316" y="838"/>
      <point x="273" y="838"/>
      <point x="312" y="838" type="curve"/>
      <point x="312" y="827"/>
      <point x="305" y="821"/>
      <point x="294" y="821" type="curve"/>
      <point x="283" y="821"/>
      <point x="277" y="827"/>
      <point x="277" y="838" type="curve"/>
      <point x="316" y="838"/>
      <point x="273" y="838"/>
    </contour>
  </outline>
</glyph>
<glyph name="multiply" format="1">
  <advance width="492"/>
  <unicode hex="00D7"/>
  <outline>
    <contour>
      <point x="88" y="133" type="line"/>
      <point x="424" y="468" type="line"/>
      <point x="406" y="486" type="line"/>
      <point x="71" y="150" type="line"/>
    </contour>
    <contour>
      <point x="423" y="151" type="line"/>
      <point x="88" y="485" type="line"/>
      <point x="71" y="468" type="line"/>
      <point x="405" y="133" type="line"/>
    </contour>
  </outline>
</glyph>
<glyph name="Ucircumflex" format="1">
  <advance width="563"/>
  <unicode hex="00DB"/>
  <outline>
    <contour>
      <point x="117" y="721" type="curve"/>
      <point x="117" y="576"/>
      <point x="117" y="416"/>
      <point x="117" y="271" type="curve"/>
      <point x="117" y="112"/>
      <point x="145" y="-5"/>
      <point x="282" y="-5" type="curve"/>
      <point x="416" y="-5"/>
      <point x="446" y="109"/>
      <point x="446" y="263" type="curve"/>
      <point x="446" y="411"/>
      <point x="446" y="574"/>
      <point x="446" y="721" type="curve"/>
      <point x="421" y="721"/>
      <point x="447" y="721"/>
      <point x="422" y="721" type="curve"/>
      <point x="422" y="572"/>
      <point x="422" y="408"/>
      <point x="422" y="259" type="curve"/>
      <point x="422" y="123"/>
      <point x="396" y="20"/>
      <point x="284" y="20" type="curve"/>
      <point x="162" y="20"/>
      <point x="141" y="130"/>
      <point x="141" y="275" type="curve"/>
      <point x="141" y="420"/>
      <point x="141" y="578"/>
      <point x="141" y="721" type="curve"/>
      <point x="116" y="721"/>
      <point x="142" y="721"/>
    </contour>
    <contour>
      <point x="239" y="825" type="line"/>
      <point x="294" y="991" type="line"/>
      <point x="263" y="991" type="line"/>
      <point x="215" y="825" type="line"/>
    </contour>
    <contour>
      <point x="352" y="825" type="line"/>
      <point x="304" y="991" type="line"/>
      <point x="273" y="991" type="line"/>
      <point x="328" y="825" type="line"/>
    </contour>
  </outline>
</glyph>
<glyph name="Udieresis" format="1">
  <advance width="563"/>
  <unicode hex="00DC"/>
  <outline>
    <contour>
      <point x="117" y="721" type="curve"/>
      <point x="117" y="576"/>
      <point x="117" y="416"/>
      <point x="117" y="271" type="curve"/>
      <point x="117" y="112"/>
      <point x="145" y="-5"/>
      <point x="282" y="-5" type="curve"/>
      <point x="416" y="-5"/>
      <point x="446" y="109"/>
      <point x="446" y="263" type="curve"/>
      <point x="446" y="411"/>
      <point x="446" y="574"/>
      <point x="446" y="721" type="curve"/>
      <point x="421" y="721"/>
      <point x="447" y="721"/>
      <point x="422" y="721" type="curve"/>
      <point x="422" y="572"/>
      <point x="422" y="408"/>
      <point x="422" y="259" type="curve"/>
      <point x="422" y="123"/>
      <point x="396" y="20"/>
      <point x="284" y="20" type="curve"/>
      <point x="162" y="20"/>
      <point x="141" y="130"/>
      <point x="141" y="275" type="curve"/>
      <point x="141" y="420"/>
      <point x="141" y="578"/>
      <point x="141" y="721" type="curve"/>
      <point x="116" y="721"/>
      <point x="142" y="721"/>
    </contour>
    <contour>
      <point x="264" y="838" type="curve"/>
      <point x="264" y="850"/>
      <point x="257" y="856"/>
      <point x="246" y="856" type="curve"/>
      <point x="235" y="856"/>
      <point x="229" y="849"/>
      <point x="229" y="838" type="curve"/>
      <point x="268" y="838"/>
      <point x="225" y="838"/>
      <point x="264" y="838" type="curve"/>
      <point x="264" y="827"/>
      <point x="257" y="821"/>
      <point x="246" y="821" type="curve"/>
      <point x="235" y="821"/>
      <point x="229" y="827"/>
      <point x="229" y="838" type="curve"/>
      <point x="268" y="838"/>
      <point x="225" y="838"/>
    </contour>
    <contour>
      <point x="338" y="838" type="curve"/>
      <point x="338" y="850"/>
      <point x="331" y="856"/>
      <point x="320" y="856" type="curve"/>
      <point x="308" y="856"/>
      <point x="302" y="849"/>
      <point x="302" y="838" type="curve"/>
      <point x="341" y="838"/>
      <point x="299" y="838"/>
      <point x="338" y="838" type="curve"/>
      <point x="338" y="827"/>
      <point x="331" y="821"/>
      <point x="320" y="821" type="curve"/>
      <point x="308" y="821"/>
      <point x="302" y="827"/>
      <point x="302" y="838" type="curve"/>
      <point x="341" y="838"/>
      <point x="299" y="838"/>
    </contour>
  </outline>
</glyph>
<glyph name="Thorn" format="1">
  <advance width="423"/>
  <unicode hex="00DE"/>
  <outline>
    <contour>
      <point x="137" y="220" type="curve"/>
      <point x="164" y="195"/>
      <point x="196" y="175"/>
      <point x="234" y="175" type="curve"/>
      <point x="334" y="177"/>
      <point x="371" y="267"/>
      <point x="371" y="389" type="curve"/>
      <point x="371" y="511"/>
      <point x="328" y="617"/>
      <point x="220" y="617" type="curve"/>
      <point x="194" y="617"/>
      <point x="168" y="617"/>
      <point x="142" y="617" type="curve"/>
      <point x="142" y="594"/>
      <point x="142" y="617"/>
      <point x="142" y="594" type="curve"/>
      <point x="167" y="594"/>
      <point x="192" y="594"/>
      <point x="217" y="594" type="curve"/>
      <point x="313" y="594"/>
      <point x="346" y="497"/>
      <point x="346" y="388" type="curve"/>
      <point x="346" y="287"/>
      <point x="319" y="199"/>
      <point x="235" y="199" type="curve"/>
      <point x="197" y="199"/>
      <point x="174" y="216"/>
      <point x="146" y="242" type="curve"/>
      <point x="137" y="221"/>
      <point x="146" y="240"/>
    </contour>
    <contour>
      <point x="152" y="0" type="curve"/>
      <point x="152" y="241"/>
      <point x="152" y="481"/>
      <point x="152" y="722" type="curve"/>
      <point x="127" y="722"/>
      <point x="152" y="722"/>
      <point x="127" y="722" type="curve"/>
      <point x="127" y="481"/>
      <point x="127" y="241"/>
      <point x="127" y="0" type="curve"/>
      <point x="152" y="0"/>
      <point x="127" y="0"/>
    </contour>
  </outline>
</glyph>
<glyph name="germandbls" format="1">
  <advance width="416"/>
  <unicode hex="00DF"/>
  <outline>
    <contour>
      <point x="134" y="0" type="curve"/>
      <point x="134" y="207"/>
      <point x="134" y="412"/>
      <point x="134" y="619" type="curve"/>
      <point x="108" y="619"/>
      <point x="134" y="619"/>
      <point x="108" y="619" type="curve"/>
      <point x="108" y="412"/>
      <point x="108" y="207"/>
      <point x="108" y="0" type="curve"/>
      <point x="134" y="0"/>
      <point x="108" y="0"/>
    </contour>
    <contour>
      <point x="134" y="619" type="curve"/>
      <point x="134" y="705"/>
      <point x="153" y="782"/>
      <point x="223" y="782" type="curve"/>
      <point x="293" y="782"/>
      <point x="321" y="711"/>
      <point x="321" y="627" type="curve"/>
      <point x="321" y="541"/>
      <point x="285" y="471"/>
      <point x="215" y="471" type="curve"/>
      <point x="215" y="452"/>
      <point x="215" y="471"/>
      <point x="215" y="452" type="curve"/>
      <point x="303" y="452"/>
      <point x="345" y="530"/>
      <point x="345" y="628" type="curve"/>
      <point x="345" y="726"/>
      <point x="312" y="805"/>
      <point x="225" y="805" type="curve"/>
      <point x="137" y="805"/>
      <point x="108" y="720"/>
      <point x="108" y="619" type="curve"/>
      <point x="134" y="619"/>
      <point x="108" y="619"/>
    </contour>
    <contour>
      <point x="274" y="87" type="curve"/>
      <point x="346" y="114"/>
      <point x="365" y="182"/>
      <point x="365" y="273" type="curve"/>
      <point x="365" y="381"/>
      <point x="321" y="471"/>
      <point x="215" y="471" type="curve"/>
      <point x="215" y="452"/>
      <point x="215" y="471"/>
      <point x="215" y="452" type="curve"/>
      <point x="294" y="452"/>
      <point x="340" y="371"/>
      <point x="340" y="272" type="curve"/>
      <point x="340" y="196"/>
      <point x="323" y="135"/>
      <point x="267" y="109" type="curve"/>
      <point x="274" y="87"/>
      <point x="267" y="109"/>
    </contour>
  </outline>
</glyph>
<glyph name="atilde" format="1">
  <advance width="404"/>
  <unicode hex="00E3"/>
  <outline>
    <contour>
      <point x="300" y="0" type="curve"/>
      <point x="300" y="130"/>
      <point x="300" y="260"/>
      <point x="300" y="390" type="curve"/>
      <point x="300" y="481"/>
      <point x="273" y="538"/>
      <point x="195" y="538" type="curve"/>
      <point x="136" y="538"/>
      <point x="100" y="500"/>
      <point x="76" y="464" type="curve"/>
      <point x="94" y="446"/>
      <point x="76" y="464"/>
      <point x="94" y="446" type="curve"/>
      <point x="109" y="473"/>
      <point x="144" y="515"/>
      <point x="192" y="515" type="curve"/>
      <point x="257" y="515"/>
      <point x="275" y="463"/>
      <point x="275" y="383" type="curve"/>
      <point x="275" y="255"/>
      <point x="275" y="128"/>
      <point x="275" y="0" type="curve"/>
      <point x="300" y="0"/>
      <point x="275" y="0"/>
    </contour>
    <contour>
      <point x="285" y="321" type="curve"/>
      <point x="238" y="310"/>
      <point x="217" y="306"/>
      <point x="169" y="295" type="curve"/>
      <point x="98" y="278"/>
      <point x="62" y="222"/>
      <point x="62" y="141" type="curve"/>
      <point x="62" y="59"/>
      <point x="80" y="-5"/>
      <point x="156" y="-5" type="curve"/>
      <point x="243" y="-5"/>
      <point x="275" y="74"/>
      <point x="298" y="151" type="curve"/>
      <point x="282" y="166"/>
      <point x="297" y="151"/>
      <point x="282" y="165" type="curve"/>
      <point x="266" y="94"/>
      <point x="229" y="18"/>
      <point x="161" y="18" type="curve"/>
      <point x="97" y="18"/>
      <point x="87" y="73"/>
      <point x="87" y="143" type="curve"/>
      <point x="87" y="210"/>
      <point x="114" y="260"/>
      <point x="168" y="274" type="curve"/>
      <point x="218" y="285"/>
      <point x="238" y="290"/>
      <point x="288" y="301" type="curve"/>
      <point x="285" y="321"/>
      <point x="288" y="301"/>
    </contour>
    <contour>
      <point x="293" y="795" type="curve"/>
      <point x="285" y="746"/>
      <point x="283" y="693"/>
      <point x="253" y="693" type="curve"/>
      <point x="226" y="693"/>
      <point x="216" y="716"/>
      <point x="203" y="742" type="curve"/>
      <point x="187" y="771"/>
      <point x="175" y="796"/>
      <point x="142" y="796" type="curve"/>
      <point x="88" y="796"/>
      <point x="84" y="739"/>
      <point x="77" y="677" type="curve"/>
      <point x="98" y="671"/>
      <point x="77" y="677"/>
      <point x="98" y="671" type="curve"/>
      <point x="104" y="722"/>
      <point x="104" y="773"/>
      <point x="143" y="773" type="curve"/>
      <point x="168" y="773"/>
      <point x="174" y="749"/>
      <point x="185" y="726" type="curve"/>
      <point x="202" y="695"/>
      <point x="217" y="671"/>
      <point x="251" y="671" type="curve"/>
      <point x="306" y="671"/>
      <point x="305" y="731"/>
      <point x="315" y="791" type="curve"/>
      <point x="293" y="795"/>
      <point x="315" y="791"/>
    </contour>
  </outline>
</glyph>
